<?xml version="1.0" encoding="utf-8"?><svg viewBox="0 0 100 100" xmlns="http://www.w3.org/2000/svg" width="200px" height="200px" xmlns:xlink="http://www.w3.org/1999/xlink" style="width:100%;height:100%;background-size:initial;background-repeat-y:initial;background-repeat-x:initial;background-position-y:initial;background-position-x:initial;background-origin:initial;background-image:initial;background-clip:initial;background-attachment:initial;animation-play-state:paused" ><g class="ldl-scale" style="transform-origin:50% 50%;transform:rotate(0deg) scale(0.8, 0.8);animation-play-state:paused" ><g style="animation-play-state:paused" ><path fill="#FCA311" d="M9.865 82.005c8.634-1.047 17.137-3.036 25.005-6.398 7.857-3.348 15.062-8.085 20.822-14.208 5.801-6.08 10.233-13.346 13.408-21.139 3.188-7.801 5.173-16.106 6.388-24.536l.006-.039a4.504 4.504 0 1 1 8.87 1.533c-1.802 8.928-4.435 17.771-8.395 26.093-3.941 8.309-9.29 16.068-16.047 22.387-6.714 6.372-14.852 11.06-23.383 14.138-8.552 3.096-17.498 4.642-26.404 5.219a1.531 1.531 0 0 1-.288-3.047l.018-.003z" style="fill:#FCA311;animation-play-state:paused" ></path></g>
<g style="animation-play-state:paused" ><path fill="#FCA311" d="M84.505 14.243l7.776 14.97a1.635 1.635 0 0 1-2.561 1.952L77.347 19.698a4.568 4.568 0 1 1 7.158-5.455z" style="fill:#FCA311;animation-play-state:paused" ></path></g>
<g style="animation-play-state:paused" ><path fill="#FCA311" d="M81.742 19.823L66.183 26.34a1.635 1.635 0 0 1-1.735-2.713L76.895 12.24a4.567 4.567 0 1 1 4.847 7.583z" style="fill:#FCA311;animation-play-state:paused" ></path></g>
<metadata xmlns:d="https://loading.io/stock/" style="animation-play-state:paused" ><d:name style="animation-play-state:paused" >trend</d:name>


<d:tags style="animation-play-state:paused" >trend,revenue,profit,earning,income,grow,up,arrow</d:tags>


<d:license style="animation-play-state:paused" >by</d:license>


<d:slug style="animation-play-state:paused" >n5fvhf</d:slug></metadata></g><!-- generated by https://loading.io/ --></svg>