<svg id="Layer_1" data-name="Layer 1" xmlns="http://www.w3.org/2000/svg" viewBox="0 0 1189.266 639.816">
  <g>
    <path d="M109.072,632.7c-20.734.269-41.487-1.435-65.066-17.391-4.837-3.268-9.866-7.833-9.691-13.677.131-4.4,3.391-8.245,7.325-10.234a21,21,0,0,1,4.618-1.639c.008,0,.017,0,.017-.009a41.342,41.342,0,0,1,7.5-.9l.719-.026a122.1,122.1,0,0,1,35.627,3.96,4.811,4.811,0,0,0,4.355-8.3,29.1,29.1,0,0,0-4.855-3.364,46.119,46.119,0,0,0-7.938-3.365c-3.662-1.2-7.448-2.1-11.18-3.076A268.252,268.252,0,0,1,29.951,560.62c-9.366-4.118-18.8-9-25.208-16.981C1.8,539.968-.488,535.376.09,530.706c.964-7.675,9.209-12.407,16.893-13.371,13.468-1.682,26.611,4.329,38.6,10.681,9.946,5.284,21.056,11.1,31.912,8.105a9.849,9.849,0,0,0,4.933-2.769c2.454-2.839,1.849-7.377-.341-10.427s-5.591-4.95-8.868-6.773c-19.04-10.576-38.053-21.835-53.247-37.432S3.6,442.515,3.586,420.733c0-6.37.99-12.889,4.013-18.5s8.315-10.225,14.589-11.373c8.543-1.578,16.955,3.338,23.421,9.13C67.821,419.865,76.68,450.165,89.8,476.924c3.672,7.492,7.921,15.018,14.695,19.969a5.573,5.573,0,0,0,2.138,1c4.573.981,6.571-4.635,6.781-8.92.815-16.946-3.356-34.672,2.813-50.478,2.357-6.02,6.589-11.786,12.749-13.739,7.527-2.384,15.991,1.805,20.512,8.28s5.739,14.7,5.7,22.6c-.07,14.642-4.03,29.055-9.848,42.488-3.067,7.088-6.747,14.44-5.871,22.107a15.333,15.333,0,0,0,8.937,11.96,8.984,8.984,0,0,0,7,.017c2.392-1.025,4.215-3,5.968-4.924.735-.806,1.471-1.621,2.216-2.427q4.39-4.81,8.78-9.63c7.439-8.166,16.736-17.059,27.7-15.657,5.6.718,10.234,4.2,13.406,8.884a27.549,27.549,0,0,1,4.653,14.361c.333,10.681-8.709,43.635-13.8,53.028C198.386,586.809,180.013,631.775,109.072,632.7Z" fill="#8ddbe0"></path>
    <path d="M1080.2,632.7c20.733.269,41.486-1.435,65.065-17.391,4.837-3.268,9.866-7.833,9.691-13.677-.131-4.4-3.391-8.245-7.325-10.234a21,21,0,0,0-4.618-1.639c-.008,0-.017,0-.017-.009a41.342,41.342,0,0,0-7.5-.9l-.719-.026a122.1,122.1,0,0,0-35.627,3.96,4.811,4.811,0,0,1-4.354-8.3,29.047,29.047,0,0,1,4.854-3.364,46.119,46.119,0,0,1,7.938-3.365c3.663-1.2,7.448-2.1,11.181-3.076a268.241,268.241,0,0,0,40.551-14.054c9.367-4.118,18.8-9,25.209-16.981,2.943-3.671,5.23-8.263,4.652-12.933-.964-7.675-9.209-12.407-16.893-13.371-13.468-1.682-26.611,4.329-38.6,10.681-9.945,5.284-21.056,11.1-31.912,8.105a9.849,9.849,0,0,1-4.933-2.769c-2.453-2.839-1.849-7.377.342-10.427s5.59-4.95,8.867-6.773c19.04-10.576,38.054-21.835,53.247-37.432s26.365-36.205,26.383-57.987c0-6.37-.99-12.889-4.013-18.5s-8.315-10.225-14.589-11.373c-8.543-1.578-16.955,3.338-23.421,9.13-22.212,19.872-31.071,50.172-44.187,76.931-3.672,7.492-7.921,15.018-14.695,19.969a5.573,5.573,0,0,1-2.138,1c-4.573.981-6.571-4.635-6.781-8.92-.815-16.946,3.356-34.672-2.813-50.478-2.357-6.02-6.589-11.786-12.749-13.739-7.527-2.384-15.991,1.805-20.512,8.28s-5.739,14.7-5.7,22.6c.07,14.642,4.03,29.055,9.849,42.488,3.066,7.088,6.746,14.44,5.87,22.107a15.333,15.333,0,0,1-8.937,11.96,8.984,8.984,0,0,1-7,.017c-2.392-1.025-4.215-3-5.967-4.924-.736-.806-1.472-1.621-2.217-2.427q-4.39-4.81-8.78-9.63c-7.439-8.166-16.735-17.059-27.7-15.657-5.6.718-10.234,4.2-13.406,8.884a27.549,27.549,0,0,0-4.653,14.361c-.332,10.681,8.709,43.635,13.8,53.028C990.88,586.809,1009.253,631.775,1080.2,632.7Z" fill="#8ddbe0"></path>
  </g>
  <g>
    <rect x="107.068" y="597.555" width="975.13" height="42.261" rx="21.13" fill="#dee8f5"></rect>
    <g>
      <rect x="169.487" width="847.161" height="604.422" rx="31.122" fill="#dee8f5"></rect>
      <rect x="188.782" y="21.225" width="808.57" height="561.3" rx="13.76" fill="#c1d8ed"></rect>
    </g>
  </g>
  <g>
    <g>
      <rect x="213.89" y="51.005" width="755.493" height="505.375" fill="#fff"></rect>
      <rect x="213.89" y="51.005" width="755.493" height="41.63" fill="#dee8f5"></rect>
      <circle cx="946.01" cy="71.821" r="10.445" fill="#fff"></circle>
    </g>
    <rect x="263.949" y="129.498" width="159.572" height="10.476" fill="#c1d8ed"></rect>
    <rect x="263.949" y="154.259" width="322.998" height="10.476" fill="#dee8f5"></rect>
    <rect x="619.445" y="154.259" width="183.348" height="10.476" fill="#dee8f5"></rect>
    <rect x="263.949" y="203.781" width="256.581" height="10.476" fill="#dee8f5"></rect>
    <rect x="553.028" y="203.781" width="249.765" height="10.476" fill="#dee8f5"></rect>
    <rect x="263.949" y="179.02" width="396.881" height="10.476" fill="#dee8f5"></rect>
    <rect x="693.328" y="179.02" width="191.178" height="10.476" fill="#c1d8ed"></rect>
    <rect x="263.949" y="228.542" width="466.382" height="10.476" fill="#dee8f5"></rect>
    <rect x="762.829" y="228.542" width="154.054" height="10.476" fill="#c1d8ed"></rect>
    <rect x="263.949" y="417.557" width="159.572" height="10.476" fill="#dee8f5"></rect>
    <rect x="263.949" y="442.318" width="322.998" height="10.476" fill="#c1d8ed"></rect>
    <rect x="619.445" y="442.318" width="183.348" height="10.476" fill="#c1d8ed"></rect>
    <rect x="263.949" y="491.84" width="256.581" height="10.476" fill="#c1d8ed"></rect>
    <rect x="553.028" y="491.84" width="249.765" height="10.476" fill="#dee8f5"></rect>
    <rect x="263.949" y="467.079" width="396.881" height="10.476" fill="#dee8f5"></rect>
    <rect x="693.328" y="467.079" width="191.178" height="10.476" fill="#c1d8ed"></rect>
    <rect x="263.949" y="516.602" width="466.382" height="10.476" fill="#dee8f5"></rect>
    <rect x="762.829" y="516.602" width="154.054" height="10.476" fill="#c1d8ed"></rect>
    <rect x="263.949" y="287.588" width="182.191" height="10.476" fill="#dee8f5"></rect>
    <rect x="478.638" y="287.588" width="324.155" height="10.476" fill="#dee8f5"></rect>
    <rect x="263.949" y="337.11" width="256.581" height="10.476" fill="#dee8f5"></rect>
    <rect x="553.028" y="337.11" width="115.632" height="10.476" fill="#dee8f5"></rect>
    <rect x="263.949" y="312.349" width="466.382" height="10.476" fill="#c1d8ed"></rect>
    <rect x="762.829" y="312.349" width="121.677" height="10.476" fill="#c1d8ed"></rect>
    <rect x="263.949" y="361.871" width="320.686" height="10.476" fill="#c1d8ed"></rect>
    <rect x="617.133" y="361.871" width="154.054" height="10.476" fill="#c1d8ed"></rect>
    <rect x="263.949" y="386.779" width="182.191" height="10.476" fill="#dee8f5"></rect>
    <rect x="478.638" y="386.779" width="324.155" height="10.476" fill="#c1d8ed"></rect>
    <rect x="263.949" y="258.065" width="159.572" height="10.476" fill="#c1d8ed"></rect>
  </g>
  <g>
    <g>
      <rect x="485.233" y="139.974" width="4.681" height="35.442" fill="#14213D"></rect>
      <rect x="485.233" y="131.986" width="4.681" height="15.976" transform="translate(627.548 -347.6) rotate(90)" fill="#14213D"></rect>
      <rect x="485.233" y="166.539" width="4.681" height="15.976" transform="translate(662.101 -313.047) rotate(90)" fill="#14213D"></rect>
    </g>
    <g>
      <rect x="384.546" y="169.179" width="86.87" height="35.352" transform="translate(855.961 373.71) rotate(-180)" fill="#14213D"></rect>
      <g>
        <path d="M406.385,187.41l12.835-6.228v2.437l-10.182,4.739v.054l10.182,4.766v2.41l-12.835-6.228Z" fill="#fff" stroke="#fff" stroke-miterlimit="10" stroke-width="0.628"></path>
        <path d="M422.175,196.671l6.607-19.632h2.329L424.5,196.671Z" fill="#fff" stroke="#fff" stroke-miterlimit="10" stroke-width="0.628"></path>
        <path d="M446.656,189.414l-12.835,6.174v-2.41l10.344-4.766v-.054l-10.344-4.766v-2.41l12.835,6.174Z" fill="#fff" stroke="#fff" stroke-miterlimit="10" stroke-width="0.628"></path>
      </g>
    </g>
  </g>
  <g>
    <g>
      <rect x="414.978" y="374.688" width="4.681" height="35.442" fill="#E5E5E5"></rect>
      <rect x="414.978" y="366.699" width="4.681" height="15.976" transform="translate(792.006 -42.631) rotate(90)" fill="#E5E5E5"></rect>
      <rect x="414.978" y="401.253" width="4.681" height="15.976" transform="translate(826.559 -8.077) rotate(90)" fill="#E5E5E5"></rect>
    </g>
    <g>
      <rect x="314.958" y="403.104" width="86.87" height="35.352" transform="translate(716.786 841.56) rotate(-180)" fill="#E5E5E5"></rect>
      <g>
        <path d="M337.257,420.335l12.836-6.228v2.437l-10.182,4.739v.054l10.182,4.766v2.41l-12.836-6.228Z" fill="#fff" stroke="#fff" stroke-miterlimit="10" stroke-width="0.628"></path>
        <path d="M353.047,429.6l6.608-19.632h2.329L355.377,429.6Z" fill="#fff" stroke="#fff" stroke-miterlimit="10" stroke-width="0.628"></path>
        <path d="M377.529,422.339l-12.836,6.174V426.1l10.344-4.766v-.054l-10.344-4.766v-2.41l12.836,6.174Z" fill="#fff" stroke="#fff" stroke-miterlimit="10" stroke-width="0.628"></path>
      </g>
    </g>
  </g>
  <g>
    <g>
      <rect x="829.315" y="295.073" width="4.681" height="35.442" fill="#8ddbe0"></rect>
      <rect x="829.315" y="287.084" width="4.681" height="15.976" transform="translate(1126.728 -536.583) rotate(90)" fill="#8ddbe0"></rect>
      <rect x="829.315" y="321.638" width="4.681" height="15.976" transform="translate(1161.281 -502.03) rotate(90)" fill="#8ddbe0"></rect>
    </g>
    <g>
      <rect x="855.932" y="316.957" width="86.87" height="35.352" fill="#8ddbe0"></rect>
      <g>
        <path d="M879.611,333.666l12.836-6.229v2.437l-10.182,4.739v.055l10.182,4.765v2.411l-12.836-6.229Z" fill="#fff" stroke="#fff" stroke-miterlimit="10" stroke-width="0.628"></path>
        <path d="M895.4,342.927l6.608-19.633h2.329l-6.607,19.633Z" fill="#fff" stroke="#fff" stroke-miterlimit="10" stroke-width="0.628"></path>
        <path d="M919.883,335.669l-12.836,6.175v-2.411l10.344-4.765v-.055l-10.344-4.766v-2.41l12.836,6.174Z" fill="#fff" stroke="#fff" stroke-miterlimit="10" stroke-width="0.628"></path>
      </g>
    </g>
  </g>
</svg>
