<svg xmlns="http://www.w3.org/2000/svg" viewBox="0 0 848.181 895.667">
  <g id="Layer_8" data-name="Layer 8">
    <g>
      <path d="M558.33,685.651H758.9l30.4,22.769v-96.4a18.261,18.261,0,0,0-18.261-18.261H558.33a18.261,18.261,0,0,0-18.261,18.261v55.366A18.262,18.262,0,0,0,558.33,685.651Z" fill="#f4f4f4"></path>
      <path d="M767.839,619.35H561.527a.762.762,0,0,1,0-1.523H767.839a.762.762,0,0,1,0,1.523Z" fill="#fff"></path>
      <path d="M767.839,642.2H561.527a.762.762,0,0,1,0-1.523H767.839a.762.762,0,0,1,0,1.523Z" fill="#fff"></path>
      <path d="M767.839,665.05H645.31a.762.762,0,0,1,0-1.524H767.839a.762.762,0,0,1,0,1.524Z" fill="#fff"></path>
    </g>
    <g>
      <rect x="678.099" y="641.308" width="2.187" height="246.77" transform="translate(-79.156 78.423) rotate(-6.245)" fill="#292a2e"></rect>
      <rect x="665.209" y="813.35" width="131.311" height="2.187" transform="translate(-152.951 1459.696) rotate(-84.228)" fill="#292a2e"></rect>
      <rect x="661.1" y="863.867" width="97.989" height="31.8" fill="#292a2e"></rect>
      <rect x="661.1" y="863.867" width="97.989" height="31.8" fill="#fff" opacity="0.2"></rect>
      <ellipse cx="764.785" cy="765.156" rx="55.903" ry="66.797" transform="translate(-306.445 916.24) rotate(-53.042)" fill="#FFEB3B"></ellipse>
      <ellipse cx="764.785" cy="765.156" rx="55.903" ry="66.797" transform="translate(-306.445 916.24) rotate(-53.042)" fill="#fff" opacity="0.2"></ellipse>
      <path d="M818.158,805.317a45.134,45.134,0,0,1-4.071,4.717c-20.434,13.055-50.594,11-74.522-7.007-29.476-22.175-38.322-60.155-19.758-84.826a47.371,47.371,0,0,1,4.061-4.717c20.444-13.065,50.595-11,74.532,7C827.875,742.666,836.722,780.646,818.158,805.317Z" fill="#fff" opacity="0.5"></path>
      <ellipse cx="646.264" cy="666.172" rx="66.797" ry="57.522" transform="translate(-272.378 533.735) rotate(-37.665)" fill="#FFEB3B"></ellipse>
      <path d="M672.159,705.244c-22.616,17.468-51.358,20.13-72.193,8.759a50.448,50.448,0,0,1-6.576-7.017c-19.416-25.141-11.479-63.806,17.722-86.343,22.616-17.459,51.358-20.13,72.183-8.768a49.886,49.886,0,0,1,6.586,7.026C709.3,644.042,701.36,682.707,672.159,705.244Z" fill="#fff" opacity="0.2"></path>
    </g>
    <g>
      <path d="M829.92,342.659H571.913l-32.691,24.485V237.536a18.262,18.262,0,0,1,18.262-18.261H829.92a18.261,18.261,0,0,1,18.261,18.261V324.4A18.262,18.262,0,0,1,829.92,342.659Z" fill="#f4f4f4"></path>
      <path d="M825.106,246.734H562.3a.762.762,0,1,1,0-1.523H825.106a.762.762,0,0,1,0,1.523Z" fill="#fff"></path>
      <path d="M825.106,271.305H562.3a.762.762,0,1,1,0-1.523H825.106a.762.762,0,0,1,0,1.523Z" fill="#fff"></path>
      <path d="M825.106,295.877H562.3a.762.762,0,1,1,0-1.524H825.106a.762.762,0,0,1,0,1.524Z" fill="#fff"></path>
      <path d="M779.408,320.448H562.3a.762.762,0,1,1,0-1.523h217.11a.762.762,0,1,1,0,1.523Z" fill="#fff"></path>
    </g>
    <g>
      <path d="M31.34,596.375H231.907l30.4,22.77v-96.4a18.262,18.262,0,0,0-18.261-18.262H31.34a18.262,18.262,0,0,0-18.262,18.262v55.366A18.262,18.262,0,0,0,31.34,596.375Z" fill="#f4f4f4"></path>
      <path d="M240.848,530.075H34.537a.762.762,0,0,1,0-1.524H240.848a.762.762,0,0,1,0,1.524Z" fill="#fff"></path>
      <path d="M240.848,552.924H34.537a.762.762,0,0,1,0-1.523H240.848a.762.762,0,1,1,0,1.523Z" fill="#fff"></path>
      <path d="M240.848,575.774H118.32a.762.762,0,1,1,0-1.523H240.848a.762.762,0,1,1,0,1.523Z" fill="#fff"></path>
    </g>
    <g>
      <path d="M360.754,151.361H40.1L0,181.4V18.261A18.261,18.261,0,0,1,18.261,0H360.754a18.261,18.261,0,0,1,18.261,18.261V133.1A18.262,18.262,0,0,1,360.754,151.361Z" fill="#f4f4f4"></path>
      <path d="M350.707,33.513H28.308a.762.762,0,0,1,0-1.524h322.4a.762.762,0,1,1,0,1.524Z" fill="#fff"></path>
      <path d="M350.707,63.655H28.308a.762.762,0,1,1,0-1.523h322.4a.762.762,0,1,1,0,1.523Z" fill="#fff"></path>
      <path d="M350.707,93.8H28.308a.762.762,0,1,1,0-1.523h322.4a.762.762,0,1,1,0,1.523Z" fill="#fff"></path>
      <path d="M189.945,123.941H28.308a.762.762,0,1,1,0-1.523H189.945a.762.762,0,0,1,0,1.523Z" fill="#fff"></path>
    </g>
    <g>
      <g>
        <path d="M158.65,120.725s-11.127-9.632-12.667-30.19c-1.192-15.918,12.667-4.729,12.667-4.729s-.746-11.469,7.458-9.786,12.045,13.936,12.045,13.936" fill="#0c0c0c"></path>
        <path d="M208.832,80.219s40.8,7.16,22.215,61.855H219.979" fill="#0c0c0c"></path>
        <g>
          <path id="sk" d="M162.879,198.936c.181-.023,2.191,33.322,40.928,30.415,26.818-2.009,36.38-30.462,37-30.462-2.892-.614-6.465-1.547-7.885-1.867a15.645,15.645,0,0,1-11.969-13.157c-.784-4.726.546-28.907.137-33.689l-41.165,9.188c.575,10.1,4.6,33.514-9.509,37.658C168.063,197.707,165.534,198.338,162.879,198.936Z" fill="#E98862"></path>
          <path id="sh" d="M179.343,187.453a29.788,29.788,0,0,0,1.238-6.389,68.126,68.126,0,0,0-.269-14.86,45.13,45.13,0,0,0,22.751-9.968c.765,2.823,4.968,15.158,3.805,17.841C204.667,179.149,194.329,187.453,179.343,187.453Z" fill="#0c0c0c" opacity="1"></path>
          <path d="M186.649,179.4c16.3-.368,36.381-9.306,38.135-31.283l1.582-19.83C228.12,106.308,218,87.571,197.307,85.92h0c-20.692-1.651-37.58,14.93-39.334,36.907l-.7,8.779a66.6,66.6,0,0,0,.054,9.062c.533,7.975,1.374,20.1,6.194,28.592C168.071,177.275,176.235,179.631,186.649,179.4Z" fill="#E98862"></path>
          <path d="M180.478,158.788a21.418,21.418,0,0,1-9.605-2.511.524.524,0,0,1,.475-.934c6.389,3.246,12.388,3.236,17.35-.03a3.374,3.374,0,0,1,.31-.191.524.524,0,0,1,.46.942c-.04.022-.1.065-.194.125A15.7,15.7,0,0,1,180.478,158.788Z" fill="#0c0c0c" opacity="1"></path>
          <path d="M180.3,163.753a10.605,10.605,0,0,1-1.809-.164.524.524,0,1,1,.18-1.032c3.594.627,5.432-.916,5.509-.982a.524.524,0,0,1,.691.788A7.1,7.1,0,0,1,180.3,163.753Z" fill="#0c0c0c" opacity="1"></path>
          <circle cx="164.111" cy="130.524" r="2.556" fill="#0c0c0c"></circle>
          <circle cx="187.806" cy="130.685" r="2.556" fill="#0c0c0c"></circle>
          <path d="M222.965,154.707c6.288.5,11.922-5.819,12.424-12.107s-4.319-10.163-10.607-10.665l-3.577,3.955-3.647,18.385Z" fill="#E98862"></path>
        </g>
        <g>
          <path d="M217.381,144.174s-.04-31.266-9.348-33.82c-6.2-1.7-22.04,6.193-35.978,2.554-6.1-1.592-12.063-.456-12.855,2.422-.314,1.139-3.049-15.719,7.467-27.67,8.373-9.515,33.765-10.659,45.01-6.6,31.137,11.235,14.311,52.334,14.311,52.334l-2.135,10.635Z" fill="#0c0c0c"></path>
          <g opacity="1">
            <path d="M177.166,151.188l-.04,0c-2.027-.156-5.409-.644-5.294-2.161.1-1.256,4.583-14.552,5.094-16.064a.518.518,0,0,1,.981.332c-1.991,5.888-4.976,14.958-5.043,15.812.172.373,2.242.887,4.34,1.049a.518.518,0,0,1-.038,1.034Z" fill="#0c0c0c"></path>
          </g>
          <path d="M171.3,122.675a10.079,10.079,0,0,0-5.175-.673,8.9,8.9,0,0,0-2.585.732,10.971,10.971,0,0,0-2.341,1.429l-.056.042a.9.9,0,0,1-1.128-1.389,12.916,12.916,0,0,1,2.634-1.891,11.045,11.045,0,0,1,3.089-1.13,12.114,12.114,0,0,1,3.295-.245,11.964,11.964,0,0,1,3.334.658,1.346,1.346,0,0,1-.894,2.539c-.033-.011-.064-.024-.095-.037Z" fill="#0c0c0c"></path>
          <path d="M186.3,120.421a12.491,12.491,0,0,1,6.629-.411,11.045,11.045,0,0,1,3.089,1.13,12.875,12.875,0,0,1,2.633,1.892.895.895,0,0,1-1.125,1.39l-.059-.044a10.964,10.964,0,0,0-2.34-1.429,8.914,8.914,0,0,0-2.586-.733,9.732,9.732,0,0,0-2.679,0,9.63,9.63,0,0,0-2.5.671l-.075.033a1.346,1.346,0,1,1-1.09-2.462C186.237,120.446,186.271,120.433,186.3,120.421Z" fill="#0c0c0c"></path>
        </g>
        <ellipse cx="180.173" cy="86.938" rx="12.712" ry="8.636" transform="translate(47.894 237.014) rotate(-74.365)" fill="#0c0c0c"></ellipse>
      </g>
      <g>
        <path d="M228.443,762.261s26.6,14.725,21.258,37.716,14.107,23.416,14.107,23.416l25.546-86.335L246.22,724.294Z" fill="#FFEB3B"></path>
        <path d="M126.322,393.77s-49.414,195.9-35.82,224.9c13.364,28.507,151.755,155.172,151.755,155.172l24.931-46.333L161.217,599.571s30.111-69.3,47.47-122.584c10.465-32.12,21.82-60.929,23.492-94.669h0Z" fill="#262626"></path>
        <polygon points="199.202 644.455 184.936 628.208 188.649 723.577 204.55 738.691 199.202 644.455" fill="#0a0a0a"></polygon>
        <path d="M197.127,510.744s2.6-53.238-2.351-43.025C185.844,486.157,183.51,545.6,183.51,545.6Z" fill="#0a0a0a"></path>
        <path d="M215.792,847.832S210.937,873,187.376,874.4s-18.451,20.171-18.451,20.171H258.96V849.587Z" fill="#FFEB3B"></path>
        <path d="M287.066,388.8s.4-1.854.636,8.988c1.395,63.99-24.768,466.1-24.768,466.1l-59.163-.5L187.932,386.2Z" fill="#262626"></path>
      </g>
      <path d="M114.75,272.348c1.22,14.334,10.156,103.766,11.329,121.422H287.758c.913-15.924,2.014-85.558,5.478-116.7,3.306-29.716,9.792-45.669,5.038-54.454-7.77-14.359-29-21.58-43.476-23.54-8.84-1.2-22.136-2.055-22.136-2.055s-1.126,22.773-27.969,24.041c-36.54,1.724-34.1-24.041-34.281-24.041-13.267,0-38.375,3.174-48.011,9.726C100.735,221.482,112.16,241.97,114.75,272.348Z" fill="#FFEB3B"></path>
      <path d="M124.327,216.479l-37.649,38.95L52.392,241.572l-36.34,89.914-.225.537a28.472,28.472,0,0,0,47.606,29.634l98.7-109.959Z" fill="#FFEB3B"></path>
      <g>
        <path d="M157.476,204.623a4.054,4.054,0,0,0-5.772-1.147,4.209,4.209,0,0,0-.964,5.664l1.872,2.721L132.032,198.9a3.823,3.823,0,1,0-4.075,6.47l8.57,5.4a.393.393,0,0,0-.059.063,4.055,4.055,0,0,0-5.164,2.226,4.152,4.152,0,0,0,1.593,5.006l1.141.773a.382.382,0,0,0,0,.139,4.05,4.05,0,0,0-4.922,1.688,4.207,4.207,0,0,0,1.39,5.574l2.813,1.906a.375.375,0,0,0-.307.18.359.359,0,0,0-.046.2,4.045,4.045,0,0,0-4.123,2.452,4.152,4.152,0,0,0,1.593,5.006l15.231,10.358a20.414,20.414,0,0,0,22.822.051l10.872-7.294Z" fill="#E98862"></path>
        <g opacity="0.2">
          <path d="M145.077,216.577a.387.387,0,0,1-.124-.049l-8.386-5.146a.381.381,0,0,1,.4-.649l8.385,5.146a.381.381,0,0,1-.274.7Z" fill="#0c0c0c"></path>
          <path d="M140.9,223.369a.385.385,0,0,1-.127-.051l-6.559-4.1a.381.381,0,0,1,.4-.646l6.559,4.1a.381.381,0,0,1-.277.7Z" fill="#0c0c0c"></path>
          <path d="M136.412,230.751a.377.377,0,0,1-.119-.046l-3.143-1.862a.381.381,0,1,1,.388-.655l3.142,1.862a.381.381,0,0,1-.268.7Z" fill="#0c0c0c"></path>
        </g>
      </g>
      <g>
        <path d="M90.459,255.378h31.958a5.579,5.579,0,0,0,5.472-6.668l-12.644-63.541a5.58,5.58,0,0,0-5.519-4.49l-31.144.262a5.58,5.58,0,0,0-5.437,6.6l11.83,63.278A5.578,5.578,0,0,0,90.459,255.378Z" fill="#262626"></path>
        <path d="M115.075,219.992a4.118,4.118,0,0,0-4.612-1.661.316.316,0,0,0-.437-.287l2.481-2.475a4.285,4.285,0,0,0,.326-5.841,4.125,4.125,0,0,0-5.251-.747c0-.041-.032-.075-.045-.115l1.022-1.018a4.23,4.23,0,0,0,.637-5.312,4.132,4.132,0,0,0-6.359-.642l-2.357,2.351c-.01-.014-.006-.034-.018-.047s-.043-.014-.061-.027a4.125,4.125,0,0,0-.561-5.116c-1.593-1.822-4.435-.931-5.959.589L79.5,213.728l.439-.657,2.035-5.189a4.285,4.285,0,0,0-2.045-5.481,4.129,4.129,0,0,0-5.555,2.249l-11.9,29.438s25.01,18.1,31.008,12.117l20.958-20.9A4.228,4.228,0,0,0,115.075,219.992Z" fill="#E98862"></path>
        <g opacity="0.2">
          <path d="M86.679,217.52a.381.381,0,0,0,.532,0l13.241-12.786a.381.381,0,1,0-.529-.548L86.682,216.975a.381.381,0,0,0-.009.539Z" fill="#0c0c0c"></path>
          <path d="M92.157,223.515a.381.381,0,0,0,.532,0l14.777-14.269a.381.381,0,0,0,.01-.539.394.394,0,0,0-.539-.009L92.16,222.97a.382.382,0,0,0-.009.539Z" fill="#0c0c0c"></path>
          <path d="M98.053,230.043a.381.381,0,0,0,.532,0l11.788-11.383a.381.381,0,1,0-.53-.547L98.056,229.5a.382.382,0,0,0-.01.539Z" fill="#0c0c0c"></path>
        </g>
      </g>
      <polygon points="58.393 226.251 104.214 244.133 69.357 344.772 15.71 330.764 58.393 226.251" fill="#FFEB3B"></polygon>
      <path d="M213.236,362.605a28.563,28.563,0,0,1-24.83-14.447l-51.788-96.51,43.131-27.567,32.961,55.81,35.627-61.559L294.6,252.274,238.317,347.71A28.563,28.563,0,0,1,213.494,362.6Z" fill="#FFEB3B"></path>
      <path d="M213.236,362.985a29,29,0,0,1-25.161-14.639l-51.793-96.519a.38.38,0,0,1,.131-.5l43.131-27.567a.372.372,0,0,1,.294-.049.381.381,0,0,1,.239.176l32.631,55.253,24.439-41.789a.381.381,0,0,1,.658.385l-24.767,42.348a.38.38,0,0,1-.328.188h0a.38.38,0,0,1-.328-.187l-32.76-55.471-42.5,27.164,51.622,96.2a28.231,28.231,0,0,0,24.494,14.246h.255a28.2,28.2,0,0,0,24.491-14.695l50.405-85.937a.381.381,0,0,1,.658.385l-50.4,85.926A28.957,28.957,0,0,1,213.5,362.984Z" fill="#0c0c0c"></path>
      <path d="M224.933,301.9a.381.381,0,0,1-.331-.194l-12.224-21.631a.381.381,0,0,1,.663-.375l12.224,21.631a.382.382,0,0,1-.144.52A.388.388,0,0,1,224.933,301.9Z" fill="#0c0c0c"></path>
      <path d="M79.079,319.671a.378.378,0,0,1-.36-.5l25.93-74.866a.381.381,0,1,1,.72.25l-25.93,74.865A.381.381,0,0,1,79.079,319.671Z" fill="#0c0c0c"></path>
      <path d="M116.625,302.9a.381.381,0,0,1-.379-.353l-1.5-20.533a.381.381,0,0,1,.352-.407.388.388,0,0,1,.408.352l1.5,20.532a.382.382,0,0,1-.353.408Z" fill="#0c0c0c"></path>
    </g>
    <path d="M826.493,895.636H63.627a.762.762,0,1,1,0-1.523H826.493a.762.762,0,1,1,0,1.523Z" fill="#292a2e"></path>
    <g>
      <g>
        <rect x="288.371" y="61.871" width="381.125" height="777.264" rx="43.928" fill="#292a2e"></rect>
        <rect x="302.274" y="75.589" width="353.321" height="748.805" rx="30.164" fill="#fff"></rect>
        <path d="M406.572,69.917H551.3a0,0,0,0,1,0,0V84.892A16.194,16.194,0,0,1,535.1,101.086H422.766a16.194,16.194,0,0,1-16.194-16.194V69.917A0,0,0,0,1,406.572,69.917Z" fill="#292a2e"></path>
      </g>
      <g>
        <path d="M568.071,243.1H347.161l-28.052,21.011V153.378a16.155,16.155,0,0,1,16.156-16.155H568.071a16.155,16.155,0,0,1,16.156,16.155v73.565A16.155,16.155,0,0,1,568.071,243.1Z" fill="#FFEB3B"></path>
        <polygon points="584.227 243.098 347.161 243.098 319.109 264.109 319.109 137.223 584.227 137.223 584.227 243.098" fill="#fff" opacity="0.49"></polygon>
        <path d="M564.426,160.834H338.91a.7.7,0,0,1,0-1.405H564.426a.7.7,0,1,1,0,1.405Z" fill="#fff"></path>
        <path d="M564.426,181.919H338.91a.7.7,0,0,1,0-1.405H564.426a.7.7,0,1,1,0,1.405Z" fill="#fff"></path>
        <path d="M564.426,203H338.91a.7.7,0,0,1,0-1.406H564.426a.7.7,0,1,1,0,1.406Z" fill="#fff"></path>
        <path d="M451.974,224.089H338.91a.7.7,0,0,1,0-1.406H451.974a.7.7,0,1,1,0,1.406Z" fill="#fff"></path>
      </g>
      <g>
        <path d="M422.018,694.09H607.787L635.839,715.1V625.455A16.156,16.156,0,0,0,619.683,609.3H422.018a16.156,16.156,0,0,0-16.156,16.156v52.479A16.156,16.156,0,0,0,422.018,694.09Z" fill="#FFEB3B"></path>
        <path d="M422.018,694.09H607.787L635.839,715.1V625.455A16.156,16.156,0,0,0,619.683,609.3H422.018a16.156,16.156,0,0,0-16.156,16.156v52.479A16.156,16.156,0,0,0,422.018,694.09Z" fill="#fff" opacity="0.11"></path>
        <path d="M616.038,632.911H425.663a.7.7,0,0,1,0-1.4H616.038a.7.7,0,1,1,0,1.4Z" fill="#fff"></path>
        <path d="M616.038,654H425.663a.7.7,0,0,1,0-1.406H616.038a.7.7,0,0,1,0,1.406Z" fill="#fff"></path>
        <path d="M616.038,675.081H502.974a.7.7,0,0,1,0-1.406H616.038a.7.7,0,1,1,0,1.406Z" fill="#fff"></path>
      </g>
      <g>
        <path d="M422.018,404.966H607.787l28.052,21.011V316.331a16.156,16.156,0,0,0-16.156-16.156H422.018a16.156,16.156,0,0,0-16.156,16.156V388.81A16.156,16.156,0,0,0,422.018,404.966Z" fill="#FFEB3B"></path>
        <path d="M422.018,404.966H607.787l28.052,21.011V316.331a16.156,16.156,0,0,0-16.156-16.156H422.018a16.156,16.156,0,0,0-16.156,16.156V388.81A16.156,16.156,0,0,0,422.018,404.966Z" fill="#fff" opacity="0.11"></path>
        <path d="M616.038,343.787H425.663a.7.7,0,0,1,0-1.4H616.038a.7.7,0,1,1,0,1.4Z" fill="#fff"></path>
        <path d="M616.038,323.787H425.663a.7.7,0,0,1,0-1.4H616.038a.7.7,0,1,1,0,1.4Z" fill="#fff"></path>
        <path d="M616.038,364.872H425.663a.7.7,0,0,1,0-1.406H616.038a.7.7,0,1,1,0,1.406Z" fill="#fff"></path>
        <path d="M616.038,385.957H502.974a.7.7,0,0,1,0-1.406H616.038a.7.7,0,1,1,0,1.406Z" fill="#fff"></path>
      </g>
      <g>
        <path d="M568.071,552.645H347.161l-28.052,21.011V481.9a16.156,16.156,0,0,1,16.156-16.156H568.071A16.156,16.156,0,0,1,584.227,481.9V536.49A16.155,16.155,0,0,1,568.071,552.645Z" fill="#FFEB3B"></path>
        <polygon points="584.227 552.645 347.161 552.645 319.109 573.656 319.109 465.746 584.227 465.746 584.227 552.645" fill="#fff" opacity="0.49"></polygon>
        <path d="M564.426,489.358H338.91a.7.7,0,0,1,0-1.406H564.426a.7.7,0,1,1,0,1.406Z" fill="#fff"></path>
        <path d="M564.426,510.443H338.91a.7.7,0,0,1,0-1.406H564.426a.7.7,0,0,1,0,1.406Z" fill="#fff"></path>
        <path d="M451.974,531.933H338.91a.7.7,0,0,1,0-1.4H451.974a.7.7,0,1,1,0,1.4Z" fill="#fff"></path>
      </g>
      <path d="M626.447,792.168H329.91A15.612,15.612,0,0,1,314.3,776.556V760.905a15.612,15.612,0,0,1,15.612-15.612H626.447a15.612,15.612,0,0,1,15.612,15.612v15.651A15.612,15.612,0,0,1,626.447,792.168ZM329.91,746.7A14.207,14.207,0,0,0,315.7,760.905v15.651a14.207,14.207,0,0,0,14.207,14.206H626.447a14.206,14.206,0,0,0,14.206-14.206V760.905A14.206,14.206,0,0,0,626.447,746.7Z" fill="#FFEB3B"></path>
      <polygon points="601.279 758.635 606.727 767.732 627.822 758.57 608.807 771.206 615.301 782.049 631.801 756.679 601.279 758.635" fill="#FFEB3B"></polygon>
    </g>
  </g>
</svg>