<svg id="Layer_1" data-name="Layer 1" xmlns="http://www.w3.org/2000/svg" viewBox="0 0 816.268 599.479">
  <path d="M759.954,570.135c32.08,0,57.674-32.25,56.258-70.878-1.853-50.506-23.28-121.822-107.738-193.091C605.481,219.255,657.55-16.365,438.717.9S268.341,184.738,145.943,285.77C34.826,377.49.006,432.759,0,502.368c0,37.445,25.244,67.767,56.311,67.767Z" fill="#f3f5fd"></path>
  <g>
    <rect x="129.91" y="13.753" width="544.251" height="394.142" fill="#dee8f5"></rect>
    <rect x="129.91" y="13.753" width="544.251" height="32.467" fill="#c1d8ed"></rect>
    <circle cx="655.932" cy="29.988" r="8.146" fill="#fff"></circle>
  </g>
  <path d="M380.769,198.967V168.555a2.163,2.163,0,0,0-2.162-2.163H356.276a2.168,2.168,0,0,1-2.105-1.687,82.817,82.817,0,0,0-10.291-24.83,2.169,2.169,0,0,1,.3-2.682L359.969,121.4a2.161,2.161,0,0,0,0-3.058L338.46,96.831a2.164,2.164,0,0,0-3.059,0l-15.794,15.794a2.167,2.167,0,0,1-2.682.3A82.8,82.8,0,0,0,292.1,102.629a2.167,2.167,0,0,1-1.688-2.105V78.194a2.163,2.163,0,0,0-2.163-2.163H257.834a2.163,2.163,0,0,0-2.163,2.163v22.33a2.167,2.167,0,0,1-1.688,2.105,82.834,82.834,0,0,0-24.828,10.292,2.167,2.167,0,0,1-2.683-.3l-15.794-15.8a2.163,2.163,0,0,0-3.059,0l-21.5,21.509a2.161,2.161,0,0,0,0,3.058l15.793,15.793a2.169,2.169,0,0,1,.295,2.682,82.847,82.847,0,0,0-10.29,24.831,2.167,2.167,0,0,1-2.1,1.687h-22.33a2.164,2.164,0,0,0-2.163,2.163v30.412a2.163,2.163,0,0,0,2.163,2.163h22.33a2.166,2.166,0,0,1,2.1,1.688,82.812,82.812,0,0,0,10.291,24.829,2.168,2.168,0,0,1-.295,2.682l-15.794,15.794a2.163,2.163,0,0,0,0,3.058l21.5,21.5a2.163,2.163,0,0,0,3.059,0l15.793-15.793a2.167,2.167,0,0,1,2.682-.3,82.82,82.82,0,0,0,24.83,10.292,2.167,2.167,0,0,1,1.688,2.1v22.33a2.162,2.162,0,0,0,2.163,2.163h30.411a2.162,2.162,0,0,0,2.163-2.163V266.99a2.167,2.167,0,0,1,1.688-2.105,82.834,82.834,0,0,0,24.831-10.291,2.167,2.167,0,0,1,2.682.3L335.4,270.683a2.164,2.164,0,0,0,3.059,0l21.509-21.5a2.163,2.163,0,0,0,0-3.059l-15.794-15.794a2.167,2.167,0,0,1-.3-2.682,82.777,82.777,0,0,0,10.292-24.829,2.167,2.167,0,0,1,2.105-1.687h22.331A2.162,2.162,0,0,0,380.769,198.967ZM274.606,231.978a48.243,48.243,0,1,1,46.65-46.628A48.236,48.236,0,0,1,274.606,231.978Z" fill="#fff"></path>
  <path d="M506.539,302.45l-4.132-18.563a1.352,1.352,0,0,0-1.614-1.026l-13.63,3.034a1.356,1.356,0,0,1-1.514-.744,51.805,51.805,0,0,0-9.656-13.758,1.354,1.354,0,0,1-.184-1.677l7.494-11.787a1.353,1.353,0,0,0-.415-1.867l-16.053-10.207a1.354,1.354,0,0,0-1.867.416l-7.494,11.787a1.355,1.355,0,0,1-1.6.544,51.822,51.822,0,0,0-16.554-2.908,1.354,1.354,0,0,1-1.316-1.055l-3.035-13.631a1.352,1.352,0,0,0-1.614-1.026L414.8,244.114a1.354,1.354,0,0,0-1.027,1.614l3.035,13.631a1.356,1.356,0,0,1-.744,1.514,51.784,51.784,0,0,0-13.757,9.656,1.355,1.355,0,0,1-1.678.184l-11.787-7.5a1.354,1.354,0,0,0-1.867.416l-10.2,16.051a1.354,1.354,0,0,0,.416,1.867l11.786,7.494a1.355,1.355,0,0,1,.544,1.6,51.817,51.817,0,0,0-2.907,16.555,1.354,1.354,0,0,1-1.055,1.316l-13.631,3.034a1.352,1.352,0,0,0-1.026,1.614l4.133,18.564a1.352,1.352,0,0,0,1.614,1.026l13.63-3.034a1.354,1.354,0,0,1,1.514.744,51.782,51.782,0,0,0,9.656,13.758,1.356,1.356,0,0,1,.184,1.677l-7.5,11.786a1.353,1.353,0,0,0,.416,1.867l16.046,10.2a1.352,1.352,0,0,0,1.867-.416l7.494-11.786a1.357,1.357,0,0,1,1.6-.545,51.763,51.763,0,0,0,16.555,2.908,1.356,1.356,0,0,1,1.316,1.056l3.034,13.63a1.352,1.352,0,0,0,1.614,1.026l18.563-4.132a1.352,1.352,0,0,0,1.027-1.614l-3.034-13.63a1.353,1.353,0,0,1,.744-1.514,51.805,51.805,0,0,0,13.758-9.656,1.357,1.357,0,0,1,1.678-.184l11.785,7.494a1.352,1.352,0,0,0,1.867-.415l10.208-16.047a1.352,1.352,0,0,0-.416-1.867l-11.787-7.5a1.357,1.357,0,0,1-.545-1.6,51.8,51.8,0,0,0,2.909-16.554,1.355,1.355,0,0,1,1.056-1.316l13.63-3.034A1.353,1.353,0,0,0,506.539,302.45Zm-60.316,34.576a30.168,30.168,0,1,1,22.139-34.8A30.165,30.165,0,0,1,446.223,337.026Z" fill="#c1d8ed"></path>
  <g>
    <g>
      <path d="M137.643,420.2s7.732-4.1,6.006-25.157l15.976-2.962s-1.795,18.879,6.287,24.872Z" fill="#E98862"></path>
      <path d="M162.639,413.01l-13.273-10.154,10.425-.108A28.741,28.741,0,0,0,162.639,413.01Z" opacity="0.15"></path>
      <path d="M134.584,386.881c1.106,6.389,4.592,12.439,10.227,14.5,6.69,2.45,11.645,2.616,19.358,2.616,10.525,0,10.177-10.977,10.473-22.039.3-11.1-.587-23.018-4.747-26.888-8.3-7.724-32.673-2.833-35.637,10.087C132.725,371.841,133.531,380.8,134.584,386.881Z" fill="#E98862"></path>
      <path d="M180.283,361.492s4.31-.962,3.13-5.26c-.782-2.851-4.434-2.218-4.434-2.218s3.458-.633,3.458-3.652c0-1.9-1.462-5.125-5.871-3.283-5.174,2.161-11.075,1.884-15.561,1.129a51.846,51.846,0,0,0-7.707-1.088l-.014,0v0a29.7,29.7,0,0,0-8.814,1.179c-8.02,2.4-20.157,9.591-17.577,25.893,2.88,18.195,11.418,25.153,15.174,27.385a1.713,1.713,0,0,0,2.518-.957c1.065-3.41,2.9-11.99,2.387-29.682,24.652-1.209,31.745-1.576,31.745-1.576s5.8.217,5.8-4.022S180.283,361.492,180.283,361.492Z" fill="#0f1011"></path>
      <g>
        <circle cx="159.602" cy="380.512" r="1.449" fill="#0f1011"></circle>
        <circle cx="171.034" cy="379.574" r="1.449" fill="#0f1011"></circle>
        <line x1="169.706" y1="375.758" x2="173.545" y2="375.806" fill="none" stroke="#0f1011" stroke-linecap="round" stroke-miterlimit="10" stroke-width="1.362"></line>
        <line x1="156.476" y1="377.205" x2="160.26" y2="376.294" fill="none" stroke="#0f1011" stroke-linecap="round" stroke-miterlimit="10" stroke-width="1.362"></line>
      </g>
      <path d="M152.065,384.057a6.143,6.143,0,0,1-12.245,1,6.042,6.042,0,0,1,5.621-6.624C149.819,378.294,151.787,380.676,152.065,384.057Z" fill="#E98862"></path>
      <g opacity="0.15">
        <path d="M166.034,388.549a.5.5,0,0,1-.147-.978l2.948-.905-2.062-4.591a.5.5,0,0,1,.912-.41l2.294,5.107a.5.5,0,0,1-.309.683l-3.489,1.072A.5.5,0,0,1,166.034,388.549Z"></path>
      </g>
      <path d="M160.273,391.923s5.348.564,9.1-.746c0,0-.029,3.523-4.262,3.87S160.273,391.923,160.273,391.923Z" fill="#f8fcff"></path>
    </g>
    <g>
      <g>
        <path d="M200.439,574.855c1.9-.319,23.335-3.98,23.335-3.98l-3.535-20.7s-21.377,3.652-23.27,3.969Z" fill="#E98862"></path>
        <path d="M236,594.711a4.108,4.108,0,0,1-3.693,4.752h0a4.106,4.106,0,0,1-3.919-2.039l-12.112-22.755a3.461,3.461,0,0,1-.16-2.885,19.1,19.1,0,0,0,1.46-11.872,17.021,17.021,0,0,0-4.635-8.167,1.546,1.546,0,0,1,.768-2.691l11.788-1.975a2.678,2.678,0,0,1,3.085,2.21Z" fill="#c1d8ed"></path>
      </g>
      <path d="M134.083,518.868c-8.895.37-17.955.63-27.015.854l-13.616.3-13.6.245-1.355.024a22.2,22.2,0,0,0-2.276,44.232l134.4,16.32,5.476-39.721-133.8-20.655-3.632,44.257,13.809.892,13.8.835c9.215.532,18.433,1.03,27.817,1.416Z" fill="#14213D"></path>
      <g>
        <path d="M100.18,566.157c18.554-2.7,20.4-3.2,21.012-3.359l-5.457-20.279c.062-.016.142-.038.239-.059-1.521.332-10.951,1.772-18.816,2.916Z" fill="#E98862"></path>
        <path d="M77,584.208a4.107,4.107,0,0,0,2.724,5.366h0a4.109,4.109,0,0,0,4.235-1.258l16.211-20.042a3.46,3.46,0,0,0,.7-2.8,19.109,19.109,0,0,1,.82-11.933,17.028,17.028,0,0,1,6.1-7.139,1.547,1.547,0,0,0-.243-2.788l-11.2-4.176a2.678,2.678,0,0,0-3.448,1.584Z" fill="#c1d8ed"></path>
      </g>
      <path d="M163.925,564.267c5.632-.479,11.261-.825,16.89-1.149,5.629-.3,11.257-.6,16.884-.8l8.439-.325,8.439-.243c5.626-.187,11.25-.265,16.874-.372L229.5,520.967c-10.529,1.472-21.072,2.825-31.612,4.211s-21.091,2.663-31.64,3.96L150.416,531l-15.844,1.776c-10.569,1.136-21.138,2.264-31.731,3.194l4.649,39.83c10.522-1.534,21.066-2.87,31.612-4.2l15.828-1.92,15.838-1.83c10.565-1.166,21.128-2.351,31.7-3.432s21.147-2.189,31.732-3.181a20.231,20.231,0,0,0-.7-40.338l-1.252-.071c-5.616-.329-11.233-.629-16.847-1.038l-8.422-.577-8.421-.658c-5.614-.423-11.226-.948-16.838-1.468-5.612-.546-11.223-1.115-16.832-1.816Z" fill="#14213D"></path>
      <polygon points="113.648 512.733 110.688 562.438 196.178 561.434 189.725 517.428 113.648 512.733" fill="#14213D"></polygon>
    </g>
    <g>
      <path d="M86.384,510.843a10.9,10.9,0,0,0,8.092,4.854l13.68,1.272c.006.166.007.331.018.5,1.1,16.94,83.43,12.94,87.62,3.31,1.538-3.533,1.413-6.589.636-10.52l15.78,2.249A10.5,10.5,0,0,0,223.4,498.1l-28.884-69.892c-1.755-7.972-7.3-13.269-21.058-13.862-.63-.03-1.64-.05-2.94-.07-.26,5.5-34.32,5.48-35.04-.13-9.62.01-17.51,2.96-22.08,7.53a20.063,20.063,0,0,0-5.628,9.574L85.11,501.5A10.9,10.9,0,0,0,86.384,510.843Zm106-22.375c-.35-3.5-.589-7.463-.647-11.982l5.221,12.634Zm-75.495-14.482c.048.756.081,1.515.081,2.28a64.112,64.112,0,0,1-2.946,19.351l-3.993-.371Z" fill="#E5E5E5"></path>
      <g>
        <g>
          <path d="M142.088,447.754l-3.534,52.679a4.545,4.545,0,0,0,4.534,4.849h73.577a4.545,4.545,0,0,0,4.521-4.077l5.445-52.679a4.545,4.545,0,0,0-4.521-5.012H146.622A4.544,4.544,0,0,0,142.088,447.754Z" fill="#9ebcea"></path>
          <rect x="130.042" y="498.938" width="83.65" height="6.344" rx="3.172" fill="#9ebcea"></rect>
        </g>
        <circle cx="184.541" cy="474.398" r="7" fill="#fff"></circle>
      </g>
      <path d="M174.456,511.972c-4.49,2.77-11.44,4.08-17.5,4.56l-.34-11.04c2.85-.08,7.23-.38,11.52-.21,1.938-1.58,3.054-2.05,5.044-4.04,2.118-2.118,7.676-3.39,8.726,0S178.4,509.532,174.456,511.972Z" fill="#E98862"></path>
      <path d="M170.514,414.276c-.26,5.5-3.25,13.59-12.48,14.2-12.3.81-21.84-8.72-22.56-14.33h.03C147.614,414.146,163.454,414.166,170.514,414.276Z" fill="#E98862"></path>
    </g>
  </g>
  <g>
    <polygon points="202.937 398.989 215.767 390.881 276.578 390.881 276.578 341.387 202.937 341.387 202.937 398.989" fill="#E5E5E5"></polygon>
    <g>
      <path d="M265.755,368.193l-16.572,8.042v-3.112l13.146-6.153V366.9l-13.146-6.118v-3.146l16.572,8.041Z" fill="#fff" stroke="#fff" stroke-miterlimit="10" stroke-width="0.811"></path>
      <path d="M242.362,377.633l-8.531-25.348h3.007l8.531,25.348Z" fill="#fff" stroke="#fff" stroke-miterlimit="10" stroke-width="0.811"></path>
      <path d="M213.76,365.606l16.573-7.971v3.111L216.977,366.9v.071l13.356,6.153v3.112l-16.573-7.972Z" fill="#fff" stroke="#fff" stroke-miterlimit="10" stroke-width="0.811"></path>
    </g>
  </g>
  <g>
    <g>
      <path d="M658.154,559.9c-2.215-18.618-2.215-20.533-2.215-21.163h21c0-.064,0-.146,0-.245.074,1.555,1.133,11.035,2.072,18.928Z" fill="#E98862"></path>
      <path d="M741.83,562.414s-.071-21.748-.071-23.674h21c0,1.92.071,23.605.071,23.605Z" fill="#E98862"></path>
      <path d="M687.4,553.272l-37-.63c1.538-38.963,1.8-83.529,2.213-123.855a234.035,234.035,0,0,1,2.26-29.872c5.952-42.724,9.835-85.205,17.849-127.679l.267.079.781-5.33,76.077-4.7L753.813,311s9.91,171.947,14.429,241.085L731.373,555.2c-6.643-67.786-16.923-166.556-23.246-237.767-7.261,34.67-12.2,70.568-18.514,104.941C688.35,465.4,687.283,510.374,687.4,553.272Z" fill="#14213D"></path>
      <path d="M716.3,570.536a4.108,4.108,0,0,1-4.076-4.427h0a4.108,4.108,0,0,1,2.658-3.53l24.443-8.186a3.461,3.461,0,0,1,2.872.319,19.1,19.1,0,0,0,11.468,3.4,17.031,17.031,0,0,0,8.82-3.222,1.547,1.547,0,0,1,2.528,1.2v11.952a2.678,2.678,0,0,1-2.689,2.678Z" fill="#c1d8ed"></path>
      <path d="M632.567,570.536a4.108,4.108,0,0,1-4.076-4.427h0a4.107,4.107,0,0,1,2.659-3.53l24.442-8.186a3.46,3.46,0,0,1,2.872.319,19.107,19.107,0,0,0,11.468,3.4,17.035,17.035,0,0,0,8.821-3.222,1.546,1.546,0,0,1,2.527,1.2v11.952a2.678,2.678,0,0,1-2.689,2.678Z" fill="#c1d8ed"></path>
    </g>
    <g>
      <g>
        <path d="M594.988,179.793s-2.651-8.734-7.963-12.218-5.3.44-2.94,4.373,7.926,12.208,7.926,12.208" fill="#E98862"></path>
        <path d="M591.868,176.147s-9.3-12.177-14.74-12.177c0,0-8.764,4.192-8.64,6.9.186,4.081,15.007,19.31,15.007,19.31Z" fill="#E98862"></path>
      </g>
      <path d="M646.426,239.072a10.5,10.5,0,0,1-6.56-2.3l-59.478-47.591,13.12-16.4,50.032,40.032,30-50.78,18.08,10.683-36.158,61.2a10.5,10.5,0,0,1-9.04,5.158Z" fill="#E5E5E5"></path>
      <path d="M668.837,269.333c4.19,9.63,86.52,13.63,87.62-3.31.7-10.78-8.8-20.19-8.8-41.2s19.33-47.84,3.58-63.59c-4.57-4.57-12.46-7.52-22.08-7.53-.72,5.61-34.78,5.63-35.04.13-1.3.02-2.31.04-2.94.07-33.18,1.43-18.6,39.19-18.28,66.93C673.287,253.293,664.517,259.413,668.837,269.333Z" fill="#E5E5E5"></path>
      <path d="M694.117,153.833c.26,5.5,3.25,13.59,12.48,14.2,12.3.81,21.84-8.72,22.56-14.33h-.03C717.017,153.7,701.177,153.723,694.117,153.833Z" fill="#E98862"></path>
      <path d="M682,163.577l-4.214-18.932a1.381,1.381,0,0,0-1.647-1.047l-13.9,3.095a1.383,1.383,0,0,1-1.544-.759,52.828,52.828,0,0,0-9.848-14.032,1.381,1.381,0,0,1-.188-1.71l7.644-12.021a1.379,1.379,0,0,0-.424-1.9l-16.371-10.41a1.38,1.38,0,0,0-1.9.424L631.957,118.3a1.382,1.382,0,0,1-1.629.555,52.828,52.828,0,0,0-16.883-2.965,1.383,1.383,0,0,1-1.343-1.077l-3.094-13.9a1.379,1.379,0,0,0-1.646-1.047l-18.933,4.214a1.381,1.381,0,0,0-1.047,1.647l3.1,13.9a1.381,1.381,0,0,1-.759,1.544,52.862,52.862,0,0,0-14.031,9.848,1.381,1.381,0,0,1-1.71.188l-12.022-7.644a1.379,1.379,0,0,0-1.9.424l-10.405,16.37a1.38,1.38,0,0,0,.424,1.9l12.02,7.643a1.383,1.383,0,0,1,.556,1.629,52.834,52.834,0,0,0-2.965,16.884,1.381,1.381,0,0,1-1.077,1.342l-13.9,3.095a1.38,1.38,0,0,0-1.047,1.646l4.215,18.933a1.38,1.38,0,0,0,1.646,1.047l13.9-3.095a1.383,1.383,0,0,1,1.545.759,52.8,52.8,0,0,0,9.847,14.031,1.383,1.383,0,0,1,.188,1.711l-7.643,12.021a1.379,1.379,0,0,0,.424,1.9l16.364,10.405a1.379,1.379,0,0,0,1.9-.423l7.644-12.021a1.382,1.382,0,0,1,1.628-.556,52.807,52.807,0,0,0,16.884,2.966,1.382,1.382,0,0,1,1.343,1.076l3.094,13.9a1.381,1.381,0,0,0,1.646,1.047l18.933-4.215a1.38,1.38,0,0,0,1.047-1.646l-3.095-13.9a1.383,1.383,0,0,1,.759-1.545,52.825,52.825,0,0,0,14.032-9.847,1.383,1.383,0,0,1,1.711-.187l12.02,7.642a1.38,1.38,0,0,0,1.9-.423l10.411-16.366a1.38,1.38,0,0,0-.424-1.905l-12.022-7.644a1.381,1.381,0,0,1-.555-1.628,52.829,52.829,0,0,0,2.966-16.883,1.383,1.383,0,0,1,1.077-1.343l13.9-3.094A1.38,1.38,0,0,0,682,163.577ZM620.482,198.84a30.768,30.768,0,1,1,22.579-35.492A30.763,30.763,0,0,1,620.482,198.84Z" fill="#E5E5E5"></path>
      <g>
        <path d="M676.153,210.824s2.315-13.17-7.206-14.259c-6.007-.687-21.109-9.038-23.973-2.059-2.486,6.056,11.936,13.264,17.1,14.6C666.7,210.3,676.153,210.824,676.153,210.824Z" fill="#E98862"></path>
        <path d="M672.193,197.613s-12.269-6.727-15.626-6.57c-2.972.139,2.084,5.888,2.084,5.888Z" fill="#E98862"></path>
      </g>
      <path d="M715.616,252.375a10.9,10.9,0,0,1-6.619-2.24l-50.465-38.559L671.77,194.25l39.513,30.191,24.929-55.816,19.91,8.892-30.552,68.4a10.9,10.9,0,0,1-9.954,6.456Z" fill="#E5E5E5"></path>
    </g>
    <g>
      <path d="M726.22,159.514s-7.733-4.1-6.006-25.156L704.238,131.4s1.795,18.878-6.288,24.872Z" fill="#E98862"></path>
      <g opacity="0.15">
        <path d="M701.224,152.321,714.5,142.167l-10.424-.108A28.756,28.756,0,0,1,701.224,152.321Z"></path>
      </g>
      <path d="M729.279,126.193c-1.106,6.389-4.592,12.438-10.228,14.5a40.51,40.51,0,0,1-19.357,2.615c-17.49-1.434-14.03-41.2-5.727-48.926s32.673-2.833,35.638,10.087C731.138,111.153,730.332,120.112,729.279,126.193Z" fill="#E98862"></path>
      <path d="M683.5,108.934s3.427-28.265,34.472-21.323a24.557,24.557,0,0,1,12.764,8.25,14.014,14.014,0,1,1,5.817,18.45c-.028.4-.058.81-.1,1.223-1.9,17.5-16.465,26.263-16.465,26.263s-3.91-2.961-2.519-31.235C710.728,111.137,695.3,111.967,683.5,108.934Z" fill="#0f1011"></path>
      <g>
        <circle cx="704.26" cy="119.823" r="1.449" fill="#0f1011"></circle>
        <circle cx="692.829" cy="118.886" r="1.449" fill="#0f1011"></circle>
        <path d="M690.318,115.8a.681.681,0,0,1-.008-1.362l3.838-.048h.009a.681.681,0,0,1,.008,1.362l-3.838.048Z" fill="#0f1011"></path>
        <path d="M707.388,117.2a.679.679,0,0,1-.16-.019l-3.785-.91a.681.681,0,1,1,.319-1.324l3.784.91a.681.681,0,0,1-.158,1.343Z" fill="#0f1011"></path>
        <path d="M703.59,131.235s-5.349.564-9.1-.746c0,0,.03,3.523,4.262,3.87S703.59,131.235,703.59,131.235Z" fill="#fff"></path>
      </g>
      <path d="M711.8,123.369a6.143,6.143,0,0,0,12.244,1,6.041,6.041,0,0,0-5.62-6.624C714.044,117.606,712.075,119.988,711.8,123.369Z" fill="#E98862"></path>
      <g opacity="0.15">
        <path d="M697.828,127.86a.5.5,0,0,0,.147-.978l-2.947-.905,2.062-4.59a.5.5,0,0,0-.913-.41l-2.293,5.107a.5.5,0,0,0,.309.683l3.488,1.071A.509.509,0,0,0,697.828,127.86Z"></path>
      </g>
    </g>
  </g>
  <g>
    <path d="M342.151,528.064h-39.08c-6.79-8.94-18.71-26.96-11.01-34.67,3.5-3.5,7.36-.17,10.94,5.8-1.24-11.69,0-22.85,8.13-26.11,7.4-2.97,10.7,5.98,11.98,17.98,3.65-6.82,8.44-11.62,14.7-11.25,8.94.54,6.78,12.47,1.55,25.68,3.97-3.02,8.12-4.5,12.17-3.18C360,505.084,352.081,516.974,342.151,528.064Z" fill="#8ddbe0"></path>
    <polygon points="340.112 570.135 304.074 570.135 298.041 528.065 346.145 528.065 340.112 570.135" fill="#c1d8ed"></polygon>
  </g>
</svg>