<svg id="Layer_1" data-name="Layer 1" xmlns="http://www.w3.org/2000/svg" viewBox="0 0 1189.266 639.816">
  <g>
    <path d="M109.072,632.7c-20.734.269-41.487-1.435-65.066-17.391-4.837-3.268-9.866-7.833-9.691-13.677.131-4.4,3.391-8.245,7.325-10.234a21,21,0,0,1,4.618-1.639c.008,0,.017,0,.017-.009a41.342,41.342,0,0,1,7.5-.9l.719-.026a122.1,122.1,0,0,1,35.627,3.96,4.811,4.811,0,0,0,4.355-8.3,29.1,29.1,0,0,0-4.855-3.364,46.119,46.119,0,0,0-7.938-3.365c-3.662-1.2-7.448-2.1-11.18-3.076A268.252,268.252,0,0,1,29.951,560.62c-9.366-4.118-18.8-9-25.208-16.981C1.8,539.968-.488,535.376.09,530.706c.964-7.675,9.209-12.407,16.893-13.371,13.468-1.682,26.611,4.329,38.6,10.681,9.946,5.284,21.056,11.1,31.912,8.105a9.849,9.849,0,0,0,4.933-2.769c2.454-2.839,1.849-7.377-.341-10.427s-5.591-4.95-8.868-6.773c-19.04-10.576-38.053-21.835-53.247-37.432S3.6,442.515,3.586,420.733c0-6.37.99-12.889,4.013-18.5s8.315-10.225,14.589-11.373c8.543-1.578,16.955,3.338,23.421,9.13C67.821,419.865,76.68,450.165,89.8,476.924c3.672,7.492,7.921,15.018,14.695,19.969a5.573,5.573,0,0,0,2.138,1c4.573.981,6.571-4.635,6.781-8.92.815-16.946-3.356-34.672,2.813-50.478,2.357-6.02,6.589-11.786,12.749-13.739,7.527-2.384,15.991,1.805,20.512,8.28s5.739,14.7,5.7,22.6c-.07,14.642-4.03,29.055-9.848,42.488-3.067,7.088-6.747,14.44-5.871,22.107a15.333,15.333,0,0,0,8.937,11.96,8.984,8.984,0,0,0,7,.017c2.392-1.025,4.215-3,5.968-4.924.735-.806,1.471-1.621,2.216-2.427q4.39-4.81,8.78-9.63c7.439-8.166,16.736-17.059,27.7-15.657,5.6.718,10.234,4.2,13.406,8.884a27.549,27.549,0,0,1,4.653,14.361c.333,10.681-8.709,43.635-13.8,53.028C198.386,586.809,180.013,631.775,109.072,632.7Z" fill="#8ddbe0"></path>
    <path d="M1080.2,632.7c20.733.269,41.486-1.435,65.065-17.391,4.837-3.268,9.866-7.833,9.691-13.677-.131-4.4-3.391-8.245-7.325-10.234a21,21,0,0,0-4.618-1.639c-.008,0-.017,0-.017-.009a41.342,41.342,0,0,0-7.5-.9l-.719-.026a122.1,122.1,0,0,0-35.627,3.96,4.811,4.811,0,0,1-4.354-8.3,29.047,29.047,0,0,1,4.854-3.364,46.119,46.119,0,0,1,7.938-3.365c3.663-1.2,7.448-2.1,11.181-3.076a268.241,268.241,0,0,0,40.551-14.054c9.367-4.118,18.8-9,25.209-16.981,2.943-3.671,5.23-8.263,4.652-12.933-.964-7.675-9.209-12.407-16.893-13.371-13.468-1.682-26.611,4.329-38.6,10.681-9.945,5.284-21.056,11.1-31.912,8.105a9.849,9.849,0,0,1-4.933-2.769c-2.453-2.839-1.849-7.377.342-10.427s5.59-4.95,8.867-6.773c19.04-10.576,38.054-21.835,53.247-37.432s26.365-36.205,26.383-57.987c0-6.37-.99-12.889-4.013-18.5s-8.315-10.225-14.589-11.373c-8.543-1.578-16.955,3.338-23.421,9.13-22.212,19.872-31.071,50.172-44.187,76.931-3.672,7.492-7.921,15.018-14.695,19.969a5.573,5.573,0,0,1-2.138,1c-4.573.981-6.571-4.635-6.781-8.92-.815-16.946,3.356-34.672-2.813-50.478-2.357-6.02-6.589-11.786-12.749-13.739-7.527-2.384-15.991,1.805-20.512,8.28s-5.739,14.7-5.7,22.6c.07,14.642,4.03,29.055,9.849,42.488,3.066,7.088,6.746,14.44,5.87,22.107a15.333,15.333,0,0,1-8.937,11.96,8.984,8.984,0,0,1-7,.017c-2.392-1.025-4.215-3-5.967-4.924-.736-.806-1.472-1.621-2.217-2.427q-4.39-4.81-8.78-9.63c-7.439-8.166-16.735-17.059-27.7-15.657-5.6.718-10.234,4.2-13.406,8.884a27.549,27.549,0,0,0-4.653,14.361c-.332,10.681,8.709,43.635,13.8,53.028C990.88,586.809,1009.253,631.775,1080.2,632.7Z" fill="#8ddbe0"></path>
  </g>
  <rect x="107.068" y="597.555" width="975.13" height="42.261" rx="21.13" fill="#dee8f5"></rect>
  <g>
    <rect x="169.487" width="847.161" height="604.422" rx="31.122" fill="#dee8f5"></rect>
    <rect x="188.782" y="21.225" width="808.57" height="561.3" rx="13.76" fill="#fff"></rect>
  </g>
  <rect x="214.72" y="50.305" width="754.826" height="71.609" fill="#f3f5fd"></rect>
  <rect x="647.372" y="145.74" width="322.174" height="194.87" fill="#f3f5fd"></rect>
  <rect x="214.72" y="145.74" width="409.174" height="259.435" fill="#f3f5fd"></rect>
  <rect x="214.72" y="429.827" width="409.174" height="48.13" fill="#f3f5fd"></rect>
  <rect x="214.72" y="499.544" width="409.174" height="16.435" fill="#f3f5fd"></rect>
  <rect x="214.72" y="535.935" width="409.174" height="16.435" fill="#f3f5fd"></rect>
  <rect x="647.372" y="364.435" width="322.174" height="81.826" fill="#f3f5fd"></rect>
  <rect x="647.372" y="470.914" width="322.174" height="81.457" fill="#f3f5fd"></rect>
  <g>
    <g>
      <polygon points="843.66 281.871 758.888 234.726 785.317 328.056 843.66 281.871" fill="#8ddbe0"></polygon>
      <rect x="814.658" y="288.007" width="18.649" height="57.899" transform="translate(-18.804 579.861) rotate(-38.365)" fill="#8ddbe0"></rect>
    </g>
    <rect x="855.932" y="316.957" width="86.87" height="35.352" fill="#8ddbe0"></rect>
  </g>
  <g>
    <g>
      <polygon points="366.914 433.993 451.686 386.847 425.257 480.177 366.914 433.993" fill="#FFEB3B"></polygon>
      <rect x="377.268" y="440.128" width="18.649" height="57.899" transform="translate(398.565 1076.815) rotate(-141.635)" fill="#FFEB3B"></rect>
    </g>
    <rect x="267.773" y="469.078" width="86.87" height="35.352" transform="translate(622.415 973.508) rotate(-180)" fill="#FFEB3B"></rect>
  </g>
  <g>
    <g>
      <polygon points="433.827 134.094 518.599 86.948 492.17 180.278 433.827 134.094" fill="#9ebcea"></polygon>
      <rect x="444.181" y="140.229" width="18.649" height="57.899" transform="translate(704.081 583.305) rotate(-141.635)" fill="#9ebcea"></rect>
    </g>
    <rect x="334.686" y="169.179" width="86.87" height="35.352" transform="translate(756.241 373.71) rotate(-180)" fill="#9ebcea"></rect>
  </g>
</svg>