<svg xmlns="http://www.w3.org/2000/svg" viewBox="0 0 474.54 300.51"><defs><style>.cls-1{fill:#323737;}</style></defs><title>Element 1</title><g id="Ebene_2" data-name="Ebene 2"><g id="Ebene_1-2" data-name="Ebene 1"><path class="cls-1" d="M254,154.76a16.8,16.8,0,0,0-16.7,17.06c0,10,7.07,17.43,16.45,17.43A16.9,16.9,0,0,0,270.66,172C270.66,162.93,263.71,154.76,254,154.76Z"/><path class="cls-1" d="M329.2,152.94c-7.32,0-13.66,4.38-15.24,11.57h30.71C343.09,157.57,337,152.94,329.2,152.94Z"/><path class="cls-1" d="M172.68,154.76c-9.26,0-16.57,7.68-16.57,17.43a16.88,16.88,0,1,0,33.75-.24A17.17,17.17,0,0,0,172.68,154.76Z"/><path class="cls-1" d="M438.89,38.57C355.81-50.46,175,40.07,139,58.12,107.68,73.8-8.27,132.31.47,198.41c6.43,48.68,78.24,84.33,124.07,95.9a223.65,223.65,0,0,0,60.13,6.09c77.23-2.31,93.34-45,146.14-33.49,36.27,7.9,54.52,29.85,82.2,19.79,4.43-1.61,19.16-7.69,33.49-32C474.91,206.62,495,98.65,438.89,38.57Zm-303.15,90.6H135c-5.25,0-7.8,1.34-7.8,7v2.07h8.52v15.36h-8.52v52.27H107V153.55H99.43V138.19H107v-2.8c0-11.21,4.38-21.45,26-21.45h2.8Zm74.35,76.65H189.86v-7.31h-.25c-2.91,6-11,9.63-19.85,9.63-20,0-33.88-15.72-33.88-36.19,0-20,14.5-36.07,33.88-36.07,8.29,0,16,3.29,19.85,9.5h.25v-7.19h20.23Zm46.68,2.32c-8.17,0-16.33-3.78-19.38-9.51h-.24v7.19H217.78V115.65H238v27.91c5.35-5.73,12.18-7.68,19.24-7.68,17.56,0,33.64,13.16,33.64,35.7C290.89,192.42,277.6,208.14,256.77,208.14Zm107.64-30H313.72c1.09,7.68,7.55,12.79,15.83,12.79,5.49,0,9-2.07,12.32-6.33h20.71c-6.46,14.74-18.77,23.39-33,23.39a35.79,35.79,0,0,1-35.81-35.82c0-19.5,15.59-36.31,35.46-36.31,20.22,0,35.7,16,35.7,36.92A25.52,25.52,0,0,1,364.41,178.16Zm37.92-22.91h-3.15c-5.25,0-7.8,1.34-7.8,6.95v43.62H371.15v-48.5c0-11.21,4.38-21.44,26-21.44h5.23Z"/></g></g></svg>