<svg width="350" height="398" viewBox="0 0 350 398" fill="none" xmlns="http://www.w3.org/2000/svg">
<g clip-path="url(#clip0_10_72)">
<path d="M329.027 112.175L230.346 112.175C228.47 112.175 226.672 111.431 225.345 110.105C224.019 108.78 223.274 106.983 223.274 105.108V33.3247C223.274 31.4514 224.019 29.6547 225.344 28.3301C226.67 27.0054 228.468 26.2612 230.343 26.2612L329.03 26.2612C330.905 26.2612 332.703 27.0054 334.028 28.3301C335.354 29.6547 336.099 31.4514 336.099 33.3247V105.108C336.099 106.983 335.354 108.78 334.027 110.105C332.701 111.431 330.902 112.175 329.027 112.175Z" fill="white"/>
<path d="M222.978 105.108V33.3242C222.978 31.3726 223.754 29.5009 225.135 28.1208C226.517 26.7408 228.39 25.9655 230.343 25.9655H329.03C330.983 25.9655 332.856 26.7408 334.237 28.1208C335.618 29.5009 336.394 31.3726 336.394 33.3242V105.108C336.394 106.075 336.204 107.032 335.833 107.925C335.463 108.818 334.92 109.63 334.236 110.314C333.552 110.997 332.74 111.539 331.846 111.909C330.952 112.279 329.994 112.47 329.027 112.47H230.346C229.379 112.47 228.421 112.279 227.527 111.909C226.633 111.539 225.821 110.997 225.136 110.314C224.452 109.63 223.91 108.818 223.539 107.925C223.169 107.032 222.978 106.075 222.978 105.108ZM230.343 26.556C228.547 26.5565 226.824 27.2698 225.555 28.5391C224.285 29.8083 223.571 31.5295 223.571 33.3242V105.108C223.571 106.904 224.285 108.626 225.556 109.896C226.827 111.166 228.551 111.879 230.348 111.879H329.027C330.824 111.879 332.548 111.166 333.818 109.896C335.089 108.626 335.803 106.904 335.803 105.108V33.3242C335.803 31.5292 335.09 29.8077 333.819 28.5384C332.549 27.2691 330.826 26.556 329.03 26.556H230.343Z" fill="#292A2E"/>
<path d="M223.274 33.3233V39.3045H336.098V33.3233C336.098 31.4499 335.353 29.6533 334.027 28.3287C332.702 27.004 330.904 26.2598 329.029 26.2598H230.343C229.415 26.2598 228.495 26.4425 227.638 26.7975C226.78 27.1525 226.001 27.6728 225.345 28.3287C224.688 28.9846 224.168 29.7633 223.812 30.6203C223.457 31.4772 223.274 32.3957 223.274 33.3233Z" fill="#292A2E"/>
<path d="M261.805 48.9728H256.482C256.419 48.9728 256.359 48.9479 256.314 48.9036C256.27 48.8593 256.245 48.7992 256.245 48.7366C256.245 48.674 256.27 48.6139 256.314 48.5696C256.359 48.5253 256.419 48.5004 256.482 48.5004H261.805C261.868 48.5004 261.928 48.5253 261.973 48.5696C262.017 48.6139 262.042 48.674 262.042 48.7366C262.042 48.7992 262.017 48.8593 261.973 48.9036C261.928 48.9479 261.868 48.9728 261.805 48.9728Z" fill="#292A2E"/>
<path d="M252.642 48.9728H250.628C250.565 48.9728 250.505 48.9479 250.461 48.9036C250.416 48.8593 250.391 48.7992 250.391 48.7366C250.391 48.674 250.416 48.6139 250.461 48.5696C250.505 48.5253 250.565 48.5004 250.628 48.5004H252.642C252.705 48.5004 252.765 48.5253 252.809 48.5696C252.854 48.6139 252.879 48.674 252.879 48.7366C252.879 48.7992 252.854 48.8593 252.809 48.9036C252.765 48.9479 252.705 48.9728 252.642 48.9728Z" fill="#FFFD54"/>
<path d="M252.642 53.2339H250.628C250.565 53.2339 250.505 53.2091 250.461 53.1648C250.416 53.1205 250.391 53.0604 250.391 52.9977C250.391 52.9351 250.416 52.875 250.461 52.8307C250.505 52.7864 250.565 52.7615 250.628 52.7615H252.642C252.705 52.7615 252.765 52.7864 252.809 52.8307C252.854 52.875 252.879 52.9351 252.879 52.9977C252.879 53.0604 252.854 53.1205 252.809 53.1648C252.765 53.2091 252.705 53.2339 252.642 53.2339Z" fill="#FFFD54"/>
<path d="M252.642 57.4951H250.628C250.565 57.4951 250.505 57.4702 250.461 57.4259C250.416 57.3816 250.391 57.3215 250.391 57.2589C250.391 57.1962 250.416 57.1362 250.461 57.0919C250.505 57.0476 250.565 57.0227 250.628 57.0227H252.642C252.705 57.0227 252.765 57.0476 252.809 57.0919C252.854 57.1362 252.879 57.1962 252.879 57.2589C252.879 57.3215 252.854 57.3816 252.809 57.4259C252.765 57.4702 252.705 57.4951 252.642 57.4951Z" fill="#FFFD54"/>
<path d="M252.642 61.7562H250.628C250.565 61.7562 250.505 61.7313 250.461 61.687C250.416 61.6427 250.391 61.5827 250.391 61.52C250.391 61.4574 250.416 61.3973 250.461 61.353C250.505 61.3087 250.565 61.2838 250.628 61.2838H252.642C252.705 61.2838 252.765 61.3087 252.809 61.353C252.854 61.3973 252.879 61.4574 252.879 61.52C252.879 61.5827 252.854 61.6427 252.809 61.687C252.765 61.7313 252.705 61.7562 252.642 61.7562Z" fill="#FFFD54"/>
<path d="M252.642 66.0174H250.628C250.565 66.0174 250.505 65.9925 250.461 65.9482C250.416 65.9039 250.391 65.8438 250.391 65.7812C250.391 65.7185 250.416 65.6584 250.461 65.6141C250.505 65.5698 250.565 65.545 250.628 65.545H252.642C252.705 65.545 252.765 65.5698 252.809 65.6141C252.854 65.6584 252.879 65.7185 252.879 65.7812C252.879 65.8438 252.854 65.9039 252.809 65.9482C252.765 65.9925 252.705 66.0174 252.642 66.0174Z" fill="#FFFD54"/>
<path d="M252.642 70.2785H250.628C250.565 70.2785 250.505 70.2536 250.461 70.2093C250.416 70.165 250.391 70.1049 250.391 70.0423C250.391 69.9797 250.416 69.9196 250.461 69.8753C250.505 69.831 250.565 69.8061 250.628 69.8061H252.642C252.705 69.8061 252.765 69.831 252.809 69.8753C252.854 69.9196 252.879 69.9797 252.879 70.0423C252.879 70.1049 252.854 70.165 252.809 70.2093C252.765 70.2536 252.705 70.2785 252.642 70.2785Z" fill="#FFFD54"/>
<path d="M252.642 74.5396H250.628C250.565 74.5396 250.505 74.5147 250.461 74.4704C250.416 74.4261 250.391 74.366 250.391 74.3034C250.391 74.2408 250.416 74.1807 250.461 74.1364C250.505 74.0921 250.565 74.0672 250.628 74.0672H252.642C252.705 74.0672 252.765 74.0921 252.809 74.1364C252.854 74.1807 252.879 74.2408 252.879 74.3034C252.879 74.366 252.854 74.4261 252.809 74.4704C252.765 74.5147 252.705 74.5396 252.642 74.5396Z" fill="#FFFD54"/>
<path d="M252.642 78.8007H250.628C250.565 78.8007 250.505 78.7759 250.461 78.7316C250.416 78.6873 250.391 78.6272 250.391 78.5645C250.391 78.5019 250.416 78.4418 250.461 78.3975C250.505 78.3532 250.565 78.3283 250.628 78.3283H252.642C252.705 78.3283 252.765 78.3532 252.809 78.3975C252.854 78.4418 252.879 78.5019 252.879 78.5645C252.879 78.6272 252.854 78.6873 252.809 78.7316C252.765 78.7759 252.705 78.8007 252.642 78.8007Z" fill="#FFFD54"/>
<path d="M252.642 83.0619H250.628C250.565 83.0619 250.505 83.037 250.461 82.9927C250.416 82.9484 250.391 82.8883 250.391 82.8257C250.391 82.763 250.416 82.703 250.461 82.6587C250.505 82.6144 250.565 82.5895 250.628 82.5895H252.642C252.705 82.5895 252.765 82.6144 252.809 82.6587C252.854 82.703 252.879 82.763 252.879 82.8257C252.879 82.8883 252.854 82.9484 252.809 82.9927C252.765 83.037 252.705 83.0619 252.642 83.0619Z" fill="#FFFD54"/>
<path d="M252.642 87.323H250.628C250.565 87.323 250.505 87.2981 250.461 87.2538C250.416 87.2096 250.391 87.1495 250.391 87.0868C250.391 87.0242 250.416 86.9641 250.461 86.9198C250.505 86.8755 250.565 86.8506 250.628 86.8506H252.642C252.705 86.8506 252.765 86.8755 252.809 86.9198C252.854 86.9641 252.879 87.0242 252.879 87.0868C252.879 87.1495 252.854 87.2096 252.809 87.2538C252.765 87.2981 252.705 87.323 252.642 87.323Z" fill="#FFFD54"/>
<path d="M252.642 91.5842H250.628C250.565 91.5842 250.505 91.5593 250.461 91.515C250.416 91.4707 250.391 91.4106 250.391 91.348C250.391 91.2853 250.416 91.2252 250.461 91.1809C250.505 91.1366 250.565 91.1118 250.628 91.1118H252.642C252.705 91.1118 252.765 91.1366 252.809 91.1809C252.854 91.2252 252.879 91.2853 252.879 91.348C252.879 91.4106 252.854 91.4707 252.809 91.515C252.765 91.5593 252.705 91.5842 252.642 91.5842Z" fill="#FFFD54"/>
<path d="M252.642 95.8453H250.628C250.565 95.8453 250.505 95.8204 250.461 95.7761C250.416 95.7318 250.391 95.6717 250.391 95.6091C250.391 95.5465 250.416 95.4864 250.461 95.4421C250.505 95.3978 250.565 95.3729 250.628 95.3729H252.642C252.705 95.3729 252.765 95.3978 252.809 95.4421C252.854 95.4864 252.879 95.5465 252.879 95.6091C252.879 95.6717 252.854 95.7318 252.809 95.7761C252.765 95.8204 252.705 95.8453 252.642 95.8453Z" fill="#FFFD54"/>
<path d="M252.642 100.106H250.628C250.565 100.106 250.505 100.082 250.461 100.037C250.416 99.993 250.391 99.9329 250.391 99.8702C250.391 99.8076 250.416 99.7475 250.461 99.7032C250.505 99.6589 250.565 99.634 250.628 99.634H252.642C252.705 99.634 252.765 99.6589 252.809 99.7032C252.854 99.7475 252.879 99.8076 252.879 99.8702C252.879 99.9329 252.854 99.993 252.809 100.037C252.765 100.082 252.705 100.106 252.642 100.106Z" fill="#FFFD54"/>
<path d="M252.642 104.368H250.628C250.565 104.368 250.505 104.343 250.461 104.299C250.416 104.255 250.391 104.194 250.391 104.132C250.391 104.069 250.416 104.009 250.461 103.965C250.505 103.921 250.565 103.896 250.628 103.896H252.642C252.705 103.896 252.765 103.921 252.809 103.965C252.854 104.009 252.879 104.069 252.879 104.132C252.879 104.194 252.854 104.255 252.809 104.299C252.765 104.343 252.705 104.368 252.642 104.368Z" fill="#FFFD54"/>
<path d="M266.06 53.2339H261.209C261.147 53.2339 261.086 53.2091 261.042 53.1648C260.998 53.1205 260.973 53.0604 260.973 52.9977C260.973 52.9351 260.998 52.875 261.042 52.8307C261.086 52.7864 261.147 52.7615 261.209 52.7615H266.06C266.123 52.7615 266.183 52.7864 266.227 52.8307C266.272 52.875 266.297 52.9351 266.297 52.9977C266.297 53.0604 266.272 53.1205 266.227 53.1648C266.183 53.2091 266.123 53.2339 266.06 53.2339Z" fill="#292A2E"/>
<path d="M261.805 78.8007H256.482C256.419 78.8007 256.359 78.7759 256.314 78.7316C256.27 78.6873 256.245 78.6272 256.245 78.5645C256.245 78.5019 256.27 78.4418 256.314 78.3975C256.359 78.3532 256.419 78.3283 256.482 78.3283H261.805C261.868 78.3283 261.928 78.3532 261.973 78.3975C262.017 78.4418 262.042 78.5019 262.042 78.5645C262.042 78.6272 262.017 78.6873 261.973 78.7316C261.928 78.7759 261.868 78.8007 261.805 78.8007Z" fill="#292A2E"/>
<path d="M266.06 83.0619H261.209C261.147 83.0619 261.086 83.037 261.042 82.9927C260.998 82.9484 260.973 82.8883 260.973 82.8257C260.973 82.763 260.998 82.703 261.042 82.6587C261.086 82.6144 261.147 82.5895 261.209 82.5895H266.06C266.123 82.5895 266.183 82.6144 266.227 82.6587C266.272 82.703 266.297 82.763 266.297 82.8257C266.297 82.8883 266.272 82.9484 266.227 82.9927C266.183 83.037 266.123 83.0619 266.06 83.0619Z" fill="#292A2E"/>
<path d="M293.481 57.4951H264.519C264.456 57.4951 264.396 57.4702 264.351 57.4259C264.307 57.3816 264.282 57.3215 264.282 57.2589C264.282 57.1962 264.307 57.1362 264.351 57.0919C264.396 57.0476 264.456 57.0227 264.519 57.0227H293.481C293.543 57.0227 293.604 57.0476 293.648 57.0919C293.692 57.1362 293.717 57.1962 293.717 57.2589C293.717 57.3215 293.692 57.3816 293.648 57.4259C293.604 57.4702 293.543 57.4951 293.481 57.4951Z" fill="#292A2E"/>
<path d="M319.051 57.4951H298.599C298.537 57.4951 298.477 57.4702 298.432 57.4259C298.388 57.3816 298.363 57.3215 298.363 57.2589C298.363 57.1962 298.388 57.1362 298.432 57.0919C298.477 57.0476 298.537 57.0227 298.599 57.0227H319.051C319.114 57.0227 319.174 57.0476 319.218 57.0919C319.263 57.1362 319.288 57.1962 319.288 57.2589C319.288 57.3215 319.263 57.3816 319.218 57.4259C319.174 57.4702 319.114 57.4951 319.051 57.4951Z" fill="#0CBC8B"/>
<path d="M330.027 57.4951H323.758C323.695 57.4951 323.635 57.4702 323.591 57.4259C323.547 57.3816 323.522 57.3215 323.522 57.2589C323.522 57.1962 323.547 57.1362 323.591 57.0919C323.635 57.0476 323.695 57.0227 323.758 57.0227H330.027C330.09 57.0227 330.15 57.0476 330.194 57.0919C330.238 57.1362 330.263 57.1962 330.263 57.2589C330.263 57.3215 330.238 57.3816 330.194 57.4259C330.15 57.4702 330.09 57.4951 330.027 57.4951Z" fill="#292A2E"/>
<path d="M307.664 66.0174H264.519C264.456 66.0174 264.396 65.9925 264.351 65.9482C264.307 65.9039 264.282 65.8438 264.282 65.7812C264.282 65.7185 264.307 65.6584 264.351 65.6141C264.396 65.5698 264.456 65.545 264.519 65.545H307.664C307.726 65.545 307.787 65.5698 307.831 65.6141C307.875 65.6584 307.9 65.7185 307.9 65.7812C307.9 65.8438 307.875 65.9039 307.831 65.9482C307.787 65.9925 307.726 66.0174 307.664 66.0174Z" fill="#292A2E"/>
<path d="M319.051 66.0174H312.782C312.72 66.0174 312.66 65.9925 312.615 65.9482C312.571 65.9039 312.546 65.8438 312.546 65.7812C312.546 65.7185 312.571 65.6584 312.615 65.6141C312.66 65.5698 312.72 65.545 312.782 65.545H319.051C319.114 65.545 319.174 65.5698 319.218 65.6141C319.263 65.6584 319.288 65.7185 319.288 65.7812C319.288 65.8438 319.263 65.9039 319.218 65.9482C319.174 65.9925 319.114 66.0174 319.051 66.0174Z" fill="#FFFD54"/>
<path d="M269.842 61.7562H264.519C264.456 61.7562 264.396 61.7313 264.351 61.687C264.307 61.6427 264.282 61.5827 264.282 61.52C264.282 61.4574 264.307 61.3973 264.351 61.353C264.396 61.3087 264.456 61.2838 264.519 61.2838H269.842C269.905 61.2838 269.965 61.3087 270.01 61.353C270.054 61.3973 270.079 61.4574 270.079 61.52C270.079 61.5827 270.054 61.6427 270.01 61.687C269.965 61.7313 269.905 61.7562 269.842 61.7562Z" fill="#0CBC8B"/>
<path d="M304.868 61.7562H274.961C274.898 61.7562 274.838 61.7313 274.794 61.687C274.75 61.6427 274.725 61.5827 274.725 61.52C274.725 61.4574 274.75 61.3973 274.794 61.353C274.838 61.3087 274.898 61.2838 274.961 61.2838H304.868C304.931 61.2838 304.991 61.3087 305.035 61.353C305.08 61.3973 305.105 61.4574 305.105 61.52C305.105 61.5827 305.08 61.6427 305.035 61.687C304.991 61.7313 304.931 61.7562 304.868 61.7562Z" fill="#FFFD54"/>
<path d="M330.068 61.7562H310.56C310.498 61.7562 310.438 61.7313 310.393 61.687C310.349 61.6427 310.324 61.5827 310.324 61.52C310.324 61.4574 310.349 61.3973 310.393 61.353C310.438 61.3087 310.498 61.2838 310.56 61.2838H330.067C330.13 61.2838 330.19 61.3087 330.234 61.353C330.279 61.3973 330.304 61.4574 330.304 61.52C330.304 61.5827 330.279 61.6427 330.234 61.687C330.19 61.7313 330.13 61.7562 330.067 61.7562H330.068Z" fill="#292A2E"/>
<path d="M293.481 70.2785H264.519C264.456 70.2785 264.396 70.2536 264.351 70.2093C264.307 70.165 264.282 70.1049 264.282 70.0423C264.282 69.9797 264.307 69.9196 264.351 69.8753C264.396 69.831 264.456 69.8061 264.519 69.8061H293.481C293.543 69.8061 293.604 69.831 293.648 69.8753C293.692 69.9196 293.717 69.9797 293.717 70.0423C293.717 70.1049 293.692 70.165 293.648 70.2093C293.604 70.2536 293.543 70.2785 293.481 70.2785Z" fill="#292A2E"/>
<path d="M309.596 70.2785H298.599C298.537 70.2785 298.477 70.2536 298.432 70.2093C298.388 70.165 298.363 70.1049 298.363 70.0423C298.363 69.9797 298.388 69.9196 298.432 69.8753C298.477 69.831 298.537 69.8061 298.599 69.8061H309.596C309.659 69.8061 309.719 69.831 309.763 69.8753C309.807 69.9196 309.832 69.9797 309.832 70.0423C309.832 70.1049 309.807 70.165 309.763 70.2093C309.719 70.2536 309.659 70.2785 309.596 70.2785Z" fill="#0CBC8B"/>
<path d="M330.027 70.2785H314.303C314.24 70.2785 314.18 70.2536 314.136 70.2093C314.091 70.165 314.066 70.1049 314.066 70.0423C314.066 69.9797 314.091 69.9196 314.136 69.8753C314.18 69.831 314.24 69.8061 314.303 69.8061H330.027C330.09 69.8061 330.15 69.831 330.194 69.8753C330.239 69.9196 330.263 69.9797 330.263 70.0423C330.263 70.1049 330.239 70.165 330.194 70.2093C330.15 70.2536 330.09 70.2785 330.027 70.2785Z" fill="#292A2E"/>
<path d="M269.842 74.5396H264.519C264.456 74.5396 264.396 74.5147 264.351 74.4704C264.307 74.4261 264.282 74.366 264.282 74.3034C264.282 74.2408 264.307 74.1807 264.351 74.1364C264.396 74.0921 264.456 74.0672 264.519 74.0672H269.842C269.905 74.0672 269.965 74.0921 270.01 74.1364C270.054 74.1807 270.079 74.2408 270.079 74.3034C270.079 74.366 270.054 74.4261 270.01 74.4704C269.965 74.5147 269.905 74.5396 269.842 74.5396Z" fill="#FFFD54"/>
<path d="M304.868 74.5396H274.961C274.898 74.5396 274.838 74.5147 274.794 74.4704C274.75 74.4261 274.725 74.366 274.725 74.3034C274.725 74.2408 274.75 74.1807 274.794 74.1364C274.838 74.0921 274.898 74.0672 274.961 74.0672H304.868C304.931 74.0672 304.991 74.0921 305.035 74.1364C305.08 74.1807 305.105 74.2408 305.105 74.3034C305.105 74.366 305.08 74.4261 305.035 74.4704C304.991 74.5147 304.931 74.5396 304.868 74.5396Z" fill="#0CBC8B"/>
<path d="M292.535 91.5842H263.573C263.51 91.5842 263.45 91.5593 263.406 91.515C263.362 91.4707 263.337 91.4106 263.337 91.348C263.337 91.2853 263.362 91.2252 263.406 91.1809C263.45 91.1366 263.51 91.1118 263.573 91.1118H292.535C292.598 91.1118 292.658 91.1366 292.702 91.1809C292.747 91.2252 292.772 91.2853 292.772 91.348C292.772 91.4106 292.747 91.4707 292.702 91.515C292.658 91.5593 292.598 91.5842 292.535 91.5842Z" fill="#292A2E"/>
<path d="M318.106 91.5842H297.654C297.591 91.5842 297.531 91.5593 297.487 91.515C297.442 91.4707 297.417 91.4106 297.417 91.348C297.417 91.2853 297.442 91.2252 297.487 91.1809C297.531 91.1366 297.591 91.1118 297.654 91.1118H318.106C318.168 91.1118 318.229 91.1366 318.273 91.1809C318.317 91.2252 318.342 91.2853 318.342 91.348C318.342 91.4106 318.317 91.4707 318.273 91.515C318.229 91.5593 318.168 91.5842 318.106 91.5842Z" fill="#FFFD54"/>
<path d="M278.352 87.323H263.573C263.51 87.323 263.45 87.2981 263.406 87.2538C263.362 87.2096 263.337 87.1495 263.337 87.0868C263.337 87.0242 263.362 86.9641 263.406 86.9198C263.45 86.8755 263.51 86.8506 263.573 86.8506H278.352C278.415 86.8506 278.475 86.8755 278.519 86.9198C278.564 86.9641 278.589 87.0242 278.589 87.0868C278.589 87.1495 278.564 87.2096 278.519 87.2538C278.475 87.2981 278.415 87.323 278.352 87.323Z" fill="#0CBC8B"/>
<path d="M303.923 87.323H283.471C283.408 87.323 283.348 87.2981 283.304 87.2538C283.259 87.2096 283.234 87.1495 283.234 87.0868C283.234 87.0242 283.259 86.9641 283.304 86.9198C283.348 86.8755 283.408 86.8506 283.471 86.8506H303.923C303.985 86.8506 304.046 86.8755 304.09 86.9198C304.134 86.9641 304.159 87.0242 304.159 87.0868C304.159 87.1495 304.134 87.2096 304.09 87.2538C304.046 87.2981 303.985 87.323 303.923 87.323Z" fill="#FFFD54"/>
<path d="M329.123 87.323H309.615C309.552 87.323 309.492 87.2981 309.448 87.2538C309.403 87.2096 309.378 87.1495 309.378 87.0868C309.378 87.0242 309.403 86.9641 309.448 86.9198C309.492 86.8755 309.552 86.8506 309.615 86.8506H329.122C329.184 86.8506 329.244 86.8755 329.289 86.9198C329.333 86.9641 329.358 87.0242 329.358 87.0868C329.358 87.1495 329.333 87.2096 329.289 87.2538C329.244 87.2981 329.184 87.323 329.122 87.323H329.123Z" fill="#292A2E"/>
<path d="M306.718 100.107H263.573C263.51 100.107 263.45 100.082 263.406 100.038C263.362 99.9934 263.337 99.9333 263.337 99.8707C263.337 99.8081 263.362 99.748 263.406 99.7037C263.45 99.6594 263.51 99.6345 263.573 99.6345H306.718C306.781 99.6345 306.841 99.6594 306.885 99.7037C306.93 99.748 306.955 99.8081 306.955 99.8707C306.955 99.9333 306.93 99.9934 306.885 100.038C306.841 100.082 306.781 100.107 306.718 100.107Z" fill="#FFFD54"/>
<path d="M318.106 100.107H311.837C311.774 100.107 311.714 100.082 311.67 100.038C311.625 99.9934 311.6 99.9333 311.6 99.8707C311.6 99.8081 311.625 99.748 311.67 99.7037C311.714 99.6594 311.774 99.6345 311.837 99.6345H318.106C318.168 99.6345 318.229 99.6594 318.273 99.7037C318.317 99.748 318.342 99.8081 318.342 99.8707C318.342 99.9333 318.317 99.9934 318.273 100.038C318.229 100.082 318.168 100.107 318.106 100.107Z" fill="#292A2E"/>
<path d="M268.897 95.8458H263.573C263.51 95.8458 263.45 95.8209 263.406 95.7766C263.362 95.7323 263.337 95.6722 263.337 95.6096C263.337 95.5469 263.362 95.4868 263.406 95.4425C263.45 95.3982 263.51 95.3734 263.573 95.3734H268.897C268.96 95.3734 269.02 95.3982 269.064 95.4425C269.108 95.4868 269.133 95.5469 269.133 95.6096C269.133 95.6722 269.108 95.7323 269.064 95.7766C269.02 95.8209 268.96 95.8458 268.897 95.8458Z" fill="#FFFD54"/>
<path d="M303.923 95.8458H274.016C273.953 95.8458 273.893 95.8209 273.848 95.7766C273.804 95.7323 273.779 95.6722 273.779 95.6096C273.779 95.5469 273.804 95.4868 273.848 95.4425C273.893 95.3982 273.953 95.3734 274.016 95.3734H303.923C303.985 95.3734 304.046 95.3982 304.09 95.4425C304.134 95.4868 304.159 95.5469 304.159 95.6096C304.159 95.6722 304.134 95.7323 304.09 95.7766C304.046 95.8209 303.985 95.8458 303.923 95.8458Z" fill="#292A2E"/>
<path d="M329.123 95.8458H309.615C309.552 95.8458 309.492 95.8209 309.448 95.7766C309.403 95.7323 309.378 95.6722 309.378 95.6096C309.378 95.5469 309.403 95.4868 309.448 95.4425C309.492 95.3982 309.552 95.3734 309.615 95.3734H329.122C329.184 95.3734 329.244 95.3982 329.289 95.4425C329.333 95.4868 329.358 95.5469 329.358 95.6096C329.358 95.6722 329.333 95.7323 329.289 95.7766C329.244 95.8209 329.184 95.8458 329.122 95.8458H329.123Z" fill="#0CBC8B"/>
<path d="M292.535 104.368H263.573C263.51 104.368 263.45 104.343 263.406 104.299C263.362 104.255 263.337 104.194 263.337 104.132C263.337 104.069 263.362 104.009 263.406 103.965C263.45 103.921 263.51 103.896 263.573 103.896H292.535C292.598 103.896 292.658 103.921 292.702 103.965C292.747 104.009 292.772 104.069 292.772 104.132C292.772 104.194 292.747 104.255 292.702 104.299C292.658 104.343 292.598 104.368 292.535 104.368Z" fill="#0CBC8B"/>
<path d="M308.65 104.368H297.654C297.591 104.368 297.531 104.343 297.487 104.299C297.442 104.255 297.417 104.194 297.417 104.132C297.417 104.069 297.442 104.009 297.487 103.965C297.531 103.921 297.591 103.896 297.654 103.896H308.65C308.713 103.896 308.773 103.921 308.818 103.965C308.862 104.009 308.887 104.069 308.887 104.132C308.887 104.194 308.862 104.255 308.818 104.299C308.773 104.343 308.713 104.368 308.65 104.368Z" fill="#292A2E"/>
<path d="M329.082 104.368H313.357C313.295 104.368 313.234 104.343 313.19 104.299C313.146 104.255 313.121 104.194 313.121 104.132C313.121 104.069 313.146 104.009 313.19 103.965C313.234 103.921 313.295 103.896 313.357 103.896H329.082C329.144 103.896 329.204 103.921 329.249 103.965C329.293 104.009 329.318 104.069 329.318 104.132C329.318 104.194 329.293 104.255 329.249 104.299C329.204 104.343 329.144 104.368 329.082 104.368Z" fill="#FFFD54"/>
<path d="M248.383 108.928C248.32 108.928 248.26 108.903 248.215 108.859C248.171 108.814 248.146 108.754 248.146 108.692V41.5342C248.146 41.4716 248.171 41.4115 248.215 41.3672C248.26 41.3229 248.32 41.298 248.383 41.298C248.445 41.298 248.505 41.3229 248.55 41.3672C248.594 41.4115 248.619 41.4716 248.619 41.5342V108.692C248.619 108.754 248.594 108.814 248.55 108.859C248.505 108.903 248.445 108.928 248.383 108.928Z" fill="#292A2E"/>
<path d="M327.551 37.0449C329.645 37.0449 331.343 35.3483 331.343 33.2553C331.343 31.1623 329.645 29.4656 327.551 29.4656C325.456 29.4656 323.758 31.1623 323.758 33.2553C323.758 35.3483 325.456 37.0449 327.551 37.0449Z" fill="white"/>
<path d="M237.571 44.4849H227.335C227.272 44.4849 227.212 44.46 227.167 44.4157C227.123 44.3714 227.098 44.3114 227.098 44.2487C227.098 44.1861 227.123 44.126 227.167 44.0817C227.212 44.0374 227.272 44.0125 227.335 44.0125H237.571C237.634 44.0125 237.694 44.0374 237.738 44.0817C237.782 44.126 237.807 44.1861 237.807 44.2487C237.807 44.3114 237.782 44.3714 237.738 44.4157C237.694 44.46 237.634 44.4849 237.571 44.4849Z" fill="#292A2E"/>
<path d="M234.487 49.1438H227.335C227.272 49.1438 227.212 49.1189 227.167 49.0746C227.123 49.0303 227.098 48.9703 227.098 48.9076C227.098 48.845 227.123 48.7849 227.167 48.7406C227.212 48.6963 227.272 48.6714 227.335 48.6714H234.487C234.55 48.6714 234.61 48.6963 234.654 48.7406C234.699 48.7849 234.723 48.845 234.723 48.9076C234.723 48.9703 234.699 49.0303 234.654 49.0746C234.61 49.1189 234.55 49.1438 234.487 49.1438Z" fill="#292A2E"/>
<path d="M240.777 53.8027H227.335C227.272 53.8027 227.212 53.7778 227.167 53.7335C227.123 53.6893 227.098 53.6292 227.098 53.5665C227.098 53.5039 227.123 53.4438 227.167 53.3995C227.212 53.3552 227.272 53.3303 227.335 53.3303H240.777C240.84 53.3303 240.9 53.3552 240.944 53.3995C240.989 53.4438 241.014 53.5039 241.014 53.5665C241.014 53.6292 240.989 53.6893 240.944 53.7335C240.9 53.7778 240.84 53.8027 240.777 53.8027Z" fill="#292A2E"/>
<path d="M243.286 58.4616H232.062C232 58.4616 231.939 58.4368 231.895 58.3925C231.851 58.3482 231.826 58.2881 231.826 58.2254C231.826 58.1628 231.851 58.1027 231.895 58.0584C231.939 58.0141 232 57.9892 232.062 57.9892H243.286C243.348 57.9892 243.409 58.0141 243.453 58.0584C243.497 58.1027 243.522 58.1628 243.522 58.2254C243.522 58.2881 243.497 58.3482 243.453 58.3925C243.409 58.4368 243.348 58.4616 243.286 58.4616Z" fill="#292A2E"/>
<path d="M237.858 63.121H232.062C232 63.121 231.939 63.0961 231.895 63.0518C231.851 63.0075 231.826 62.9475 231.826 62.8848C231.826 62.8222 231.851 62.7621 231.895 62.7178C231.939 62.6735 232 62.6486 232.062 62.6486H237.858C237.921 62.6486 237.981 62.6735 238.025 62.7178C238.07 62.7621 238.095 62.8222 238.095 62.8848C238.095 62.9475 238.07 63.0075 238.025 63.0518C237.981 63.0961 237.921 63.121 237.858 63.121Z" fill="#292A2E"/>
<path d="M242.299 67.7799H232.062C232 67.7799 231.939 67.755 231.895 67.7107C231.851 67.6664 231.826 67.6063 231.826 67.5437C231.826 67.4811 231.851 67.421 231.895 67.3767C231.939 67.3324 232 67.3075 232.062 67.3075H242.299C242.361 67.3075 242.421 67.3324 242.466 67.3767C242.51 67.421 242.535 67.4811 242.535 67.5437C242.535 67.6063 242.51 67.6664 242.466 67.7107C242.421 67.755 242.361 67.7799 242.299 67.7799Z" fill="#292A2E"/>
<path d="M235.227 72.4388H227.335C227.272 72.4388 227.212 72.414 227.167 72.3697C227.123 72.3254 227.098 72.2653 227.098 72.2026C227.098 72.14 227.123 72.0799 227.167 72.0356C227.212 71.9913 227.272 71.9664 227.335 71.9664H235.227C235.29 71.9664 235.35 71.9913 235.395 72.0356C235.439 72.0799 235.464 72.14 235.464 72.2026C235.464 72.2653 235.439 72.3254 235.395 72.3697C235.35 72.414 235.29 72.4388 235.227 72.4388Z" fill="#292A2E"/>
<path d="M232.514 77.0973H227.335C227.272 77.0973 227.212 77.0724 227.167 77.0281C227.123 76.9838 227.098 76.9237 227.098 76.8611C227.098 76.7984 227.123 76.7383 227.167 76.694C227.212 76.6497 227.272 76.6248 227.335 76.6248H232.514C232.577 76.6248 232.637 76.6497 232.681 76.694C232.726 76.7383 232.751 76.7984 232.751 76.8611C232.751 76.9237 232.726 76.9838 232.681 77.0281C232.637 77.0724 232.577 77.0973 232.514 77.0973Z" fill="#292A2E"/>
<path d="M252.321 43.4853V43.5703L255.276 44.6663C255.318 44.6835 255.354 44.713 255.379 44.7508C255.404 44.7887 255.418 44.8333 255.417 44.8789V44.9592C255.418 44.9947 255.41 45.0298 255.393 45.0612C255.377 45.0926 255.353 45.1193 255.323 45.1387C255.293 45.1598 255.258 45.1731 255.222 45.1772C255.185 45.1813 255.148 45.1762 255.114 45.1623L251.777 43.8585C251.735 43.8419 251.7 43.8132 251.674 43.7762C251.649 43.7391 251.636 43.6954 251.635 43.6506V43.4097C251.635 43.3647 251.648 43.3207 251.674 43.2836C251.699 43.2464 251.735 43.2179 251.777 43.2018L255.114 41.8933C255.142 41.884 255.17 41.8792 255.199 41.8791C255.243 41.88 255.286 41.8931 255.323 41.9169C255.353 41.9373 255.377 41.9649 255.393 41.9971C255.41 42.0292 255.418 42.065 255.417 42.1011V42.1814C255.418 42.2265 255.405 42.2708 255.38 42.3081C255.354 42.3453 255.318 42.3737 255.276 42.3893L252.321 43.4853Z" fill="#FFFD54"/>
<path d="M258.178 40.9296L256.41 46.3386C256.395 46.3838 256.367 46.4232 256.329 46.4512C256.29 46.4792 256.244 46.4944 256.197 46.4945C256.163 46.4951 256.129 46.4872 256.098 46.4715C256.068 46.4559 256.042 46.4329 256.022 46.4048C256.001 46.3769 255.986 46.3444 255.98 46.31C255.973 46.2755 255.975 46.2401 255.985 46.2064L257.752 40.802C257.767 40.756 257.796 40.7158 257.835 40.687C257.874 40.6583 257.921 40.6423 257.97 40.6414C258.004 40.6413 258.038 40.6493 258.068 40.665C258.099 40.6806 258.125 40.7033 258.145 40.7311C258.166 40.7591 258.18 40.7917 258.186 40.8263C258.192 40.8608 258.189 40.8963 258.178 40.9296Z" fill="#FFFD54"/>
<path d="M262.52 43.4097V43.6506C262.52 43.695 262.508 43.7386 262.483 43.7757C262.459 43.8128 262.424 43.8416 262.383 43.8585L259.04 45.1623C259.007 45.1761 258.971 45.1811 258.935 45.177C258.9 45.1728 258.866 45.1597 258.837 45.1387C258.807 45.1195 258.782 45.093 258.764 45.0616C258.747 45.0303 258.738 44.995 258.738 44.9592V44.8789C258.737 44.8327 258.751 44.7875 258.777 44.7495C258.804 44.7115 258.841 44.6824 258.884 44.6663L261.839 43.5703V43.4853L258.884 42.3893C258.841 42.3749 258.803 42.3469 258.777 42.3095C258.75 42.2721 258.737 42.2272 258.738 42.1814V42.1011C258.738 42.0646 258.747 42.0288 258.764 41.9966C258.782 41.9645 258.806 41.9371 258.837 41.9169C258.874 41.8932 258.916 41.8801 258.96 41.8791C258.987 41.8788 259.015 41.8836 259.04 41.8933L262.383 43.2018C262.424 43.2182 262.459 43.247 262.484 43.2842C262.509 43.3214 262.521 43.3652 262.52 43.4097Z" fill="#FFFD54"/>
<path d="M195.678 0H29.1579V166.395H195.678V0Z" fill="#F4F4F4"/>
<path d="M29.1579 0H27.2493V166.395H29.1579V0Z" fill="#F4F4F4"/>
<path opacity="0.05" d="M29.1579 0H27.2493V166.395H29.1579V0Z" fill="#292A2E"/>
<path opacity="0.05" d="M69.4981 114.66V71.1251H105.186V96.4179H160.467V141.201H183.962V166.395H160.467H155.941H37.1684V114.66H69.4981Z" fill="#292A2E"/>
<path opacity="0.34" d="M100.605 75.852H74.6168V80.5789H100.605V75.852Z" fill="#FFFFFA"/>
<path opacity="0.34" d="M100.605 85.6469H74.6168V90.3739H100.605V85.6469Z" fill="#FFFFFA"/>
<path opacity="0.34" d="M100.605 95.4419H74.6168V100.169H100.605V95.4419Z" fill="#FFFFFA"/>
<path opacity="0.34" d="M46.5666 119.248H41.7765V123.974H46.5666V119.248Z" fill="#FFFFFA"/>
<path opacity="0.34" d="M46.5666 129.043H41.7765V133.769H46.5666V129.043Z" fill="#FFFFFA"/>
<path opacity="0.34" d="M46.5666 138.838H41.7765V143.565H46.5666V138.838Z" fill="#FFFFFA"/>
<path opacity="0.34" d="M55.4281 119.248H50.638V123.974H55.4281V119.248Z" fill="#FFFFFA"/>
<path opacity="0.34" d="M55.4281 129.043H50.638V133.769H55.4281V129.043Z" fill="#FFFFFA"/>
<path opacity="0.34" d="M55.4281 138.838H50.638V143.565H55.4281V138.838Z" fill="#FFFFFA"/>
<path opacity="0.34" d="M64.0504 119.248H59.2603V123.974H64.0504V119.248Z" fill="#FFFFFA"/>
<path opacity="0.34" d="M64.0504 129.043H59.2603V133.769H64.0504V129.043Z" fill="#FFFFFA"/>
<path opacity="0.34" d="M64.0504 138.838H59.2603V143.565H64.0504V138.838Z" fill="#FFFFFA"/>
<path d="M29.1579 82.264H62.6647V0H65.4356V82.264H155.941V0H158.712V82.264H195.678V85.0328H158.712V166.395H155.941V85.0328H65.4356V166.395H62.6647V85.0328H29.1579V82.264Z" fill="white"/>
<path d="M202.312 166.194H22.5245V171.728H202.312V166.194Z" fill="#F4F4F4"/>
<path opacity="0.1" d="M202.312 166.194H22.5245V171.728H202.312V166.194Z" fill="#292A2E"/>
<path opacity="0.1" d="M22.5245 166.194H19.9285V171.728H22.5245V166.194Z" fill="#292A2E"/>
<path opacity="0.1" d="M22.5245 166.194H19.9285V171.728H22.5245V166.194Z" fill="#292A2E"/>
<path d="M27.2493 7.08426L195.678 7.08426V2.97004L27.2493 2.97004V7.08426Z" fill="white"/>
<path d="M27.2493 14.7694L195.678 14.7694V10.6552L27.2493 10.6552V14.7694Z" fill="white"/>
<path d="M27.2493 22.4541L195.678 22.4541V18.3399L27.2493 18.3399V22.4541Z" fill="white"/>
<path d="M27.2493 30.1388L195.678 30.1388V26.0246L27.2493 26.0246V30.1388Z" fill="white"/>
<path d="M27.2493 37.823L195.678 37.823V33.7088L27.2493 33.7088V37.823Z" fill="white"/>
<path d="M45.1383 42.4635H47.6624L47.6624 7.62939e-06H45.1383L45.1383 42.4635Z" fill="white"/>
<path d="M46.1865 48.5618C48.1016 48.5618 49.6542 47.0105 49.6542 45.0967C49.6542 43.183 48.1016 41.6316 46.1865 41.6316C44.2713 41.6316 42.7187 43.183 42.7187 45.0967C42.7187 47.0105 44.2713 48.5618 46.1865 48.5618Z" fill="white"/>
<path d="M28.7196 397.682L27.7911 397.503L42.3032 253.404L43.2317 253.582L28.7196 397.682Z" fill="#494949"/>
<path d="M82.7559 397.682L81.8274 397.503L96.339 253.404L97.2675 253.582L82.7559 397.682Z" fill="#494949"/>
<path d="M202.199 397.682L203.128 397.503L188.616 253.404L187.687 253.582L202.199 397.682Z" fill="#494949"/>
<path d="M148.163 397.682L149.092 397.503L134.58 253.404L133.652 253.582L148.163 397.682Z" fill="#494949"/>
<path d="M128.918 189.985L127.981 190.11L136.459 253.557L137.396 253.432L128.918 189.985Z" fill="#494949"/>
<path d="M31.6113 189.984L30.6741 190.11L39.1517 253.556L40.0889 253.431L31.6113 189.984Z" fill="#494949"/>
<path d="M137.314 248.847H42.1367C39.5688 248.847 37.4871 250.927 37.4871 253.493V253.494C37.4871 256.06 39.5688 258.14 42.1367 258.14H137.314C139.882 258.14 141.964 256.06 141.964 253.494V253.493C141.964 250.927 139.882 248.847 137.314 248.847Z" fill="#292A2E"/>
<path opacity="0.8" d="M137.314 248.847H42.1367C39.5688 248.847 37.4871 250.927 37.4871 253.493V253.494C37.4871 256.06 39.5688 258.14 42.1367 258.14H137.314C139.882 258.14 141.964 256.06 141.964 253.494V253.493C141.964 250.927 139.882 248.847 137.314 248.847Z" fill="white"/>
<path d="M137.314 258.612H42.1372C41.4645 258.612 40.7984 258.479 40.177 258.222C39.5555 257.965 38.9908 257.588 38.5151 257.113C38.0395 256.637 37.6621 256.073 37.4047 255.452C37.1473 254.831 37.0148 254.165 37.0148 253.493C37.0148 252.821 37.1473 252.155 37.4047 251.534C37.6621 250.913 38.0395 250.349 38.5151 249.874C38.9908 249.399 39.5555 249.021 40.177 248.764C40.7984 248.507 41.4645 248.375 42.1372 248.375H137.314C137.987 248.375 138.653 248.507 139.274 248.764C139.896 249.021 140.461 249.399 140.936 249.874C141.412 250.349 141.789 250.913 142.047 251.534C142.304 252.155 142.437 252.821 142.437 253.493C142.437 254.165 142.304 254.831 142.047 255.452C141.789 256.073 141.412 256.637 140.936 257.113C140.461 257.588 139.896 257.965 139.274 258.222C138.653 258.479 137.987 258.612 137.314 258.612ZM42.1372 249.319C41.5887 249.319 41.0456 249.427 40.5388 249.637C40.032 249.847 39.5716 250.154 39.1837 250.542C38.7959 250.929 38.4882 251.39 38.2783 251.896C38.0684 252.402 37.9603 252.945 37.9603 253.493C37.9603 254.041 38.0684 254.584 38.2783 255.09C38.4882 255.597 38.7959 256.057 39.1837 256.444C39.5716 256.832 40.032 257.139 40.5388 257.349C41.0456 257.559 41.5887 257.667 42.1372 257.667H137.314C137.863 257.667 138.406 257.559 138.913 257.349C139.419 257.139 139.88 256.832 140.268 256.444C140.655 256.057 140.963 255.597 141.173 255.09C141.383 254.584 141.491 254.041 141.491 253.493C141.491 252.945 141.383 252.402 141.173 251.896C140.963 251.39 140.655 250.929 140.268 250.542C139.88 250.154 139.419 249.847 138.913 249.637C138.406 249.427 137.863 249.319 137.314 249.319H42.1372Z" fill="#292A2E"/>
<path d="M189.553 248.847H94.3756C91.8076 248.847 89.7259 250.927 89.7259 253.493V253.494C89.7259 256.06 91.8076 258.14 94.3756 258.14H189.553C192.121 258.14 194.203 256.06 194.203 253.494V253.493C194.203 250.927 192.121 248.847 189.553 248.847Z" fill="white"/>
<path d="M189.553 258.612H94.3756C93.7029 258.612 93.0368 258.479 92.4153 258.222C91.7938 257.965 91.2291 257.588 90.7535 257.113C90.2778 256.637 89.9005 256.073 89.6431 255.452C89.3856 254.831 89.2531 254.165 89.2531 253.493C89.2531 252.821 89.3856 252.155 89.6431 251.534C89.9005 250.913 90.2778 250.349 90.7535 249.874C91.2291 249.399 91.7938 249.021 92.4153 248.764C93.0368 248.507 93.7029 248.375 94.3756 248.375H189.553C190.226 248.375 190.892 248.507 191.513 248.764C192.135 249.021 192.699 249.399 193.175 249.874C193.651 250.349 194.028 250.913 194.285 251.534C194.543 252.155 194.675 252.821 194.675 253.493C194.675 254.165 194.543 254.831 194.285 255.452C194.028 256.073 193.651 256.637 193.175 257.113C192.699 257.588 192.135 257.965 191.513 258.222C190.892 258.479 190.226 258.612 189.553 258.612ZM94.3756 249.319C93.827 249.319 93.2839 249.427 92.7771 249.637C92.2704 249.847 91.8099 250.154 91.4221 250.542C91.0342 250.929 90.7265 251.39 90.5166 251.896C90.3067 252.402 90.1987 252.945 90.1987 253.493C90.1987 254.041 90.3067 254.584 90.5166 255.09C90.7265 255.597 91.0342 256.057 91.4221 256.444C91.8099 256.832 92.2704 257.139 92.7771 257.349C93.2839 257.559 93.827 257.667 94.3756 257.667H189.553C190.101 257.667 190.645 257.559 191.151 257.349C191.658 257.139 192.119 256.832 192.506 256.444C192.894 256.057 193.202 255.597 193.412 255.09C193.622 254.584 193.73 254.041 193.73 253.493C193.73 252.945 193.622 252.402 193.412 251.896C193.202 251.39 192.894 250.929 192.506 250.542C192.119 250.154 191.658 249.847 191.151 249.637C190.645 249.427 190.101 249.319 189.553 249.319H94.3756Z" fill="#292A2E"/>
<path d="M123.704 190.047H31.3979C29.8887 190.047 28.431 189.498 27.2971 188.503C26.1631 187.507 25.4303 186.134 25.2353 184.638L19.1296 137.785C19.0155 136.91 19.0896 136.019 19.3472 135.174C19.6047 134.329 20.0397 133.549 20.623 132.886C21.2064 132.222 21.9247 131.69 22.73 131.326C23.5353 130.962 24.4091 130.774 25.293 130.774H117.598C119.108 130.774 120.565 131.323 121.699 132.318C122.833 133.313 123.566 134.686 123.761 136.182L129.866 183.035C129.98 183.911 129.906 184.801 129.649 185.646C129.391 186.491 128.957 187.271 128.373 187.935C127.79 188.598 127.072 189.13 126.267 189.494C125.462 189.858 124.588 190.047 123.704 190.047Z" fill="#292A2E"/>
<path opacity="0.8" d="M123.704 190.047H31.3979C29.8887 190.047 28.431 189.498 27.2971 188.503C26.1631 187.507 25.4303 186.134 25.2353 184.638L19.1296 137.785C19.0155 136.91 19.0896 136.019 19.3472 135.174C19.6047 134.329 20.0397 133.549 20.623 132.886C21.2064 132.222 21.9247 131.69 22.73 131.326C23.5353 130.962 24.4091 130.774 25.293 130.774H117.598C119.108 130.774 120.565 131.323 121.699 132.318C122.833 133.313 123.566 134.686 123.761 136.182L129.866 183.035C129.98 183.911 129.906 184.801 129.649 185.646C129.391 186.491 128.957 187.271 128.373 187.935C127.79 188.598 127.072 189.13 126.267 189.494C125.462 189.858 124.588 190.047 123.704 190.047Z" fill="white"/>
<path d="M123.704 190.519H31.3979C29.7748 190.515 28.2082 189.924 26.9887 188.853C25.7692 187.783 24.9796 186.307 24.7664 184.699L18.661 137.846C18.5381 136.904 18.6178 135.946 18.8949 135.037C19.1719 134.127 19.6399 133.288 20.2676 132.573C20.8953 131.859 21.6683 131.287 22.5349 130.895C23.4015 130.503 24.3418 130.301 25.293 130.301H117.598C119.221 130.305 120.788 130.896 122.007 131.967C123.227 133.037 124.016 134.513 124.229 136.121L130.335 182.974C130.458 183.917 130.378 184.874 130.101 185.784C129.824 186.693 129.356 187.532 128.729 188.246C128.101 188.96 127.328 189.533 126.462 189.924C125.595 190.316 124.655 190.519 123.704 190.519ZM25.293 131.246C24.4764 131.246 23.6692 131.42 22.9253 131.756C22.1814 132.093 21.5178 132.584 20.979 133.197C20.4401 133.81 20.0383 134.531 19.8005 135.312C19.5626 136.092 19.4941 136.915 19.5995 137.724L25.7053 184.578C25.8882 185.958 26.5661 187.225 27.6131 188.144C28.6601 189.063 30.0053 189.571 31.3988 189.574H123.704C124.521 189.574 125.328 189.4 126.071 189.063C126.815 188.727 127.479 188.235 128.017 187.622C128.556 187.009 128.958 186.288 129.195 185.508C129.433 184.727 129.502 183.905 129.396 183.096L123.292 136.243C123.109 134.863 122.431 133.595 121.384 132.676C120.337 131.758 118.992 131.249 117.598 131.246L25.293 131.246Z" fill="#292A2E"/>
<path d="M128.923 190.047H36.6172C35.1081 190.047 33.6505 189.498 32.5166 188.503C31.3827 187.507 30.65 186.134 30.4552 184.639L24.3475 137.785C24.2334 136.91 24.3076 136.02 24.565 135.175C24.8225 134.33 25.2574 133.55 25.8406 132.886C26.4239 132.222 27.1421 131.691 27.9473 131.326C28.7525 130.962 29.6262 130.774 30.51 130.774H122.818C124.327 130.774 125.785 131.323 126.919 132.318C128.053 133.313 128.785 134.686 128.98 136.182L135.086 183.035C135.2 183.911 135.126 184.801 134.868 185.646C134.611 186.491 134.176 187.271 133.593 187.935C133.01 188.598 132.291 189.13 131.486 189.494C130.681 189.858 129.807 190.047 128.923 190.047Z" fill="white"/>
<path d="M128.923 190.519H36.6172C34.9942 190.515 33.4277 189.924 32.2082 188.853C30.9888 187.783 30.1993 186.307 29.9862 184.699L23.8804 137.846C23.7576 136.904 23.8374 135.946 24.1145 135.037C24.3916 134.128 24.8596 133.288 25.4872 132.574C26.1148 131.86 26.8877 131.288 27.7541 130.896C28.6206 130.504 29.5608 130.301 30.5119 130.301H122.818C124.441 130.305 126.007 130.897 127.227 131.967C128.446 133.037 129.236 134.513 129.449 136.121L135.555 182.974C135.678 183.917 135.598 184.874 135.321 185.783C135.044 186.693 134.576 187.532 133.948 188.246C133.32 188.96 132.548 189.532 131.681 189.924C130.815 190.316 129.875 190.519 128.923 190.519ZM30.5119 131.246C29.6954 131.246 28.8884 131.421 28.1447 131.757C27.401 132.094 26.7377 132.585 26.1991 133.198C25.6605 133.811 25.2589 134.532 25.0211 135.313C24.7833 136.093 24.7149 136.915 24.8203 137.724L30.9237 184.578C31.1068 185.958 31.7847 187.225 32.8317 188.144C33.8787 189.063 35.2237 189.571 36.6172 189.574H128.923C129.74 189.574 130.547 189.4 131.291 189.064C132.035 188.727 132.699 188.236 133.238 187.623C133.776 187.01 134.178 186.289 134.416 185.508C134.654 184.728 134.722 183.905 134.617 183.096L128.511 136.243C128.328 134.863 127.65 133.595 126.603 132.676C125.556 131.757 124.211 131.249 122.818 131.246L30.5119 131.246Z" fill="#292A2E"/>
<path d="M200.676 200.744L199.735 200.839L219.666 397.999L220.606 397.904L200.676 200.744Z" fill="#494949"/>
<path d="M118.976 58.8448C118.976 58.8448 125.11 54.2184 126.63 43.5694C127.806 35.3244 120.195 40.666 120.195 40.666C120.195 40.666 120.984 34.7207 116.649 35.3107C112.314 35.9008 109.888 42.146 109.888 42.146" fill="#0C0C0C"/>
<path d="M94.2451 36.0066C94.2451 36.0066 72.7366 38.3124 80.5122 67.4336L82.4155 67.5612L86.279 67.8201" fill="#0C0C0C"/>
<path d="M115.373 97.8483C115.279 97.836 114.229 115.233 94.0016 113.718C79.9982 112.67 75.0054 97.8238 74.6844 97.8238C76.1944 97.5035 78.0599 97.0164 78.8017 96.8496C80.4177 96.4748 81.8812 95.6171 82.9975 94.3908C84.1138 93.1645 84.8299 91.6276 85.0507 89.9846C85.4606 87.5186 84.767 74.9015 84.9793 72.4062L106.475 77.2002C106.174 82.4704 104.072 94.6874 111.439 96.8496C112.666 97.2073 113.987 97.5361 115.373 97.8483Z" fill="#E98862"/>
<path opacity="0.52" d="M106.777 91.8568C106.44 90.7724 106.223 89.6545 106.13 88.523C105.894 85.941 105.942 83.3409 106.272 80.7693C101.903 80.1802 97.7869 78.3784 94.3916 75.5685C93.9926 77.0415 91.7976 83.4776 92.406 84.8774C93.5525 87.5238 98.9501 91.8568 106.777 91.8568Z" fill="#0C0C0C"/>
<path d="M102.34 88.4134C93.8597 87.6532 83.7099 82.2994 83.5638 70.7967L83.4315 60.4179C83.2854 48.9156 89.2125 39.5142 100.051 39.3763C110.889 39.2388 119.109 48.4602 119.255 59.9629L119.314 64.5576C119.306 66.1356 119.191 67.7113 118.969 69.2737C118.413 73.4073 117.551 79.6917 114.744 83.9429C112.093 87.9565 107.758 88.8985 102.34 88.4134Z" fill="#E98862"/>
<path d="M106.275 77.9003C108.025 77.9796 109.769 77.6467 111.366 76.9286C111.399 76.9145 111.429 76.8941 111.454 76.8684C111.48 76.8428 111.499 76.8125 111.513 76.7792C111.526 76.7459 111.533 76.7103 111.532 76.6744C111.532 76.6385 111.525 76.603 111.511 76.57C111.496 76.537 111.476 76.5071 111.45 76.482C111.425 76.4569 111.394 76.4371 111.361 76.4237C111.328 76.4104 111.292 76.4037 111.256 76.404C111.22 76.4044 111.185 76.4119 111.152 76.426C107.71 77.8928 104.584 77.6778 102.114 75.8047C102.064 75.7652 102.012 75.7284 101.958 75.6947C101.896 75.6659 101.826 75.6614 101.76 75.6821C101.695 75.7028 101.64 75.7472 101.606 75.8065C101.572 75.8658 101.561 75.9357 101.576 76.0024C101.591 76.0692 101.63 76.1279 101.686 76.1671C101.706 76.1794 101.738 76.2044 101.781 76.2389C103.08 77.2273 104.645 77.8058 106.275 77.9003Z" fill="#0C0C0C"/>
<path d="M106.193 80.4906C106.509 80.51 106.826 80.5025 107.141 80.4679C107.213 80.4602 107.279 80.4243 107.325 80.368C107.371 80.3116 107.392 80.2395 107.384 80.1674C107.377 80.0954 107.341 80.0293 107.284 79.9838C107.228 79.9383 107.156 79.917 107.084 79.9246C105.189 80.1259 104.285 79.2585 104.247 79.2212C104.196 79.1699 104.126 79.141 104.054 79.1409C103.981 79.1408 103.912 79.1695 103.86 79.2207C103.809 79.2719 103.78 79.3414 103.78 79.4138C103.78 79.4863 103.809 79.5558 103.86 79.6072C104.512 80.1621 105.336 80.4743 106.193 80.4906Z" fill="#0C0C0C"/>
<path d="M115.676 66.7694C116.413 66.7694 117.011 66.1721 117.011 65.4353C117.011 64.6985 116.413 64.1013 115.676 64.1013C114.939 64.1013 114.341 64.6985 114.341 65.4353C114.341 66.1721 114.939 66.7694 115.676 66.7694Z" fill="#0C0C0C"/>
<path d="M102.633 65.9517C103.371 65.9517 103.968 65.3544 103.968 64.6176C103.968 63.8808 103.371 63.2835 102.633 63.2835C101.896 63.2835 101.298 63.8808 101.298 64.6176C101.298 65.3544 101.896 65.9517 102.633 65.9517Z" fill="#0C0C0C"/>
<path d="M84.2815 74.2926C80.9877 74.3346 78.2731 70.8473 78.2301 67.556C78.1871 64.2647 80.835 62.4157 84.1288 62.3741L85.8539 64.5576L87.1124 74.2567L84.2815 74.2926Z" fill="#E98862"/>
<path d="M87.5564 69.0039C87.5564 69.0039 88.6688 52.728 93.6078 51.7227C96.8973 51.0533 104.874 55.716 112.263 54.3077C115.495 53.6936 118.564 54.491 118.876 56.0169C119 56.6211 121.014 47.9387 115.952 41.3514C111.921 36.1053 98.7321 34.6243 92.7317 36.3439C76.1173 41.1067 83.449 63.0903 83.449 63.0903L84.1898 68.7016L87.5564 69.0039Z" fill="#0C0C0C"/>
<path d="M108.264 74.0583H108.285C109.346 74.0474 111.125 73.9113 111.118 73.1177C111.111 72.4601 109.239 65.382 109.025 64.577C109.004 64.5102 108.959 64.4538 108.897 64.4199C108.836 64.3859 108.764 64.3769 108.697 64.3949C108.629 64.4128 108.571 64.4562 108.535 64.5159C108.499 64.5757 108.487 64.6472 108.502 64.7154C109.334 67.8503 110.573 72.6765 110.578 73.1243C110.475 73.3133 109.379 73.5079 108.28 73.5192C108.21 73.5207 108.144 73.5487 108.095 73.5975C108.046 73.6463 108.017 73.7121 108.015 73.7814C108.013 73.8506 108.038 73.918 108.084 73.9696C108.13 74.0212 108.194 74.0531 108.264 74.0587V74.0583Z" fill="#0C0C0C"/>
<path d="M111.887 58.2009C113.002 57.8941 114.18 57.8941 115.295 58.2009C115.843 58.348 116.366 58.5767 116.846 58.8793C117.321 59.1754 117.756 59.5303 118.141 59.9356C118.215 60.0071 118.258 60.1046 118.261 60.2073C118.263 60.31 118.226 60.4097 118.156 60.4851C118.086 60.5604 117.989 60.6054 117.887 60.6104C117.784 60.6155 117.683 60.5801 117.606 60.5119L117.582 60.4911C117.225 60.161 116.828 59.8771 116.4 59.646C115.98 59.4162 115.528 59.2512 115.059 59.1566C114.135 58.963 113.177 59.0166 112.281 59.312L112.243 59.3252C112.095 59.3775 111.932 59.3689 111.791 59.3013C111.649 59.2337 111.54 59.1128 111.488 58.965C111.436 58.8172 111.444 58.6547 111.512 58.5133C111.58 58.3718 111.701 58.263 111.849 58.2108L111.887 58.2009Z" fill="#0C0C0C"/>
<path d="M103.988 58.8712C103.139 58.459 102.196 58.2783 101.255 58.3473C100.778 58.3783 100.307 58.4816 99.8606 58.6534C99.4064 58.8258 98.9757 59.0543 98.5784 59.3337L98.5529 59.3507C98.4676 59.4053 98.3646 59.425 98.2652 59.4057C98.1657 59.3864 98.0776 59.3295 98.019 59.2469C97.9605 59.1643 97.936 59.0623 97.9507 58.9622C97.9655 58.8621 98.0183 58.7714 98.0981 58.7092C98.5342 58.3588 99.0128 58.0648 99.5226 57.8343C100.039 57.5988 100.587 57.4417 101.15 57.3685C102.296 57.2123 103.464 57.3686 104.529 57.8211C104.673 57.8837 104.786 58.001 104.844 58.1472C104.902 58.2934 104.899 58.4564 104.836 58.6005C104.773 58.7446 104.656 58.8579 104.51 58.9155C104.363 58.9731 104.2 58.9702 104.056 58.9076L104.023 58.892L103.988 58.8712Z" fill="#0C0C0C"/>
<path d="M110.299 46.9972C112.737 46.4882 114.106 43.1689 113.356 39.5832C112.606 35.9975 110.022 33.5033 107.584 34.0123C105.146 34.5213 103.778 37.8407 104.527 41.4264C105.277 45.0121 107.861 47.5062 110.299 46.9972Z" fill="#0C0C0C"/>
<path d="M246.274 373.08C246.274 373.08 248.809 386.21 261.111 386.942C273.414 387.674 270.746 397.467 270.746 397.467H223.733V373.996L246.274 373.08Z" fill="#FFFD54"/>
<path d="M156.832 364.791C156.832 364.791 153.307 377.69 164.023 383.773C174.739 389.856 168.019 397.467 168.019 397.467L125.833 376.728L136.201 355.667L156.832 364.791Z" fill="#FFFD54"/>
<path d="M130.704 361.147L166.279 249.001H101.794C88.8399 249.001 83.44 238.025 83.44 225.082C83.44 212.139 96.1744 200.793 109.127 200.793H196.159C204.059 200.793 212.918 205.621 217.254 212.22C221.59 218.82 220.418 229.046 217.276 236.29L160.308 374.548" fill="#262626"/>
<path opacity="0.8" d="M130.704 361.147L166.279 249.001H101.794C88.8399 249.001 83.44 238.025 83.44 225.082C83.44 212.139 96.1744 200.793 109.127 200.793H196.159C204.059 200.793 212.918 205.621 217.254 212.22C221.59 218.82 220.418 229.046 217.276 236.29L160.308 374.548" fill="#0A0A0A"/>
<path d="M221.029 385.274L161.544 249.002L83.439 248.996C65.1378 247.563 56.7561 237.54 57.0227 224.6C57.2856 211.824 63.7597 199.204 76.488 199.204H181.76C191.177 199.398 198.587 209.797 202.08 218.538L251.532 376.931" fill="#262626"/>
<path d="M51.6956 199.361C51.6956 199.361 48.2269 221.964 53.7252 234.53C60.5893 250.219 86.321 248.996 86.321 248.996L84.8711 199.204L51.6956 199.361Z" fill="#262626"/>
<path d="M204.318 198.916L149.147 187.492C146.848 187.016 144.706 185.969 142.92 184.446C141.133 182.924 139.76 180.975 138.927 178.782L117.227 121.643C116.566 119.928 116.251 118.099 116.3 116.262C116.348 114.426 116.759 112.616 117.51 110.939C118.26 109.261 119.335 107.748 120.672 106.487C122.009 105.225 123.583 104.24 125.302 103.588C127.021 102.936 128.853 102.63 130.691 102.687C132.529 102.745 134.337 103.164 136.013 103.922C137.688 104.68 139.197 105.761 140.453 107.103C141.709 108.446 142.687 110.023 143.331 111.744L162.314 161.725L209.985 171.595C209.985 171.595 205.275 199.114 204.318 198.916Z" fill="#FFFD54"/>
<path d="M140.506 136.153C139.869 143.632 135.353 190.296 134.738 199.509H51.732C51.255 191.199 49.7067 155.921 47.8979 139.673C46.1718 124.167 45.5454 115.319 47.5338 110.501C51.0408 102.002 59.8168 98.9443 67.3763 97.9215C71.992 97.2975 78.9345 96.8496 78.9345 96.8496C78.9345 96.8496 79.5226 108.732 93.5392 109.394C112.62 110.291 111.346 96.8496 111.44 96.8496C114.531 96.8496 131.357 99.096 135.564 101.836C141.507 105.706 143.262 110.98 143.332 115.826C143.412 121.406 141.229 127.67 140.506 136.153Z" fill="#FFFD54"/>
<path d="M137.244 174.282H137.224C137.193 174.279 137.163 174.271 137.136 174.256C137.108 174.242 137.083 174.223 137.063 174.199C137.043 174.175 137.028 174.148 137.019 174.118C137.009 174.089 137.006 174.058 137.008 174.027L139.163 148.16C139.165 148.129 139.173 148.099 139.187 148.071C139.201 148.043 139.22 148.018 139.244 147.998C139.268 147.978 139.296 147.962 139.326 147.953C139.355 147.944 139.387 147.941 139.418 147.945C139.449 147.947 139.479 147.956 139.507 147.97C139.534 147.984 139.559 148.004 139.579 148.027C139.599 148.051 139.614 148.078 139.624 148.108C139.633 148.138 139.637 148.169 139.634 148.2L137.479 174.066C137.474 174.125 137.447 174.18 137.404 174.22C137.36 174.259 137.303 174.282 137.244 174.282Z" fill="#0C0C0C"/>
<path d="M176.776 189.806L194.989 133.862C195.309 132.878 195.933 132.022 196.77 131.414C197.607 130.807 198.615 130.48 199.649 130.48H278.579C279.352 130.48 280.115 130.662 280.804 131.013C281.493 131.364 282.089 131.873 282.544 132.499C282.998 133.124 283.298 133.848 283.419 134.612C283.54 135.375 283.478 136.156 283.239 136.891L260.298 192.838C259.978 193.821 259.355 194.677 258.518 195.285C257.681 195.892 256.673 196.22 255.638 196.22H181.437C180.663 196.22 179.9 196.037 179.211 195.686C178.521 195.335 177.925 194.826 177.47 194.2C177.016 193.574 176.716 192.85 176.595 192.086C176.475 191.323 176.537 190.541 176.776 189.806Z" fill="#292A2E"/>
<path d="M176.776 189.806L194.989 133.862C195.309 132.878 195.933 132.022 196.77 131.414C197.607 130.807 198.615 130.48 199.649 130.48H278.579C279.352 130.48 280.115 130.662 280.804 131.013C281.493 131.364 282.089 131.873 282.544 132.499C282.998 133.124 283.298 133.848 283.419 134.612C283.54 135.375 283.478 136.156 283.239 136.891L260.298 192.838C259.978 193.821 259.355 194.677 258.518 195.285C257.681 195.892 256.673 196.22 255.638 196.22H181.437C180.663 196.22 179.9 196.037 179.211 195.686C178.521 195.335 177.925 194.826 177.47 194.2C177.016 193.574 176.716 192.85 176.595 192.086C176.475 191.323 176.537 190.541 176.776 189.806Z" fill="#292A2E"/>
<path d="M191.634 191.681H141.963C140.725 191.681 139.722 192.684 139.722 193.92V193.978C139.722 195.215 140.725 196.217 141.963 196.217H191.634C192.871 196.217 193.875 195.215 193.875 193.978V193.92C193.875 192.684 192.871 191.681 191.634 191.681Z" fill="#292A2E"/>
<path d="M191.634 191.681H141.963C140.725 191.681 139.722 192.684 139.722 193.92V193.978C139.722 195.215 140.725 196.217 141.963 196.217H191.634C192.871 196.217 193.875 195.215 193.875 193.978V193.92C193.875 192.684 192.871 191.681 191.634 191.681Z" fill="#292A2E"/>
<path d="M227.644 173.854C231.942 173.854 235.426 170.373 235.426 166.078C235.426 161.783 231.942 158.302 227.644 158.302C223.346 158.302 219.862 161.783 219.862 166.078C219.862 170.373 223.346 173.854 227.644 173.854Z" fill="white"/>
<path d="M172.625 176.701L160.228 172.359L162.008 172.236C162.581 172.185 163.114 171.918 163.499 171.49C163.883 171.061 164.09 170.503 164.078 169.927C164.062 169.63 163.985 169.34 163.853 169.074C163.72 168.808 163.535 168.572 163.308 168.38C163.081 168.187 162.818 168.043 162.533 167.956C162.249 167.869 161.95 167.841 161.654 167.874L139.722 170.203L140.289 177.245C140.466 179.433 141.293 181.517 142.663 183.232C144.034 184.947 145.886 186.214 147.981 186.87L157.479 189.826C157.97 189.99 158.501 189.979 158.985 189.795C159.468 189.611 159.873 189.267 160.131 188.819C160.355 188.41 160.443 187.94 160.381 187.477C160.319 187.015 160.111 186.584 159.787 186.248C159.808 186.234 159.825 186.215 159.839 186.193C159.852 186.171 159.861 186.146 159.864 186.121C159.868 186.095 159.866 186.069 159.86 186.044C159.853 186.02 159.841 185.996 159.825 185.976L161.574 186.525C162.12 186.708 162.715 186.677 163.239 186.439C163.764 186.2 164.178 185.772 164.398 185.24C164.577 184.758 164.581 184.227 164.408 183.742C164.235 183.257 163.897 182.849 163.452 182.589C163.473 182.578 163.491 182.563 163.506 182.546L164.225 182.771C164.716 182.934 165.248 182.923 165.731 182.739C166.214 182.556 166.619 182.211 166.877 181.763C167.149 181.267 167.218 180.685 167.07 180.139C166.922 179.593 166.568 179.125 166.083 178.834C166.087 178.82 166.089 178.805 166.09 178.79L171.252 180.597C171.509 180.69 171.781 180.731 172.054 180.718C172.327 180.705 172.594 180.638 172.841 180.521C173.087 180.404 173.308 180.24 173.49 180.037C173.673 179.834 173.813 179.597 173.904 179.34C173.994 179.082 174.032 178.809 174.016 178.537C174.001 178.265 173.931 177.998 173.811 177.753C173.692 177.508 173.525 177.289 173.32 177.109C173.115 176.928 172.876 176.791 172.618 176.703L172.625 176.701Z" fill="#E98862"/>
<path opacity="0.2" d="M165.894 178.989C165.87 178.989 165.846 178.985 165.823 178.977L160.83 177.163C160.779 177.144 160.737 177.105 160.714 177.056C160.691 177.006 160.689 176.95 160.708 176.899C160.726 176.847 160.765 176.806 160.814 176.783C160.864 176.76 160.921 176.757 160.972 176.776L165.966 178.591C166.011 178.607 166.049 178.639 166.074 178.681C166.098 178.723 166.107 178.772 166.098 178.82C166.09 178.867 166.065 178.91 166.028 178.941C165.991 178.973 165.944 178.989 165.895 178.989H165.894Z" fill="#0A0A0A"/>
<path opacity="0.2" d="M163.369 182.617C163.345 182.617 163.322 182.613 163.3 182.605L159.364 181.21C159.338 181.201 159.314 181.188 159.293 181.17C159.272 181.152 159.256 181.13 159.244 181.105C159.231 181.081 159.224 181.054 159.223 181.026C159.221 180.999 159.225 180.972 159.234 180.946C159.243 180.92 159.258 180.896 159.276 180.876C159.294 180.856 159.317 180.84 159.342 180.828C159.366 180.816 159.393 180.81 159.421 180.809C159.448 180.808 159.475 180.813 159.501 180.822L163.437 182.218C163.483 182.234 163.522 182.266 163.546 182.308C163.571 182.349 163.58 182.399 163.571 182.446C163.563 182.494 163.538 182.537 163.501 182.569C163.464 182.6 163.417 182.617 163.369 182.617Z" fill="#0A0A0A"/>
<path opacity="0.2" d="M159.662 186.299C159.637 186.298 159.612 186.294 159.589 186.285L157.745 185.582C157.694 185.563 157.653 185.524 157.631 185.474C157.609 185.424 157.607 185.368 157.627 185.317C157.646 185.266 157.685 185.225 157.735 185.203C157.785 185.18 157.841 185.179 157.892 185.198L159.736 185.901C159.781 185.918 159.819 185.95 159.843 185.992C159.866 186.034 159.874 186.083 159.866 186.13C159.857 186.178 159.832 186.22 159.795 186.251C159.758 186.282 159.711 186.299 159.663 186.299H159.662Z" fill="#0A0A0A"/>
<path d="M149.429 166.035L97.4249 166L77.7512 118.044L48.4028 130.374L72.9479 187.29L73.1876 187.857C74.3885 190.623 76.4113 192.954 78.982 194.533C81.5528 196.113 84.5472 196.864 87.5597 196.686L150.215 192.988L149.429 166.035Z" fill="#FFFD54"/>
<path d="M86.6988 196.948C83.7833 196.943 80.9325 196.089 78.4948 194.491C76.057 192.893 74.1379 190.62 72.972 187.95L72.7318 187.383L51.8152 138.888L52.2492 138.699L73.4055 187.764C74.5927 190.482 76.5842 192.771 79.1121 194.324C81.6401 195.877 84.5833 196.619 87.546 196.451L149.971 192.766L149.198 166.272L97.2656 166.237L82.137 129.364L82.5748 129.185L97.5819 165.764L149.657 165.8L150.457 193.21L150.228 193.224L87.5753 196.922C87.2826 196.939 86.9891 196.948 86.6988 196.948Z" fill="#0C0C0C"/>
<path d="M28.8555 200.747L8.91112 397.906L9.85186 398.001L29.7962 200.842L28.8555 200.747Z" fill="#494949"/>
<path d="M111.258 200.747L91.3135 397.906L92.2542 398.001L112.199 200.842L111.258 200.747Z" fill="#494949"/>
<path d="M283.078 200.744L282.137 200.839L302.068 397.999L303.008 397.904L283.078 200.744Z" fill="#494949"/>
<path d="M301.05 196.922H12.1884C10.0489 196.922 8.31454 198.655 8.31454 200.792C8.31454 202.93 10.0489 204.663 12.1884 204.663H301.05C303.19 204.663 304.924 202.93 304.924 200.792C304.924 198.655 303.19 196.922 301.05 196.922Z" fill="#292A2E"/>
<path opacity="0.8" d="M301.05 196.922H12.1884C10.0489 196.922 8.31454 198.655 8.31454 200.792C8.31454 202.93 10.0489 204.663 12.1884 204.663H301.05C303.19 204.663 304.924 202.93 304.924 200.792C304.924 198.655 303.19 196.922 301.05 196.922Z" fill="white"/>
<path d="M301.051 205.135H12.1903C11.6157 205.141 11.0456 205.033 10.513 204.818C9.98046 204.602 9.49593 204.283 9.0875 203.879C8.67907 203.476 8.35484 202.995 8.13356 202.465C7.91228 201.935 7.79834 201.367 7.79834 200.792C7.79834 200.218 7.91228 199.65 8.13356 199.12C8.35484 198.59 8.67907 198.109 9.0875 197.705C9.49593 197.301 9.98046 196.982 10.513 196.767C11.0456 196.551 11.6157 196.443 12.1903 196.449H301.051C301.625 196.443 302.195 196.551 302.728 196.767C303.261 196.982 303.745 197.301 304.153 197.705C304.562 198.109 304.886 198.59 305.107 199.12C305.329 199.65 305.443 200.218 305.443 200.792C305.443 201.367 305.329 201.935 305.107 202.465C304.886 202.995 304.562 203.476 304.153 203.879C303.745 204.283 303.261 204.602 302.728 204.818C302.195 205.033 301.625 205.141 301.051 205.135ZM12.1903 197.394C11.7403 197.389 11.2937 197.473 10.8765 197.641C10.4592 197.81 10.0796 198.059 9.75948 198.375C9.4394 198.691 9.18528 199.068 9.01185 199.483C8.83841 199.897 8.74911 200.343 8.74911 200.792C8.74911 201.242 8.83841 201.687 9.01185 202.102C9.18528 202.517 9.4394 202.893 9.75948 203.21C10.0796 203.526 10.4592 203.775 10.8765 203.944C11.2937 204.112 11.7403 204.196 12.1903 204.191H301.051C301.501 204.196 301.947 204.112 302.365 203.944C302.782 203.775 303.161 203.526 303.482 203.21C303.802 202.893 304.056 202.517 304.229 202.102C304.403 201.687 304.492 201.242 304.492 200.792C304.492 200.343 304.403 199.897 304.229 199.483C304.056 199.068 303.802 198.691 303.482 198.375C303.161 198.059 302.782 197.81 302.365 197.641C301.947 197.473 301.501 197.389 301.051 197.394H12.1903Z" fill="#292A2E"/>
<path d="M301.05 196.922H97.7407C95.6012 196.922 93.8669 198.655 93.8669 200.792C93.8669 202.93 95.6012 204.663 97.7407 204.663H301.05C303.19 204.663 304.924 202.93 304.924 200.792C304.924 198.655 303.19 196.922 301.05 196.922Z" fill="white"/>
<path d="M301.051 205.135H97.7407C96.5958 205.123 95.5019 204.661 94.6965 203.847C93.8912 203.034 93.4394 201.936 93.4394 200.792C93.4394 199.648 93.8912 198.55 94.6965 197.737C95.5019 196.924 96.5958 196.461 97.7407 196.449H301.051C301.625 196.443 302.195 196.551 302.728 196.767C303.26 196.982 303.745 197.301 304.153 197.705C304.562 198.109 304.886 198.59 305.107 199.12C305.329 199.65 305.443 200.218 305.443 200.792C305.443 201.367 305.329 201.935 305.107 202.465C304.886 202.995 304.562 203.476 304.153 203.879C303.745 204.283 303.26 204.602 302.728 204.818C302.195 205.033 301.625 205.141 301.051 205.135ZM97.7407 197.394C96.8457 197.405 95.9909 197.767 95.3617 198.403C94.7326 199.04 94.3797 199.898 94.3797 200.792C94.3797 201.687 94.7326 202.545 95.3617 203.181C95.9909 203.817 96.8457 204.18 97.7407 204.191H301.051C301.501 204.196 301.947 204.112 302.364 203.944C302.782 203.775 303.161 203.526 303.481 203.21C303.802 202.893 304.056 202.517 304.229 202.102C304.403 201.687 304.492 201.242 304.492 200.792C304.492 200.343 304.403 199.897 304.229 199.483C304.056 199.068 303.802 198.691 303.481 198.375C303.161 198.059 302.782 197.81 302.364 197.641C301.947 197.473 301.501 197.389 301.051 197.394H97.7407Z" fill="#292A2E"/>
<path d="M308.842 335.146C308.78 335.147 308.718 335.134 308.661 335.111C308.604 335.087 308.551 335.052 308.508 335.008C307.842 334.343 306.756 322.131 303.831 285.772C302.635 270.895 301.504 256.843 300.679 248.303C300.621 247.693 300.384 247.622 300.306 247.599C299.177 247.258 295.743 249.964 293.826 252.333C293.747 252.431 293.633 252.493 293.508 252.506C293.383 252.519 293.258 252.483 293.161 252.404C293.063 252.325 293.001 252.211 292.988 252.086C292.975 251.961 293.011 251.837 293.09 251.739C294.358 250.173 298.49 246.066 300.578 246.694C300.999 246.82 301.523 247.186 301.62 248.212C302.446 256.759 303.577 270.816 304.774 285.696C306.551 307.791 308.564 332.822 309.226 334.399C309.276 334.469 309.307 334.552 309.313 334.639C309.32 334.726 309.302 334.812 309.262 334.89C309.223 334.967 309.162 335.032 309.088 335.077C309.014 335.122 308.929 335.146 308.842 335.146Z" fill="#494949"/>
<path d="M299.464 263.973C307.309 257.69 309.91 247.909 305.272 242.128C300.634 236.347 290.515 236.754 282.67 243.038C274.825 249.322 272.225 259.102 276.863 264.883C281.5 270.664 291.619 270.257 299.464 263.973Z" fill="#0CBC8B"/>
<path opacity="0.2" d="M299.464 263.973C307.309 257.69 309.91 247.909 305.272 242.128C300.634 236.347 290.515 236.754 282.67 243.038C274.825 249.322 272.225 259.102 276.863 264.883C281.5 270.664 291.619 270.257 299.464 263.973Z" fill="white"/>
<path d="M279.062 266.354C279.017 266.354 278.974 266.341 278.936 266.317C278.898 266.293 278.868 266.258 278.848 266.218C278.829 266.177 278.822 266.132 278.828 266.088C278.833 266.043 278.852 266.001 278.88 265.967L301.238 239.026C301.278 238.977 301.336 238.947 301.398 238.941C301.461 238.935 301.523 238.955 301.571 238.995C301.619 239.035 301.65 239.092 301.655 239.155C301.661 239.217 301.642 239.279 301.602 239.327L279.244 266.269C279.222 266.295 279.194 266.317 279.163 266.331C279.131 266.346 279.097 266.354 279.062 266.354Z" fill="white"/>
<path d="M313.718 329.371C313.643 329.371 313.568 329.353 313.501 329.318C313.434 329.284 313.376 329.234 313.333 329.172C313.289 329.111 313.261 329.04 313.25 328.965C313.24 328.891 313.247 328.814 313.272 328.743L321.67 304.61C321.918 303.901 322.339 303.265 322.896 302.761C323.453 302.257 324.127 301.9 324.858 301.724C325.588 301.548 326.351 301.558 327.077 301.752C327.803 301.947 328.468 302.321 329.012 302.839L333.452 307.077C333.542 307.164 333.595 307.283 333.598 307.408C333.601 307.533 333.554 307.655 333.467 307.745C333.38 307.836 333.261 307.889 333.136 307.891C333.011 307.894 332.889 307.847 332.798 307.761L328.359 303.522C327.929 303.113 327.404 302.818 326.831 302.664C326.258 302.511 325.656 302.503 325.079 302.642C324.503 302.781 323.97 303.062 323.53 303.46C323.091 303.858 322.758 304.36 322.563 304.92L314.165 329.054C314.133 329.147 314.072 329.227 313.992 329.284C313.912 329.341 313.816 329.371 313.718 329.371Z" fill="#494949"/>
<path d="M345.855 320.439C351.669 315.84 351.324 305.727 345.084 297.849C338.844 289.972 329.072 287.313 323.258 291.912C317.444 296.51 317.79 306.624 324.03 314.502C330.27 322.379 340.042 325.037 345.855 320.439Z" fill="#0CBC8B"/>
<path d="M305.029 333.607C304.923 333.607 304.82 333.571 304.736 333.506C304.653 333.44 304.594 333.348 304.57 333.245L290.473 274.361C290.377 273.96 290.172 273.593 289.88 273.301C289.589 273.009 289.222 272.802 288.821 272.705C288.42 272.607 287.999 272.622 287.606 272.747C287.212 272.873 286.861 273.105 286.591 273.417L282.246 278.434C282.206 278.481 282.156 278.52 282.101 278.549C282.045 278.577 281.984 278.594 281.922 278.599C281.86 278.604 281.797 278.596 281.738 278.577C281.679 278.557 281.624 278.526 281.577 278.485C281.529 278.444 281.491 278.394 281.463 278.338C281.435 278.283 281.418 278.222 281.414 278.159C281.41 278.097 281.418 278.035 281.438 277.976C281.459 277.917 281.49 277.862 281.532 277.815L285.876 272.799C286.26 272.355 286.759 272.026 287.319 271.847C287.878 271.669 288.476 271.648 289.046 271.787C289.616 271.926 290.137 272.22 290.551 272.636C290.966 273.052 291.257 273.573 291.393 274.144L305.487 333.027C305.515 333.149 305.494 333.276 305.429 333.383C305.363 333.489 305.258 333.565 305.137 333.594C305.102 333.603 305.065 333.607 305.029 333.607Z" fill="#494949"/>
<path d="M299.828 291.515C301.542 281.615 297.008 272.566 289.701 271.304C282.395 270.041 275.083 277.043 273.37 286.943C271.657 296.842 276.191 305.891 283.497 307.154C290.803 308.416 298.115 301.414 299.828 291.515Z" fill="#0CBC8B"/>
<path d="M308.842 335.146C308.823 335.146 308.804 335.145 308.784 335.143C308.723 335.135 308.663 335.116 308.609 335.085C308.555 335.055 308.507 335.014 308.469 334.965C308.431 334.916 308.403 334.86 308.386 334.8C308.369 334.74 308.365 334.678 308.372 334.616L317.372 261.602C317.47 260.807 317.796 260.057 318.311 259.442C318.825 258.827 319.506 258.374 320.272 258.137C321.038 257.9 321.857 257.889 322.629 258.105C323.401 258.321 324.094 258.756 324.625 259.357L334.912 270.998C334.995 271.092 335.037 271.215 335.029 271.34C335.021 271.466 334.964 271.582 334.87 271.665C334.776 271.748 334.653 271.791 334.528 271.783C334.403 271.775 334.286 271.718 334.203 271.624L323.916 259.982C323.506 259.518 322.97 259.182 322.373 259.015C321.776 258.847 321.144 258.856 320.552 259.039C319.96 259.222 319.433 259.573 319.036 260.048C318.638 260.523 318.386 261.103 318.311 261.717L309.311 334.732C309.297 334.846 309.242 334.951 309.155 335.028C309.069 335.104 308.958 335.146 308.842 335.146Z" fill="#494949"/>
<path d="M345.462 277.468C349.051 270.985 344.828 261.787 336.03 256.924C327.232 252.061 317.191 253.374 313.602 259.858C310.013 266.341 314.235 275.539 323.033 280.402C331.831 285.265 341.873 283.951 345.462 277.468Z" fill="#0CBC8B"/>
<path opacity="0.2" d="M345.855 320.439C351.669 315.84 351.324 305.727 345.084 297.849C338.844 289.972 329.072 287.313 323.258 291.912C317.444 296.51 317.79 306.624 324.03 314.502C330.27 322.379 340.042 325.037 345.855 320.439Z" fill="white"/>
<path opacity="0.5" d="M299.828 291.515C301.542 281.615 297.008 272.566 289.701 271.304C282.395 270.041 275.083 277.043 273.37 286.943C271.657 296.842 276.191 305.891 283.497 307.154C290.803 308.416 298.115 301.414 299.828 291.515Z" fill="white"/>
<path opacity="0.5" d="M345.462 277.468C349.051 270.985 344.828 261.787 336.03 256.924C327.232 252.061 317.191 253.374 313.602 259.858C310.013 266.341 314.235 275.539 323.033 280.402C331.831 285.265 341.873 283.951 345.462 277.468Z" fill="white"/>
<path d="M320.353 397.099H297.331L293.516 323.496H324.168L320.353 397.099Z" fill="#292A2E"/>
<path opacity="0.3" d="M320.353 397.099H297.331L293.516 323.496H324.168L320.353 397.099Z" fill="white"/>
<path d="M345.856 320.672C345.82 320.672 345.785 320.664 345.753 320.648C345.721 320.633 345.693 320.61 345.671 320.582L323.073 292.055C323.034 292.006 323.016 291.943 323.023 291.881C323.03 291.819 323.062 291.762 323.111 291.723C323.16 291.684 323.223 291.666 323.285 291.674C323.347 291.681 323.404 291.713 323.443 291.762L346.041 320.289C346.069 320.323 346.086 320.365 346.091 320.409C346.096 320.454 346.089 320.498 346.069 320.538C346.05 320.578 346.02 320.612 345.982 320.636C345.944 320.659 345.901 320.672 345.856 320.672Z" fill="white"/>
<path d="M343.959 279.753C343.909 279.753 343.86 279.736 343.82 279.706L314.902 258.607C314.852 258.571 314.818 258.515 314.808 258.453C314.798 258.391 314.814 258.328 314.851 258.277C314.888 258.227 314.943 258.193 315.005 258.183C315.067 258.173 315.131 258.189 315.181 258.226L344.098 279.325C344.138 279.355 344.167 279.396 344.182 279.444C344.197 279.491 344.197 279.542 344.181 279.589C344.165 279.636 344.135 279.677 344.095 279.706C344.055 279.735 344.006 279.75 343.957 279.75L343.959 279.753Z" fill="white"/>
<path d="M282.322 306.846C282.301 306.846 282.281 306.843 282.261 306.837C282.201 306.821 282.149 306.782 282.118 306.727C282.086 306.673 282.078 306.609 282.094 306.549L291.299 272.085C291.316 272.026 291.356 271.976 291.41 271.946C291.464 271.916 291.527 271.908 291.586 271.924C291.646 271.94 291.697 271.978 291.728 272.031C291.76 272.083 291.77 272.146 291.756 272.206L282.55 306.67C282.537 306.72 282.507 306.765 282.466 306.797C282.425 306.828 282.374 306.846 282.322 306.846Z" fill="white"/>
<path d="M331.467 397.762H0.330937C0.243167 397.762 0.158992 397.727 0.0969291 397.665C0.0348664 397.603 0 397.519 0 397.432C0 397.344 0.0348664 397.26 0.0969291 397.198C0.158992 397.136 0.243167 397.101 0.330937 397.101H331.466C331.554 397.101 331.638 397.136 331.7 397.198C331.762 397.26 331.797 397.344 331.797 397.432C331.797 397.519 331.762 397.603 331.7 397.665C331.638 397.727 331.554 397.762 331.466 397.762H331.467Z" fill="#292A2E"/>
<g opacity="0.65">
<path d="M331.467 397.762H0.330937C0.243167 397.762 0.158992 397.727 0.0969291 397.665C0.0348664 397.603 0 397.519 0 397.432C0 397.344 0.0348664 397.26 0.0969291 397.198C0.158992 397.136 0.243167 397.101 0.330937 397.101H331.466C331.554 397.101 331.638 397.136 331.7 397.198C331.762 397.26 331.797 397.344 331.797 397.432C331.797 397.519 331.762 397.603 331.7 397.665C331.638 397.727 331.554 397.762 331.466 397.762H331.467Z" fill="#292A2E"/>
</g>
</g>
<defs>
<clipPath id="clip0_10_72">
<rect width="350" height="398" fill="white"/>
</clipPath>
</defs>
</svg>
