<svg width="483" height="458" viewBox="0 0 483 458" fill="none" xmlns="http://www.w3.org/2000/svg">
<path d="M125.438 305.212H86.3428V316.587H125.438V305.212Z" fill="#F4F4F4"/>
<path opacity="0.05" d="M96.7155 305.212H91.5929V316.587H96.7155V305.212Z" fill="#14213D"/>
<path d="M120.442 307.684H99.1422V314.425H120.442V307.684Z" fill="white"/>
<path d="M156.621 306.696L120.295 290.83L115.742 301.254L152.068 317.12L156.621 306.696Z" fill="#F4F4F4"/>
<path opacity="0.05" d="M156.621 306.696L120.295 290.83L115.742 301.254L152.068 317.12L156.621 306.696Z" fill="#14213D"/>
<path d="M151.743 304.565L146.983 302.486L142.43 312.911L147.19 314.99L151.743 304.565Z" fill="white"/>
<path d="M143.739 303.767L123.948 295.123L121.249 301.3L141.041 309.944L143.739 303.767Z" fill="white"/>
<path opacity="0.05" d="M156.69 449.313H146.865V455.875H156.69V449.313Z" fill="#14213D"/>
<path opacity="0.05" d="M56.2436 449.313H46.4189V455.875H56.2436V449.313Z" fill="#14213D"/>
<path d="M165.696 317.121H37.413V449.091H165.696V317.121Z" fill="#F4F4F4"/>
<path opacity="0.03" d="M165.696 317.121H37.413V449.091H165.696V317.121Z" fill="#14213D"/>
<path d="M189.468 317.121H61.1855V449.091H189.468V317.121Z" fill="#F4F4F4"/>
<path opacity="0.05" d="M180.462 449.313H170.638V455.875H180.462V449.313Z" fill="#14213D"/>
<path opacity="0.05" d="M80.0161 449.313H70.1915V455.875H80.0161V449.313Z" fill="#14213D"/>
<path opacity="0.7" d="M184.653 323.301H66.0015V348.656H184.653V323.301Z" fill="white"/>
<path opacity="0.7" d="M184.653 354.862H66.0015V380.216H184.653V354.862Z" fill="white"/>
<path opacity="0.7" d="M184.653 386.421H66.0015V411.775H184.653V386.421Z" fill="white"/>
<path opacity="0.05" d="M125.327 339.526C127.287 339.526 128.875 337.938 128.875 335.978C128.875 334.019 127.287 332.431 125.327 332.431C123.368 332.431 121.78 334.019 121.78 335.978C121.78 337.938 123.368 339.526 125.327 339.526Z" fill="#14213D"/>
<path opacity="0.05" d="M125.327 371.086C127.287 371.086 128.875 369.498 128.875 367.539C128.875 365.58 127.287 363.991 125.327 363.991C123.368 363.991 121.78 365.58 121.78 367.539C121.78 369.498 123.368 371.086 125.327 371.086Z" fill="#14213D"/>
<path opacity="0.05" d="M125.327 402.646C127.287 402.646 128.875 401.058 128.875 399.099C128.875 397.139 127.287 395.551 125.327 395.551C123.368 395.551 121.78 397.139 121.78 399.099C121.78 401.058 123.368 402.646 125.327 402.646Z" fill="#14213D"/>
<path opacity="0.7" d="M184.653 418.692H66.0015V444.047H184.653V418.692Z" fill="white"/>
<path opacity="0.05" d="M125.327 434.917C127.287 434.917 128.875 433.329 128.875 431.37C128.875 429.41 127.287 427.822 125.327 427.822C123.368 427.822 121.78 429.41 121.78 431.37C121.78 433.329 123.368 434.917 125.327 434.917Z" fill="#14213D"/>
<path d="M0.340693 456.784H482.383C482.473 456.784 482.56 456.748 482.623 456.684C482.687 456.62 482.723 456.534 482.723 456.443C482.723 456.353 482.687 456.266 482.623 456.202C482.56 456.138 482.473 456.103 482.383 456.103H0.340693C0.250336 456.103 0.163679 456.138 0.0997867 456.202C0.0358944 456.266 0 456.353 0 456.443C0 456.534 0.0358944 456.62 0.0997867 456.684C0.163679 456.748 0.250336 456.784 0.340693 456.784Z" fill="#14213D"/>
<g opacity="0.65">
<path d="M0.340693 456.784H482.383C482.473 456.784 482.56 456.748 482.623 456.684C482.687 456.62 482.723 456.534 482.723 456.443C482.723 456.353 482.687 456.266 482.623 456.202C482.56 456.138 482.473 456.103 482.383 456.103H0.340693C0.250336 456.103 0.163679 456.138 0.0997867 456.202C0.0358944 456.266 0 456.353 0 456.443C0 456.534 0.0358944 456.62 0.0997867 456.684C0.163679 456.748 0.250336 456.784 0.340693 456.784Z" fill="#14213D"/>
</g>
<path d="M449.764 456.585L450.72 456.401L435.78 307.941L434.824 308.125L449.764 456.585Z" fill="#494949"/>
<path d="M394.135 456.585L395.091 456.401L380.151 307.941L379.195 308.125L394.135 456.585Z" fill="#494949"/>
<path d="M271.17 456.585L270.214 456.401L285.154 307.941L286.11 308.125L271.17 456.585Z" fill="#494949"/>
<path d="M326.799 456.585L325.843 456.401L340.783 307.941L341.739 308.125L326.799 456.585Z" fill="#494949"/>
<path d="M346.608 242.6L337.88 307.966L338.845 308.095L347.572 242.728L346.608 242.6Z" fill="#494949"/>
<path d="M446.782 242.599L438.055 307.966L439.019 308.095L447.747 242.728L446.782 242.599Z" fill="#494949"/>
<path d="M337.968 312.82H435.951C438.595 312.82 440.738 310.677 440.738 308.033V308.033C440.738 305.389 438.595 303.246 435.951 303.246H337.968C335.324 303.246 333.181 305.389 333.181 308.033V308.033C333.181 310.677 335.324 312.82 337.968 312.82Z" fill="#14213D"/>
<path opacity="0.8" d="M337.968 312.82H435.951C438.595 312.82 440.738 310.677 440.738 308.033V308.033C440.738 305.389 438.595 303.246 435.951 303.246H337.968C335.324 303.246 333.181 305.389 333.181 308.033V308.033C333.181 310.677 335.324 312.82 337.968 312.82Z" fill="white"/>
<path d="M332.694 308.035C332.695 306.637 333.251 305.296 334.24 304.307C335.228 303.318 336.569 302.761 337.968 302.76H435.951C437.349 302.76 438.691 303.315 439.68 304.304C440.669 305.293 441.224 306.635 441.224 308.033C441.224 309.432 440.669 310.773 439.68 311.762C438.691 312.751 437.349 313.307 435.951 313.307H337.968C336.57 313.305 335.23 312.749 334.241 311.761C333.253 310.773 332.696 309.433 332.694 308.035ZM337.968 303.735C336.827 303.735 335.733 304.188 334.927 304.995C334.121 305.801 333.668 306.895 333.668 308.035C333.668 309.176 334.121 310.269 334.927 311.076C335.733 311.882 336.827 312.335 337.968 312.335H435.951C437.091 312.335 438.185 311.882 438.991 311.076C439.798 310.269 440.251 309.176 440.251 308.035C440.251 306.895 439.798 305.801 438.991 304.995C438.185 304.188 437.091 303.735 435.951 303.735H337.968Z" fill="#14213D"/>
<path d="M284.189 312.82H382.172C384.816 312.82 386.959 310.677 386.959 308.033V308.033C386.959 305.389 384.816 303.246 382.172 303.246H284.189C281.546 303.246 279.402 305.389 279.402 308.033V308.033C279.402 310.677 281.546 312.82 284.189 312.82Z" fill="white"/>
<path d="M278.915 308.035C278.917 306.637 279.473 305.297 280.462 304.308C281.451 303.319 282.791 302.763 284.189 302.762H382.172C383.571 302.762 384.912 303.317 385.901 304.306C386.89 305.295 387.446 306.637 387.446 308.035C387.446 309.434 386.89 310.775 385.901 311.764C384.912 312.753 383.571 313.309 382.172 313.309H284.189C282.791 313.307 281.451 312.751 280.462 311.762C279.473 310.774 278.917 309.433 278.915 308.035ZM284.189 303.735C283.049 303.735 281.955 304.188 281.149 304.995C280.342 305.801 279.889 306.895 279.889 308.035C279.889 309.176 280.342 310.269 281.149 311.076C281.955 311.882 283.049 312.335 284.189 312.335H382.172C383.313 312.335 384.407 311.882 385.213 311.076C386.02 310.269 386.473 309.176 386.473 308.035C386.473 306.895 386.02 305.801 385.213 304.995C384.407 304.188 383.313 303.735 382.172 303.735H284.189Z" fill="#14213D"/>
<path d="M351.979 242.666H447.007C448.561 242.666 450.061 242.101 451.229 241.076C452.396 240.051 453.15 238.636 453.351 237.095L459.636 188.824C459.754 187.921 459.678 187.005 459.413 186.134C459.148 185.264 458.7 184.46 458.1 183.776C457.499 183.092 456.76 182.545 455.931 182.169C455.102 181.794 454.203 181.6 453.293 181.6H358.263C356.709 181.6 355.209 182.166 354.042 183.191C352.874 184.216 352.12 185.631 351.919 187.172L345.633 235.443C345.516 236.345 345.592 237.262 345.857 238.133C346.122 239.004 346.57 239.807 347.171 240.491C347.772 241.175 348.511 241.723 349.34 242.098C350.17 242.473 351.069 242.667 351.979 242.666Z" fill="#14213D"/>
<path opacity="0.8" d="M351.979 242.666H447.007C448.561 242.666 450.061 242.101 451.229 241.076C452.396 240.051 453.15 238.636 453.351 237.095L459.636 188.824C459.754 187.921 459.678 187.005 459.413 186.134C459.148 185.264 458.7 184.46 458.1 183.776C457.499 183.092 456.76 182.545 455.931 182.169C455.102 181.794 454.203 181.6 453.293 181.6H358.263C356.709 181.6 355.209 182.166 354.042 183.191C352.874 184.216 352.12 185.631 351.919 187.172L345.633 235.443C345.516 236.345 345.592 237.262 345.857 238.133C346.122 239.004 346.57 239.807 347.171 240.491C347.772 241.175 348.511 241.723 349.34 242.098C350.17 242.473 351.069 242.667 351.979 242.666Z" fill="white"/>
<path d="M346.807 240.812C346.16 240.076 345.678 239.211 345.393 238.275C345.108 237.338 345.026 236.351 345.152 235.381L351.438 187.109C351.657 185.453 352.469 183.932 353.725 182.83C354.98 181.727 356.592 181.117 358.263 181.114H453.293C454.272 181.113 455.24 181.322 456.132 181.726C457.024 182.13 457.819 182.719 458.465 183.455C459.111 184.191 459.593 185.056 459.878 185.992C460.164 186.929 460.246 187.916 460.119 188.887L453.833 237.158C453.614 238.814 452.801 240.335 451.546 241.438C450.29 242.54 448.678 243.15 447.007 243.153H351.979C351 243.153 350.032 242.944 349.14 242.541C348.248 242.137 347.453 241.547 346.807 240.812ZM358.263 182.087C356.829 182.091 355.444 182.614 354.367 183.561C353.289 184.508 352.592 185.813 352.404 187.235L346.118 235.507C346.009 236.34 346.08 237.187 346.325 237.992C346.57 238.796 346.983 239.539 347.538 240.17C348.093 240.802 348.776 241.308 349.542 241.654C350.308 242.001 351.139 242.18 351.979 242.18H447.007C448.441 242.177 449.826 241.654 450.904 240.707C451.982 239.761 452.68 238.455 452.868 237.033L459.154 188.762C459.262 187.928 459.192 187.081 458.947 186.277C458.702 185.472 458.288 184.73 457.734 184.098C457.179 183.466 456.496 182.96 455.73 182.613C454.964 182.267 454.133 182.087 453.293 182.087L358.263 182.087Z" fill="#14213D"/>
<path d="M346.606 242.666H441.636C443.189 242.666 444.69 242.101 445.857 241.076C447.025 240.051 447.779 238.636 447.98 237.095L454.266 188.824C454.383 187.921 454.307 187.004 454.042 186.134C453.777 185.264 453.329 184.46 452.728 183.776C452.128 183.092 451.389 182.545 450.56 182.169C449.731 181.794 448.831 181.6 447.921 181.6H352.891C351.338 181.6 349.837 182.166 348.67 183.191C347.503 184.216 346.748 185.631 346.548 187.172L340.262 235.443C340.144 236.345 340.221 237.262 340.486 238.132C340.751 239.003 341.198 239.807 341.799 240.49C342.399 241.174 343.138 241.722 343.967 242.097C344.796 242.472 345.696 242.666 346.606 242.666Z" fill="white"/>
<path d="M341.433 240.812C340.787 240.076 340.305 239.211 340.02 238.275C339.734 237.338 339.652 236.351 339.778 235.381L346.064 187.109C346.283 185.453 347.096 183.932 348.351 182.83C349.607 181.727 351.22 181.117 352.89 181.114H447.919C448.898 181.113 449.866 181.322 450.758 181.726C451.65 182.13 452.446 182.719 453.092 183.455C453.738 184.191 454.219 185.056 454.505 185.992C454.79 186.929 454.872 187.916 454.745 188.887L448.46 237.158C448.241 238.814 447.428 240.334 446.173 241.437C444.918 242.539 443.306 243.149 441.636 243.153H346.606C345.626 243.153 344.659 242.944 343.767 242.541C342.875 242.137 342.079 241.547 341.433 240.812ZM352.891 182.087C351.457 182.09 350.072 182.614 348.994 183.561C347.916 184.507 347.218 185.813 347.03 187.235L340.744 235.507C340.636 236.34 340.706 237.187 340.951 237.992C341.196 238.796 341.61 239.539 342.164 240.17C342.719 240.802 343.402 241.308 344.168 241.654C344.934 242.001 345.765 242.18 346.606 242.18H441.636C443.07 242.177 444.455 241.654 445.533 240.707C446.611 239.761 447.309 238.455 447.497 237.033L453.783 188.762C453.891 187.928 453.821 187.081 453.576 186.277C453.331 185.473 452.917 184.73 452.363 184.098C451.808 183.467 451.125 182.96 450.359 182.614C449.593 182.267 448.762 182.088 447.921 182.087L352.891 182.087Z" fill="#14213D"/>
<path d="M360.099 103.888C360.099 103.888 354.49 98.309 354.429 87.2273C354.38 78.6467 361.398 85.1622 361.398 85.1622C361.398 85.1622 361.424 78.9835 365.761 80.1915C370.098 81.3995 371.703 88.1131 371.703 88.1131" fill="#0c0c0c"/>
<path d="M388.517 84.032C388.517 84.032 410.133 89.3887 398.13 118.029L396.171 117.893L392.195 117.618" fill="#0c0c0c"/>
<path d="M360.773 147.795C360.87 147.782 361.951 165.706 382.775 164.145C397.191 163.065 402.331 147.769 402.662 147.769C401.107 147.439 399.187 146.938 398.423 146.766C396.76 146.379 395.254 145.496 394.105 144.232C392.956 142.969 392.219 141.385 391.992 139.693C391.57 137.152 392.284 124.154 392.065 121.583L369.936 126.522C370.245 131.952 372.41 144.538 364.826 146.766C363.56 147.134 362.201 147.472 360.773 147.795Z" fill="#E98862"/>
<path opacity="0.52" d="M369.623 141.622C369.97 140.505 370.193 139.353 370.289 138.187C370.532 135.527 370.483 132.848 370.143 130.199C374.641 129.592 378.878 127.736 382.374 124.841C382.784 126.358 385.044 132.989 384.418 134.429C383.237 137.158 377.68 141.622 369.623 141.622Z" fill="#0c0c0c"/>
<path d="M372.933 136.394C381.689 136.803 392.79 132.756 394.547 121.036L396.133 110.46C397.891 98.7397 393.159 88.315 382.124 86.6602C371.089 85.0054 361.416 93.2701 359.659 104.99L358.956 109.672C358.743 111.284 358.64 112.908 358.648 114.534C358.637 118.831 358.637 125.366 360.907 130.098C363.049 134.565 367.339 136.131 372.933 136.394Z" fill="#E98862"/>
<path d="M370.39 125.112C368.594 124.948 366.862 124.365 365.333 123.409C365.299 123.391 365.27 123.366 365.246 123.336C365.223 123.306 365.206 123.272 365.196 123.236C365.186 123.199 365.183 123.161 365.188 123.123C365.194 123.085 365.206 123.049 365.226 123.017C365.245 122.984 365.271 122.956 365.302 122.934C365.332 122.911 365.367 122.895 365.404 122.887C365.441 122.878 365.48 122.877 365.517 122.884C365.554 122.891 365.59 122.905 365.622 122.925C368.927 124.904 372.143 125.121 374.927 123.555C374.983 123.521 375.041 123.491 375.101 123.464C375.169 123.438 375.245 123.441 375.312 123.47C375.379 123.5 375.432 123.555 375.459 123.622C375.487 123.69 375.487 123.766 375.459 123.834C375.432 123.902 375.379 123.956 375.312 123.986C375.29 123.996 375.254 124.017 375.203 124.045C373.741 124.872 372.065 125.244 370.39 125.112Z" fill="#0c0c0c"/>
<path d="M370.111 127.769C369.786 127.744 369.463 127.692 369.147 127.613C369.111 127.604 369.077 127.588 369.047 127.566C369.018 127.544 368.992 127.517 368.973 127.485C368.954 127.454 368.942 127.418 368.936 127.382C368.93 127.345 368.932 127.308 368.941 127.272C368.95 127.236 368.966 127.203 368.988 127.173C369.009 127.143 369.037 127.118 369.069 127.099C369.1 127.08 369.135 127.067 369.172 127.061C369.208 127.056 369.246 127.058 369.282 127.066C371.186 127.536 372.229 126.777 372.273 126.745C372.332 126.699 372.407 126.68 372.481 126.69C372.555 126.7 372.622 126.739 372.667 126.798C372.713 126.858 372.732 126.933 372.722 127.007C372.712 127.081 372.673 127.148 372.614 127.193C371.871 127.668 370.987 127.872 370.111 127.769Z" fill="#0c0c0c"/>
<path d="M362.806 110.107C363.565 110.107 364.18 109.491 364.18 108.732C364.18 107.973 363.565 107.358 362.806 107.358C362.046 107.358 361.431 107.973 361.431 108.732C361.431 109.491 362.046 110.107 362.806 110.107Z" fill="#0c0c0c"/>
<path d="M375.586 110.959C376.345 110.959 376.96 110.344 376.96 109.584C376.96 108.825 376.345 108.21 375.586 108.21C374.827 108.21 374.211 108.825 374.211 109.584C374.211 110.344 374.827 110.959 375.586 110.959Z" fill="#0c0c0c"/>
<path d="M393.326 124.503C396.68 125.006 399.937 121.827 400.44 118.473C400.942 115.119 398.501 112.862 395.148 112.359L393.082 114.347L390.443 124.071L393.326 124.503Z" fill="#E98862"/>
<path d="M390.723 118.648C390.723 118.648 391.865 101.879 386.968 100.162C383.707 99.0197 374.918 102.665 367.579 100.195C364.366 99.1146 361.126 99.502 360.595 101.016C360.384 101.615 359.544 92.4725 365.628 86.4544C370.472 81.6628 384.132 81.9938 390.012 84.5879C406.292 91.7707 395.74 113.186 395.74 113.186L394.2 118.81L390.723 118.648Z" fill="#0c0c0c"/>
<path d="M368.896 120.913H368.875C367.794 120.754 365.998 120.367 366.116 119.558C366.213 118.888 369.115 111.924 369.446 111.133C369.459 111.097 369.479 111.065 369.504 111.038C369.53 111.011 369.561 110.989 369.596 110.974C369.63 110.959 369.667 110.951 369.705 110.951C369.742 110.951 369.779 110.958 369.814 110.972C369.848 110.987 369.88 111.008 369.906 111.035C369.932 111.062 369.953 111.094 369.966 111.129C369.98 111.164 369.986 111.201 369.985 111.238C369.984 111.276 369.975 111.313 369.959 111.347C368.672 114.43 366.734 119.183 366.667 119.639C366.745 119.846 367.835 120.197 368.955 120.363C369.025 120.374 369.089 120.412 369.132 120.469C369.175 120.525 369.195 120.597 369.188 120.668C369.18 120.739 369.145 120.804 369.091 120.85C369.037 120.896 368.966 120.92 368.895 120.916L368.896 120.913Z" fill="#0c0c0c"/>
<path d="M367.42 104.222C366.325 103.754 365.124 103.59 363.943 103.748C363.363 103.822 362.798 103.982 362.266 104.223C361.741 104.46 361.248 104.761 360.798 105.121C360.715 105.184 360.66 105.278 360.645 105.381C360.629 105.484 360.654 105.589 360.713 105.675C360.773 105.76 360.864 105.819 360.966 105.839C361.068 105.86 361.175 105.84 361.263 105.784L361.29 105.766C361.7 105.479 362.144 105.244 362.612 105.068C363.073 104.892 363.557 104.787 364.049 104.756C365.018 104.688 365.988 104.876 366.861 105.303L366.897 105.322C367.041 105.396 367.208 105.41 367.362 105.36C367.516 105.311 367.644 105.203 367.718 105.059C367.792 104.916 367.806 104.749 367.756 104.595C367.707 104.441 367.599 104.313 367.455 104.239L367.42 104.222Z" fill="#0c0c0c"/>
<path d="M375.382 106.009C376.306 105.707 377.293 105.654 378.243 105.856C378.726 105.955 379.191 106.126 379.623 106.364C380.062 106.603 380.469 106.896 380.836 107.237L380.859 107.258C380.939 107.327 381.041 107.362 381.146 107.356C381.251 107.351 381.349 107.305 381.421 107.228C381.492 107.152 381.532 107.051 381.53 106.946C381.529 106.841 381.487 106.741 381.413 106.666C381.017 106.248 380.57 105.881 380.082 105.575C379.589 105.262 379.051 105.025 378.488 104.872C377.34 104.553 376.128 104.549 374.978 104.862C374.823 104.905 374.691 105.009 374.611 105.15C374.532 105.29 374.512 105.457 374.556 105.612C374.599 105.768 374.703 105.9 374.844 105.979C374.985 106.058 375.151 106.078 375.307 106.035L375.342 106.023L375.382 106.009Z" fill="#0c0c0c"/>
<path d="M377.272 88.1268C378.538 84.5716 377.606 80.9922 375.19 80.132C372.775 79.2718 369.79 81.4566 368.524 85.0119C367.258 88.5671 368.19 92.1465 370.606 93.0067C373.021 93.8669 376.006 91.6821 377.272 88.1268Z" fill="#0c0c0c"/>
<path d="M226.013 431.355C226.013 431.355 223.404 444.882 210.739 445.636C198.074 446.39 200.82 456.48 200.82 456.48H249.219V432.298L226.013 431.355Z" fill="#E5E5E5"/>
<path d="M318.092 422.814C318.092 422.814 321.721 436.104 310.689 442.372C299.657 448.639 306.575 456.48 306.575 456.48L350.005 435.114L339.33 413.417L318.092 422.814Z" fill="#E5E5E5"/>
<path d="M344.991 419.06L308.367 303.522H374.753C388.089 303.522 393.648 292.213 393.648 278.878C393.648 265.544 380.539 253.854 367.203 253.854H277.606C269.473 253.854 260.353 258.828 255.889 265.627C251.426 272.427 252.632 282.962 255.866 290.425L314.514 432.868" fill="#14213D"/>
<path opacity="0.8" d="M344.991 419.06L308.367 303.522H374.753C388.089 303.522 393.648 292.213 393.648 278.878C393.648 265.544 380.539 253.854 367.203 253.854H277.606C269.473 253.854 260.353 258.828 255.889 265.627C251.426 272.427 252.632 282.962 255.866 290.425L314.514 432.868" fill="#0A0A0A"/>
<path d="M252.003 443.917L313.24 303.522L393.648 303.516C412.488 302.039 421.117 291.714 420.843 278.382C420.572 265.219 413.907 252.218 400.804 252.218H292.43C282.734 252.417 275.107 263.131 271.51 272.136L220.601 435.322" fill="#14213D"/>
<path d="M426.328 252.379C426.328 252.379 429.899 275.665 424.239 288.612C417.172 304.776 390.682 303.517 390.682 303.517L392.175 252.218L426.328 252.379Z" fill="#14213D"/>
<path d="M269.206 251.921L326.004 240.151C328.371 239.661 330.576 238.581 332.415 237.013C334.254 235.444 335.667 233.437 336.525 231.177L358.865 172.309C359.545 170.542 359.869 168.659 359.82 166.766C359.77 164.874 359.346 163.01 358.574 161.281C357.801 159.553 356.695 157.994 355.318 156.694C353.942 155.395 352.322 154.38 350.552 153.708C348.782 153.037 346.897 152.721 345.004 152.78C343.112 152.839 341.25 153.272 339.525 154.052C337.801 154.833 336.247 155.947 334.954 157.33C333.662 158.713 332.654 160.337 331.991 162.111L312.449 213.604L263.374 223.775C263.374 223.775 268.223 252.125 269.206 251.921Z" fill="#E5E5E5"/>
<path d="M334.901 187.258C335.557 194.964 340.206 243.039 340.839 252.531H426.291C426.782 243.97 428.376 207.625 430.238 190.885C432.015 174.91 432.66 165.794 430.613 160.83C427.002 152.074 417.968 148.924 410.185 147.87C405.434 147.227 398.286 146.766 398.286 146.766C398.286 146.766 397.681 159.006 383.251 159.688C363.608 160.613 364.92 146.764 364.822 146.764C361.64 146.764 344.319 149.079 339.987 151.902C333.87 155.889 332.062 161.323 331.99 166.315C331.908 172.065 334.156 178.519 334.901 187.258Z" fill="#E5E5E5"/>
<path d="M338.26 226.541H338.28C338.344 226.535 338.404 226.505 338.445 226.455C338.487 226.406 338.507 226.342 338.502 226.278L336.284 199.629C336.282 199.597 336.273 199.566 336.259 199.537C336.245 199.508 336.225 199.482 336.2 199.462C336.176 199.441 336.147 199.425 336.116 199.416C336.086 199.406 336.053 199.403 336.021 199.407C335.989 199.409 335.958 199.418 335.93 199.433C335.902 199.447 335.876 199.468 335.856 199.492C335.835 199.516 335.819 199.545 335.81 199.575C335.8 199.606 335.796 199.638 335.799 199.669L338.016 226.318C338.021 226.379 338.049 226.435 338.094 226.477C338.139 226.518 338.198 226.541 338.26 226.541Z" fill="#0c0c0c"/>
<path d="M297.56 242.535L278.81 184.899C278.481 183.886 277.84 183.004 276.978 182.378C276.117 181.752 275.079 181.414 274.015 181.414H197.623C196.827 181.414 196.042 181.602 195.333 181.964C194.623 182.325 194.009 182.85 193.541 183.494C193.073 184.138 192.765 184.884 192.64 185.671C192.516 186.457 192.58 187.262 192.826 188.019L211.576 245.656C211.906 246.669 212.547 247.552 213.409 248.178C214.271 248.804 215.309 249.141 216.374 249.141H292.762C293.559 249.141 294.344 248.952 295.053 248.591C295.763 248.229 296.377 247.705 296.845 247.06C297.312 246.416 297.621 245.67 297.746 244.884C297.87 244.097 297.806 243.292 297.56 242.535Z" fill="#14213D"/>
<path d="M297.56 242.535L278.81 184.899C278.481 183.886 277.84 183.004 276.978 182.378C276.117 181.752 275.079 181.414 274.015 181.414H197.623C196.827 181.414 196.042 181.602 195.333 181.964C194.623 182.325 194.009 182.85 193.541 183.494C193.073 184.138 192.765 184.884 192.64 185.671C192.516 186.457 192.58 187.262 192.826 188.019L211.576 245.656C211.906 246.669 212.547 247.552 213.409 248.178C214.271 248.804 215.309 249.141 216.374 249.141H292.762C293.559 249.141 294.344 248.952 295.053 248.591C295.763 248.229 296.377 247.705 296.845 247.06C297.312 246.416 297.621 245.67 297.746 244.884C297.87 244.097 297.806 243.292 297.56 242.535Z" fill="#14213D"/>
<path d="M333.4 244.467H282.265C280.991 244.467 279.958 245.5 279.958 246.774V246.833C279.958 248.107 280.991 249.14 282.265 249.14H333.4C334.674 249.14 335.707 248.107 335.707 246.833V246.774C335.707 245.5 334.674 244.467 333.4 244.467Z" fill="#14213D"/>
<path d="M333.4 244.467H282.265C280.991 244.467 279.958 245.5 279.958 246.774V246.833C279.958 248.107 280.991 249.14 282.265 249.14H333.4C334.674 249.14 335.707 248.107 335.707 246.833V246.774C335.707 245.5 334.674 244.467 333.4 244.467Z" fill="#14213D"/>
<path d="M245.193 226.1C249.618 226.1 253.205 222.513 253.205 218.089C253.205 213.664 249.618 210.077 245.193 210.077C240.768 210.077 237.181 213.664 237.181 218.089C237.181 222.513 240.768 226.1 245.193 226.1Z" fill="white"/>
<path d="M301.834 229.033L314.596 224.56L312.764 224.434C312.173 224.381 311.625 224.106 311.229 223.665C310.833 223.223 310.62 222.647 310.632 222.055C310.649 221.749 310.728 221.45 310.865 221.176C311.001 220.902 311.192 220.658 311.425 220.46C311.659 220.262 311.93 220.114 312.223 220.024C312.516 219.935 312.824 219.906 313.128 219.939L335.707 222.338L335.12 229.594C334.938 231.848 334.087 233.995 332.676 235.762C331.265 237.529 329.359 238.834 327.202 239.51L317.424 242.556C316.919 242.724 316.371 242.713 315.874 242.524C315.376 242.334 314.959 241.979 314.694 241.518C314.463 241.096 314.373 240.612 314.437 240.136C314.5 239.659 314.715 239.216 315.048 238.87C315.018 238.848 314.995 238.818 314.981 238.785C314.969 238.752 314.965 238.718 314.97 238.684C314.975 238.65 314.988 238.618 315.009 238.59L313.208 239.155C312.646 239.344 312.033 239.312 311.493 239.066C310.954 238.821 310.527 238.379 310.301 237.831C310.116 237.334 310.112 236.788 310.29 236.288C310.468 235.789 310.816 235.368 311.274 235.1C311.253 235.089 311.234 235.074 311.219 235.055L310.478 235.288C309.973 235.457 309.424 235.447 308.925 235.258C308.427 235.069 308.009 234.713 307.743 234.251C307.463 233.74 307.392 233.14 307.545 232.578C307.697 232.015 308.061 231.533 308.561 231.233C308.557 231.218 308.554 231.203 308.554 231.188L303.239 233.051C302.976 233.143 302.697 233.183 302.418 233.167C302.139 233.151 301.866 233.081 301.615 232.96C301.106 232.716 300.716 232.279 300.53 231.747C300.343 231.215 300.376 230.631 300.62 230.123C300.865 229.614 301.301 229.224 301.833 229.038L301.834 229.033Z" fill="#E98862"/>
<path opacity="0.2" d="M308.765 231.391C308.79 231.391 308.815 231.387 308.838 231.378L313.978 229.509C314.005 229.499 314.029 229.485 314.049 229.466C314.069 229.447 314.086 229.424 314.098 229.399C314.109 229.374 314.116 229.346 314.117 229.319C314.118 229.291 314.114 229.263 314.104 229.237C314.095 229.211 314.08 229.187 314.061 229.166C314.043 229.146 314.02 229.129 313.995 229.118C313.969 229.106 313.942 229.099 313.914 229.098C313.886 229.097 313.858 229.101 313.832 229.111L308.691 230.98C308.644 230.997 308.605 231.03 308.58 231.073C308.555 231.117 308.546 231.167 308.555 231.216C308.564 231.265 308.589 231.31 308.627 231.342C308.666 231.374 308.714 231.391 308.764 231.391H308.765Z" fill="#0A0A0A"/>
<path opacity="0.2" d="M311.363 235.127C311.387 235.127 311.411 235.123 311.434 235.115L315.486 233.677C315.513 233.668 315.537 233.654 315.559 233.635C315.58 233.617 315.597 233.594 315.61 233.569C315.622 233.543 315.629 233.516 315.631 233.488C315.633 233.46 315.629 233.431 315.619 233.405C315.61 233.378 315.595 233.354 315.576 233.333C315.557 233.312 315.534 233.295 315.509 233.283C315.483 233.271 315.455 233.265 315.427 233.264C315.399 233.263 315.371 233.267 315.345 233.277L311.292 234.716C311.245 234.732 311.206 234.765 311.18 234.808C311.155 234.851 311.146 234.902 311.154 234.951C311.163 235 311.188 235.045 311.227 235.077C311.265 235.109 311.313 235.127 311.363 235.127Z" fill="#0A0A0A"/>
<path opacity="0.2" d="M315.179 238.923C315.204 238.923 315.23 238.918 315.254 238.909L317.152 238.186C317.205 238.165 317.247 238.125 317.27 238.074C317.293 238.023 317.294 237.964 317.274 237.912C317.254 237.86 317.214 237.817 317.163 237.794C317.112 237.771 317.053 237.77 317.001 237.79L315.103 238.514C315.057 238.532 315.018 238.565 314.994 238.608C314.97 238.651 314.962 238.701 314.97 238.75C314.979 238.799 315.005 238.843 315.043 238.874C315.081 238.906 315.129 238.923 315.178 238.923H315.179Z" fill="#0A0A0A"/>
<path d="M325.713 218.044L379.251 218.008L399.506 168.601L429.719 181.304L404.448 239.942L404.201 240.526C402.965 243.377 400.882 245.778 398.236 247.405C395.589 249.032 392.507 249.807 389.405 249.624L324.903 245.813L325.713 218.044Z" fill="#E5E5E5"/>
<path d="M390.293 249.892C393.295 249.887 396.229 249.008 398.739 247.362C401.249 245.715 403.224 243.374 404.425 240.623L404.672 240.039L426.204 190.076L425.757 189.881L403.977 240.432C402.755 243.232 400.705 245.59 398.102 247.19C395.5 248.79 392.47 249.554 389.42 249.381L325.154 245.585L325.95 218.289L379.414 218.253L394.988 180.265L394.538 180.08L379.088 217.766L325.478 217.803L324.654 246.043L324.89 246.057L389.392 249.867C389.692 249.884 389.996 249.892 390.293 249.892Z" fill="#0c0c0c"/>
<path d="M117.212 253.807L96.6935 456.932L97.662 457.03L118.18 253.904L117.212 253.807Z" fill="#494949"/>
<path d="M449.843 253.804L448.874 253.902L469.406 457.026L470.375 456.928L449.843 253.804Z" fill="#494949"/>
<path d="M365.011 253.804L364.043 253.902L384.575 457.027L385.544 456.929L365.011 253.804Z" fill="#494949"/>
<path d="M32.3801 253.806L11.8619 456.932L12.8304 457.029L33.3486 253.904L32.3801 253.806Z" fill="#494949"/>
<path d="M13.877 257.842L467 257.842C469.203 257.842 470.988 256.056 470.988 253.854C470.988 251.652 469.203 249.866 467 249.866L13.877 249.866C11.6744 249.866 9.88889 251.652 9.88889 253.854C9.88889 256.056 11.6744 257.842 13.877 257.842Z" fill="#14213D"/>
<path opacity="0.8" d="M13.877 257.842L467 257.842C469.203 257.842 470.988 256.056 470.988 253.854C470.988 251.652 469.203 249.866 467 249.866L13.877 249.866C11.6744 249.866 9.88889 251.652 9.88889 253.854C9.88889 256.056 11.6744 257.842 13.877 257.842Z" fill="white"/>
<path d="M9.40167 253.854C9.40245 252.667 9.87414 251.53 10.7132 250.691C11.5522 249.852 12.6899 249.38 13.8764 249.379H466.998C468.185 249.379 469.323 249.851 470.162 250.69C471.002 251.529 471.473 252.667 471.473 253.854C471.473 255.041 471.002 256.179 470.162 257.018C469.323 257.857 468.185 258.329 466.998 258.329H13.8764C12.6899 258.328 11.5522 257.856 10.7132 257.017C9.87414 256.178 9.40245 255.04 9.40167 253.854ZM13.8764 250.353C12.9478 250.353 12.0572 250.721 11.4006 251.378C10.744 252.035 10.3751 252.925 10.3751 253.854C10.3751 254.783 10.744 255.673 11.4006 256.33C12.0572 256.986 12.9478 257.355 13.8764 257.355H466.998C467.927 257.355 468.817 256.986 469.474 256.33C470.131 255.673 470.5 254.783 470.5 253.854C470.5 252.925 470.131 252.035 469.474 251.378C468.817 250.721 467.927 250.353 466.998 250.353H13.8764Z" fill="#14213D"/>
<path d="M13.877 257.842L378.926 257.842C381.128 257.842 382.914 256.056 382.914 253.854C382.914 251.652 381.128 249.866 378.926 249.866L13.877 249.866C11.6744 249.866 9.88889 251.652 9.88889 253.854C9.88889 256.056 11.6744 257.842 13.877 257.842Z" fill="white"/>
<path d="M9.40167 253.854C9.40245 252.667 9.87414 251.53 10.7132 250.691C11.5522 249.852 12.6899 249.38 13.8764 249.379H378.926C380.112 249.379 381.251 249.851 382.09 250.69C382.929 251.529 383.4 252.667 383.4 253.854C383.4 255.041 382.929 256.179 382.09 257.018C381.251 257.857 380.112 258.329 378.926 258.329H13.8764C12.6899 258.328 11.5522 257.856 10.7132 257.017C9.87414 256.178 9.40245 255.04 9.40167 253.854ZM13.8764 250.353C12.9478 250.353 12.0572 250.721 11.4006 251.378C10.744 252.035 10.3751 252.925 10.3751 253.854C10.3751 254.783 10.744 255.673 11.4006 256.33C12.0572 256.986 12.9478 257.355 13.8764 257.355H378.926C379.854 257.355 380.745 256.986 381.402 256.33C382.058 255.673 382.427 254.783 382.427 253.854C382.427 252.925 382.058 252.035 381.402 251.378C380.745 250.721 379.854 250.353 378.926 250.353H13.8764Z" fill="#14213D"/>
<path d="M66.2079 417.982C66.2079 417.982 56.9912 431.547 65.16 441.313C73.3289 451.079 64.0717 456.02 64.0717 456.02L30.751 420.681L48.4057 404.033L66.2079 417.982Z" fill="#E5E5E5"/>
<path d="M114.577 199.878C114.577 199.878 145.689 306.885 138.356 322.527C131.147 337.907 65.3503 427.748 65.3503 427.748L41.6882 407.128L100.209 312.224C100.209 312.224 82.8858 257.418 73.5201 228.676C67.8743 211.349 58.3748 211.901 57.4725 193.7L114.577 199.878Z" fill="#14213D"/>
<path d="M80.1286 320.508L87.8249 311.743L85.8216 363.19L77.2439 371.343L80.1286 320.508Z" fill="#0A0A0A"/>
<path d="M78.8539 245.148C78.8539 245.148 75.1691 223.275 79.1099 227.96C91.9243 243.194 93.2 290.072 93.2 290.072L78.8539 245.148Z" fill="#0A0A0A"/>
<path d="M100.382 430.219C100.382 430.219 103.001 443.794 115.713 444.55C128.425 445.306 125.667 455.432 125.667 455.432H77.094V431.166L100.382 430.219Z" fill="#E5E5E5"/>
<path d="M27.8633 197.197C27.8633 197.197 27.6482 196.196 27.5226 202.045C27.4326 206.174 25.7554 220.792 31.554 243.847C42.4163 287.042 74.9525 438.882 74.9525 438.882L106.868 438.614L76.7703 195.869L27.8633 197.197Z" fill="#14213D"/>
<path d="M27.3694 197.372L27.2652 197.378C27.2652 197.378 27.3402 195.367 27.3694 197.372Z" fill="#333333"/>
<path d="M202.075 101.69C201.883 101.31 201.578 100.998 201.201 100.799C200.825 100.6 200.396 100.522 199.973 100.577C199.977 100.539 199.969 100.502 199.95 100.469C199.93 100.444 199.904 100.424 199.875 100.412C199.845 100.4 199.813 100.396 199.781 100.4L201.207 99.3781C201.633 99.0859 201.939 98.6495 202.069 98.1493C202.199 97.6491 202.143 97.1189 201.913 96.6565C201.67 96.2069 201.268 95.8636 200.787 95.6933C200.305 95.5229 199.777 95.5377 199.305 95.7347C199.309 95.7147 199.295 95.6952 199.292 95.6748L199.876 95.2548C200.277 94.978 200.57 94.5712 200.705 94.1034C200.84 93.6355 200.81 93.1353 200.619 92.6874C200.493 92.4091 200.307 92.1621 200.074 91.9644C199.841 91.7666 199.568 91.623 199.273 91.5439C198.978 91.4647 198.669 91.452 198.369 91.5067C198.068 91.5613 197.784 91.682 197.535 91.86L196.184 92.829C196.18 92.8208 196.184 92.8115 196.178 92.8042C196.173 92.7969 196.158 92.794 196.151 92.7857C196.461 92.4366 196.643 91.9923 196.668 91.5258C196.693 91.0593 196.558 90.5983 196.286 90.2183C195.648 89.1914 194.175 89.4012 193.301 90.0276L185.344 95.5239L186.767 93.1293C187.053 92.6686 187.154 92.1164 187.049 91.5842C186.944 91.052 186.64 90.5795 186.2 90.2621C185.968 90.1063 185.706 89.9995 185.43 89.9483C185.155 89.8971 184.872 89.9026 184.598 89.9644C184.325 90.0262 184.067 90.143 183.841 90.3078C183.614 90.4725 183.423 90.6817 183.28 90.9226L175.519 103.994C174.608 105.528 174.331 107.356 174.746 109.091C175.162 110.825 176.237 112.33 177.744 113.284C179.492 114.391 181.531 114.95 183.599 114.891C185.667 114.831 187.67 114.156 189.351 112.95L201.367 104.338C201.766 104.041 202.053 103.618 202.182 103.137C202.31 102.657 202.273 102.147 202.075 101.69Z" fill="#E98862"/>
<g opacity="0.25">
<path d="M188.312 98.2588C188.341 98.2991 188.385 98.3263 188.434 98.3347C188.483 98.343 188.533 98.3319 188.574 98.3036L196.134 93.0671C196.155 93.0529 196.172 93.0347 196.186 93.0137C196.199 92.9926 196.208 92.9692 196.213 92.9445C196.217 92.9199 196.217 92.8947 196.212 92.8703C196.206 92.8458 196.196 92.8227 196.182 92.8021C196.168 92.7816 196.15 92.764 196.129 92.7505C196.108 92.737 196.084 92.7277 196.059 92.7233C196.035 92.7188 196.01 92.7192 195.985 92.7245C195.961 92.7299 195.938 92.7399 195.917 92.7542L188.357 97.9906C188.336 98.0048 188.319 98.0229 188.305 98.0439C188.292 98.0649 188.282 98.0883 188.278 98.1129C188.273 98.1375 188.274 98.1627 188.279 98.1872C188.284 98.2116 188.294 98.2348 188.308 98.2554L188.312 98.2588Z" fill="#0c0c0c"/>
</g>
<g opacity="0.25">
<path d="M190.529 101.657C190.559 101.697 190.602 101.724 190.651 101.732C190.7 101.741 190.751 101.729 190.792 101.701L199.229 95.8574C199.249 95.8432 199.267 95.8251 199.28 95.8041C199.294 95.7831 199.303 95.7596 199.308 95.7351C199.312 95.7105 199.312 95.6852 199.307 95.6608C199.301 95.6363 199.291 95.6132 199.277 95.5926C199.247 95.5525 199.204 95.5252 199.154 95.5162C199.105 95.5072 199.055 95.5171 199.012 95.5439L190.575 101.388C190.555 101.402 190.537 101.42 190.524 101.441C190.51 101.462 190.501 101.485 190.496 101.51C190.492 101.535 190.492 101.56 190.497 101.584C190.503 101.609 190.513 101.632 190.527 101.653L190.529 101.657Z" fill="#0c0c0c"/>
</g>
<g opacity="0.25">
<path d="M192.91 105.351C192.939 105.391 192.983 105.418 193.032 105.426C193.081 105.435 193.131 105.424 193.172 105.395L199.902 100.734C199.944 100.705 199.972 100.661 199.981 100.612C199.99 100.562 199.979 100.511 199.95 100.469C199.921 100.428 199.877 100.399 199.828 100.39C199.778 100.381 199.727 100.392 199.685 100.421L192.955 105.082C192.934 105.097 192.917 105.115 192.903 105.136C192.89 105.157 192.88 105.18 192.876 105.205C192.871 105.229 192.872 105.254 192.877 105.279C192.882 105.303 192.892 105.327 192.906 105.347L192.91 105.351Z" fill="#0c0c0c"/>
</g>
<path d="M170.936 101.017L148.132 139.856L120.306 103.358L97.1949 124.192L136.661 175.301L136.92 175.665C138.499 177.828 140.604 179.554 143.035 180.68C145.466 181.805 148.143 182.293 150.815 182.097C153.486 181.902 156.064 181.029 158.306 179.562C160.547 178.095 162.377 176.081 163.625 173.71L196.054 114.985L170.936 101.017Z" fill="#E5E5E5"/>
<path d="M145.896 144.526C145.846 144.526 145.798 144.513 145.754 144.489C145.711 144.465 145.675 144.43 145.649 144.388C145.623 144.345 145.608 144.297 145.606 144.247C145.605 144.198 145.615 144.149 145.638 144.105L147.873 139.724C147.914 139.665 147.974 139.623 148.043 139.606C148.111 139.588 148.184 139.596 148.248 139.629C148.311 139.661 148.36 139.715 148.386 139.782C148.413 139.848 148.414 139.921 148.389 139.988L146.154 144.368C146.129 144.416 146.092 144.455 146.047 144.483C146.001 144.511 145.949 144.526 145.896 144.526Z" fill="#0c0c0c"/>
<path d="M118.7 139.634L118.004 151.901L118.583 151.934L119.279 139.667L118.7 139.634Z" fill="#0c0c0c"/>
<path d="M45.2187 50.8548C45.2187 50.8548 44.148 64.5093 41.0185 69.4313C32.0023 83.6017 29.2509 99.6284 38.0184 108.119C46.7859 116.611 103.315 117.381 107.821 98.1367C111.614 81.9348 103.897 80.0989 102.169 66.6771C101.388 60.604 99.1918 47.863 99.1918 47.863" fill="#0A0A0A"/>
<path d="M93.4298 95.0606C93.3324 95.0475 92.249 113.017 71.3743 111.45C56.9225 110.368 51.7693 95.0348 51.4384 95.0348C52.9958 94.7039 55.6201 94.2225 56.3122 93.8531C58.588 92.63 61.4036 91.3578 62.1371 86.9385C62.56 84.3916 61.8426 71.361 62.0636 68.7844L84.2486 73.7357C83.9385 79.1785 81.7693 91.7963 89.3731 94.0312C90.6361 94.3982 91.9988 94.7379 93.4298 95.0606Z" fill="#E98862"/>
<path opacity="0.52" d="M84.5576 88.8723C84.2105 87.7523 83.9867 86.5978 83.8903 85.4293C83.6469 82.7627 83.6959 80.0775 84.0363 77.4216C79.5275 76.8128 75.2799 74.9517 71.7758 72.0498C71.364 73.5712 69.0989 80.2182 69.7258 81.6642C70.9128 84.397 76.4817 88.8723 84.5576 88.8723Z" fill="#0c0c0c"/>
<path d="M81.6174 83.2167C72.8626 83.9614 61.5876 80.3325 59.3784 68.6589L57.383 58.1261C55.1738 46.4525 59.5142 35.8292 70.505 33.749C81.4962 31.6689 91.5024 39.5773 93.7115 51.2509L94.5939 55.9141C95.4428 60.3932 97.2387 81.8875 81.6174 83.2167Z" fill="#E98862"/>
<path d="M91.4634 56.4227C92.2244 56.4227 92.8413 55.8058 92.8413 55.0449C92.8413 54.2839 92.2244 53.667 91.4634 53.667C90.7025 53.667 90.0856 54.2839 90.0856 55.0449C90.0856 55.8058 90.7025 56.4227 91.4634 56.4227Z" fill="#0c0c0c"/>
<path d="M77.3481 58.3077C78.109 58.3077 78.7259 57.6908 78.7259 56.9299C78.7259 56.1689 78.109 55.552 77.3481 55.552C76.5871 55.552 75.9702 56.1689 75.9702 56.9299C75.9702 57.6908 76.5871 58.3077 77.3481 58.3077Z" fill="#0c0c0c"/>
<path d="M85.0944 67.0309C85.1016 67.0304 85.1088 67.0294 85.1159 67.028C85.561 66.9403 86.001 66.8282 86.4339 66.6921C87.0802 66.4843 87.9266 66.1402 87.8166 65.5567C87.691 64.8913 84.5104 58.0614 84.1483 57.2827C84.1326 57.2491 84.1105 57.2189 84.0831 57.1939C84.0558 57.1689 84.0237 57.1495 83.9889 57.1368C83.954 57.1242 83.9171 57.1185 83.88 57.1202C83.843 57.1218 83.8066 57.1307 83.773 57.1464C83.7395 57.1621 83.7093 57.1843 83.6843 57.2116C83.6592 57.239 83.6398 57.271 83.6272 57.3058C83.6145 57.3407 83.6089 57.3776 83.6105 57.4147C83.6122 57.4517 83.6211 57.4881 83.6368 57.5217C84.9932 60.4307 87.1771 65.214 87.2617 65.6618C87.1887 65.8691 86.116 66.2638 85.0107 66.4731C84.9394 66.4871 84.8762 66.5281 84.8344 66.5875C84.7925 66.6469 84.7751 66.7202 84.7859 66.792C84.7967 66.8639 84.8348 66.9288 84.8923 66.9733C84.9497 67.0178 85.0222 67.0384 85.0944 67.0309Z" fill="#0c0c0c"/>
<path d="M83.4669 72.0708C85.2596 71.8385 86.9725 71.1883 88.4678 70.1726C88.5297 70.1314 88.5729 70.0674 88.5879 69.9946C88.603 69.9217 88.5886 69.8459 88.548 69.7835C88.5074 69.7212 88.4439 69.6774 88.3711 69.6617C88.2984 69.6459 88.2225 69.6595 88.1597 69.6995C84.9241 71.8074 81.7089 72.1486 78.8637 70.6856C78.8061 70.6545 78.747 70.6264 78.6865 70.6014C78.6163 70.5766 78.5391 70.5807 78.4718 70.6126C78.4045 70.6445 78.3525 70.7017 78.3272 70.7718C78.3019 70.8418 78.3053 70.919 78.3367 70.9866C78.3681 71.0541 78.4249 71.1065 78.4947 71.1324C78.5171 71.1416 78.5541 71.1616 78.6057 71.1884C80.1022 71.9596 81.7948 72.2668 83.4669 72.0708Z" fill="#0c0c0c"/>
<path d="M48.5921 61.7968L58.445 59.9907C65.9066 56.9731 68.1635 44.0535 68.1635 44.0535C68.1635 44.0535 77.2269 52.8872 99.1919 47.863C99.1919 47.863 94.7877 17.2313 62.3381 26.138C51.874 29.0095 44.3651 39.554 45.3005 53.646C45.9561 63.5217 48.5921 61.7968 48.5921 61.7968Z" fill="#0A0A0A"/>
<path d="M60.7339 72.0863C57.3937 72.719 54.0101 69.6576 53.3779 66.3174C52.7456 62.9771 55.1047 60.623 58.445 59.9902L60.5894 61.9025L63.6069 71.5422L60.7339 72.0863Z" fill="#E98862"/>
<path d="M86.1608 51.7003C87.1358 51.071 88.2622 50.7156 89.4217 50.6714C89.9923 50.6461 90.5633 50.7065 91.116 50.8505C91.6632 50.9912 92.1905 51.2002 92.6856 51.4725C92.7531 51.5081 92.8041 51.5686 92.828 51.6411C92.8518 51.7136 92.8466 51.7926 92.8135 51.8614C92.7803 51.9301 92.7218 51.9834 92.6502 52.0099C92.5786 52.0364 92.4995 52.0341 92.4296 52.0035L92.4082 51.9937C91.9505 51.769 91.4665 51.6026 90.9675 51.4983C90.4743 51.3926 89.9679 51.3622 89.4655 51.4082C88.4686 51.4916 87.5115 51.8371 86.6913 52.4099L86.665 52.4293C86.5697 52.4925 86.4537 52.5163 86.3412 52.4958C86.2287 52.4753 86.1285 52.4121 86.0615 52.3195C85.9945 52.2268 85.966 52.1118 85.9819 51.9986C85.9978 51.8853 86.0568 51.7826 86.1467 51.7119L86.1608 51.7003Z" fill="#0c0c0c"/>
<path d="M77.3738 53.7691C76.4026 53.5312 75.3857 53.5545 74.4264 53.8368C73.9414 53.9756 73.4802 54.1867 73.0582 54.4632C72.6305 54.7408 72.2393 55.0711 71.894 55.4463L71.8785 55.4619C71.8244 55.516 71.7515 55.5471 71.675 55.5485C71.5985 55.5499 71.5245 55.5215 71.4685 55.4693C71.4126 55.4172 71.3791 55.3453 71.3751 55.2689C71.3711 55.1925 71.397 55.1175 71.4472 55.0599C71.8103 54.6271 72.2264 54.2418 72.6859 53.9132C73.1492 53.5794 73.6599 53.3169 74.201 53.1345C75.2979 52.7574 76.4759 52.6821 77.6118 52.9164C77.7267 52.9411 77.8271 53.0105 77.8908 53.1092C77.9546 53.2079 77.9765 53.3279 77.9518 53.4428C77.9271 53.5577 77.8577 53.658 77.759 53.7218C77.6603 53.7855 77.5403 53.8075 77.4254 53.7828L77.4074 53.7784L77.3738 53.7691Z" fill="#0c0c0c"/>
<path d="M83.848 74.7213C84.1729 74.6837 84.4939 74.6186 84.8078 74.5266C84.8434 74.5164 84.8767 74.4992 84.9057 74.4761C84.9347 74.453 84.9588 74.4244 84.9768 74.3919C84.9947 74.3595 85.0061 74.3238 85.0102 74.287C85.0144 74.2501 85.0113 74.2128 85.001 74.1772C84.9907 74.1416 84.9736 74.1083 84.9504 74.0793C84.9273 74.0503 84.8987 74.0262 84.8663 74.0082C84.8338 73.9903 84.7982 73.9789 84.7613 73.9747C84.7245 73.9706 84.6872 73.9737 84.6515 73.984C82.7626 74.5276 81.6885 73.8073 81.6432 73.7761C81.5819 73.7331 81.506 73.7162 81.4322 73.7291C81.3584 73.742 81.2928 73.7837 81.2497 73.845C81.2067 73.9063 81.1897 73.9822 81.2027 74.056C81.2156 74.1298 81.2573 74.1955 81.3186 74.2385C82.0806 74.6868 82.9744 74.8574 83.848 74.7213Z" fill="#0c0c0c"/>
<path d="M58.4664 59.8647L58.369 59.5921C70.8525 55.1106 67.7999 42.8602 67.7678 42.7371L68.0476 42.6636C68.0802 42.7901 71.2049 55.2936 58.4664 59.8647Z" fill="#0c0c0c"/>
<path opacity="0.1" d="M76.236 67.8909C77.6773 67.7359 78.7535 66.7531 78.6397 65.6958C78.526 64.6385 77.2653 63.9072 75.824 64.0622C74.3827 64.2173 73.3065 65.2001 73.4203 66.2574C73.534 67.3146 74.7947 68.046 76.236 67.8909Z" fill="#0c0c0c"/>
<path opacity="0.1" d="M91.4917 63.8464C91.6085 64.9021 92.8685 65.6326 94.3097 65.4793C94.5588 65.4525 94.8044 65.3998 95.0427 65.3221C95.1239 64.0659 95.14 62.857 95.1181 61.7371C94.7196 61.6328 94.3051 61.6037 93.896 61.6514C92.4544 61.8042 91.3787 62.7849 91.4917 63.8464Z" fill="#0c0c0c"/>
<path d="M119.366 134.622C118.708 142.347 115.51 190.54 114.878 200.055H27.5499C27.0578 191.474 25.0487 153.949 23.1822 137.167C21.4008 121.155 17.9053 113.136 20.4673 108.403C24.653 100.665 36.0949 96.1947 43.8958 95.1385C48.6597 94.4936 55.8245 94.0312 55.8245 94.0312C55.8245 94.0312 56.4314 106.304 70.8963 106.986C90.5878 107.915 89.2727 94.0312 89.3706 94.0312C92.5604 94.0312 110.786 96.0506 115.242 98.6934C127.391 105.885 120.762 118.251 119.366 134.622Z" fill="#E5E5E5"/>
<path d="M173.663 140.017L165.6 179.208C165.436 180.004 165.004 180.719 164.377 181.235C163.749 181.751 162.964 182.037 162.151 182.044L106.629 182.517C106.1 182.521 105.576 182.407 105.096 182.182C104.616 181.958 104.192 181.629 103.856 181.22C103.52 180.811 103.279 180.332 103.152 179.818C103.024 179.304 103.014 178.768 103.12 178.249L111.184 139.058C111.348 138.263 111.779 137.547 112.407 137.031C113.034 136.515 113.82 136.229 114.632 136.222L170.154 135.75C170.684 135.745 171.208 135.86 171.687 136.084C172.167 136.308 172.591 136.637 172.927 137.046C173.263 137.455 173.504 137.934 173.631 138.448C173.759 138.962 173.769 139.498 173.663 140.017Z" fill="#14213D"/>
<path d="M121.89 167.855C121.92 168.371 121.762 168.881 121.446 169.29C121.129 169.699 120.676 169.979 120.169 170.08L118.46 170.457C118.49 170.467 118.518 170.484 118.54 170.507C118.562 170.531 118.578 170.559 118.587 170.59C118.591 170.626 118.583 170.663 118.564 170.694C118.975 170.81 119.34 171.05 119.608 171.382C119.875 171.715 120.033 172.122 120.059 172.548C120.061 173.045 119.896 173.527 119.59 173.919C119.284 174.31 118.855 174.586 118.373 174.704L103.94 177.908C103.202 178.073 102.448 178.157 101.692 178.157C100.007 178.157 98.3477 177.747 96.8568 176.962C95.366 176.178 94.0883 175.043 93.1338 173.655C92.1217 172.186 91.7225 170.381 92.0212 168.622C92.3198 166.864 93.2928 165.291 94.7331 164.239L107.011 155.265C107.281 155.067 107.595 154.937 107.926 154.888L106.796 160.375L107.097 160.305L107.161 160.294L116.577 158.376C117.625 158.144 119.062 158.527 119.248 159.72C119.347 160.177 119.289 160.654 119.083 161.074C118.877 161.494 118.534 161.831 118.112 162.032C118.118 162.038 118.129 162.043 118.129 162.055C118.129 162.067 118.124 162.073 118.124 162.084L119.752 161.725C120.05 161.659 120.358 161.66 120.656 161.727C120.953 161.795 121.232 161.928 121.472 162.116C121.712 162.305 121.907 162.544 122.044 162.817C122.18 163.09 122.254 163.39 122.261 163.695C122.261 164.182 122.092 164.654 121.784 165.031C121.475 165.408 121.046 165.667 120.569 165.763L119.868 165.92C119.862 165.943 119.868 165.968 119.856 165.983C120.367 165.987 120.858 166.181 121.234 166.527C121.61 166.873 121.844 167.346 121.89 167.855Z" fill="#E98862"/>
<g opacity="0.25">
<path d="M108.751 163.986C108.761 164.035 108.791 164.077 108.833 164.104C108.875 164.132 108.926 164.142 108.975 164.132L117.983 162.282C118.033 162.272 118.076 162.243 118.104 162.2C118.132 162.158 118.142 162.107 118.131 162.057C118.121 162.008 118.092 161.965 118.05 161.937C118.007 161.909 117.956 161.899 117.907 161.909L108.898 163.759C108.849 163.769 108.806 163.799 108.778 163.841C108.751 163.883 108.741 163.934 108.752 163.983L108.751 163.986Z" fill="#0c0c0c"/>
</g>
<g opacity="0.25">
<path d="M109.456 167.982C109.467 168.03 109.497 168.072 109.539 168.099C109.58 168.126 109.631 168.135 109.68 168.125L119.734 166.064C119.783 166.053 119.826 166.023 119.853 165.981C119.88 165.939 119.89 165.888 119.88 165.839C119.868 165.79 119.838 165.748 119.796 165.721C119.755 165.694 119.704 165.684 119.655 165.693L109.601 167.754C109.552 167.765 109.509 167.795 109.482 167.837C109.454 167.879 109.445 167.93 109.455 167.979L109.456 167.982Z" fill="#0c0c0c"/>
</g>
<g opacity="0.25">
<path d="M110.195 172.314C110.205 172.363 110.235 172.405 110.277 172.433C110.319 172.46 110.37 172.47 110.419 172.46L118.438 170.815C118.463 170.811 118.486 170.801 118.507 170.787C118.528 170.773 118.547 170.755 118.561 170.734C118.575 170.713 118.584 170.69 118.589 170.665C118.594 170.64 118.594 170.615 118.589 170.59C118.584 170.565 118.574 170.542 118.56 170.521C118.545 170.5 118.527 170.482 118.506 170.469C118.485 170.455 118.461 170.446 118.437 170.441C118.412 170.437 118.386 170.437 118.362 170.442L110.342 172.087C110.293 172.098 110.25 172.127 110.222 172.169C110.195 172.211 110.185 172.263 110.196 172.312L110.195 172.314Z" fill="#0c0c0c"/>
</g>
<path d="M103.046 183.619L24.7421 197.769C22.2987 198.035 19.8268 197.731 17.5206 196.881C15.2143 196.031 13.1364 194.659 11.4498 192.871C9.76314 191.083 8.51374 188.928 7.79959 186.577C7.08544 184.225 6.92596 181.739 7.33367 179.316L18.2962 114.157C18.9964 109.997 21.3207 106.285 24.7577 103.838C26.4595 102.627 28.3833 101.762 30.4192 101.294C32.4551 100.826 34.5633 100.764 36.6233 101.11C38.6833 101.457 40.6549 102.206 42.4255 103.315C44.196 104.423 45.7309 105.87 46.9424 107.572C48.1539 109.274 49.0184 111.197 49.4864 113.233C49.9544 115.269 50.0169 117.377 49.6701 119.437L42.1973 164.29L99.6055 157.081L103.046 183.619Z" fill="#E5E5E5"/>
<path d="M24.7416 198.059C24.6723 198.054 24.607 198.024 24.5575 197.975C24.5081 197.926 24.4777 197.861 24.4718 197.792C24.4659 197.723 24.485 197.654 24.5255 197.597C24.5661 197.541 24.6254 197.5 24.6929 197.484L102.725 183.383L99.3553 157.404L42.2313 164.578C42.1868 164.583 42.1416 164.579 42.0993 164.564C42.057 164.549 42.0189 164.524 41.988 164.491C41.9566 164.459 41.9333 164.419 41.92 164.376C41.9066 164.333 41.9036 164.287 41.9111 164.243L46.6628 135.576C46.6686 135.538 46.6819 135.502 46.7019 135.47C46.7219 135.437 46.7483 135.409 46.7793 135.387C46.8104 135.365 46.8456 135.349 46.8828 135.34C46.9201 135.332 46.9586 135.331 46.9962 135.338C47.0337 135.344 47.0697 135.358 47.102 135.378C47.1343 135.398 47.1623 135.424 47.1844 135.455C47.2065 135.486 47.2223 135.521 47.2308 135.558C47.2394 135.595 47.2405 135.634 47.2342 135.671L42.5457 163.955L99.5685 156.794C99.6445 156.785 99.7209 156.806 99.7815 156.853C99.842 156.9 99.8817 156.968 99.8922 157.044L103.335 183.582C103.344 183.656 103.324 183.73 103.28 183.79C103.237 183.85 103.172 183.89 103.099 183.904L24.7937 198.054C24.7765 198.057 24.7591 198.059 24.7416 198.059Z" fill="#0c0c0c"/>
<path d="M42.1504 164.005L37.1133 164.811L37.205 165.384L42.242 164.577L42.1504 164.005Z" fill="#0c0c0c"/>
<path d="M307.558 44.2352C307.565 38.3427 306.393 32.5084 304.111 27.0756C301.83 21.6428 298.485 16.7213 294.272 12.6006C290.06 8.47994 285.067 5.2434 279.585 3.08144C274.104 0.91948 268.245 -0.124216 262.354 0.0117682C238.439 0.549577 219.122 20.393 219.19 44.3145C219.201 50.4894 220.51 56.5929 223.033 62.229C225.555 67.8651 229.235 72.908 233.832 77.0303C243.724 85.9278 249.596 98.4419 249.581 111.746V111.795L277.011 111.827V111.778C277.026 98.4911 282.897 85.9828 292.806 77.1277C297.446 72.9954 301.159 67.9285 303.701 62.2596C306.244 56.5907 307.558 50.4481 307.558 44.2352Z" fill="#E5E5E5"/>
<path d="M276.594 48.6219C276.14 48.0378 275.351 47.6748 274.249 47.5511C272.382 47.3423 270.25 48.3999 268.419 50.4607L268.241 50.6553L268.103 50.4344C267.857 50.036 267.577 49.6596 267.266 49.3096C265.948 47.8329 263.572 46.3251 259.723 47.5132C258.429 47.8898 257.239 48.5584 256.245 49.4673L256.111 49.5938L255.977 49.4673C255.669 49.1869 255.334 48.937 254.978 48.7212C252.815 47.4027 250.403 47.7186 248.761 48.216C248.306 48.3549 247.916 48.6555 247.667 49.0612C247.418 49.4668 247.325 49.9497 247.407 50.4188L258.159 111.871C258.177 111.974 258.235 112.066 258.321 112.126C258.406 112.187 258.513 112.211 258.616 112.193C258.719 112.175 258.811 112.117 258.871 112.031C258.932 111.946 258.956 111.84 258.938 111.736L248.184 50.2864C248.134 50.0069 248.189 49.7189 248.337 49.4768C248.485 49.2347 248.717 49.0552 248.989 48.9723C250.477 48.5226 252.652 48.2301 254.566 49.3987C254.881 49.5887 255.176 49.8094 255.447 50.0577L255.581 50.1803L255.47 50.3224C254.554 51.5312 254.043 52.9982 254.01 54.5144C253.907 57.0881 255.024 59.6618 256.501 60.2458C256.785 60.3626 257.097 60.3989 257.401 60.3509C257.705 60.303 257.99 60.1725 258.225 59.9738C258.727 59.563 259.491 58.4776 258.999 55.829C258.561 53.4962 257.807 51.6433 256.753 50.3108L256.639 50.1686L256.773 50.0421C257.683 49.2144 258.772 48.6078 259.954 48.2695C262.682 47.429 265.007 47.9658 266.673 49.8367C267.047 50.2583 267.373 50.7205 267.644 51.2146L267.707 51.325L267.632 51.4277C267.486 51.6224 267.344 51.8225 267.206 52.0278C265.611 54.3961 264.34 57.7671 265.319 59.5752C265.512 59.9257 265.802 60.2131 266.154 60.403C266.506 60.5929 266.906 60.6772 267.304 60.6459H267.34C268.153 60.6342 268.836 60.0935 269.259 59.1303C270.086 57.2473 269.843 54.054 268.686 51.5319L268.635 51.4214L268.714 51.3265C270.312 49.3923 272.128 48.3148 273.754 48.3148C273.892 48.3148 274.027 48.3226 274.161 48.3342C276.237 48.5713 276.205 49.6483 276.198 49.771L267.419 111.762C267.412 111.813 267.414 111.866 267.427 111.916C267.44 111.966 267.463 112.013 267.494 112.055C267.525 112.096 267.564 112.131 267.609 112.157C267.654 112.183 267.703 112.201 267.755 112.208C267.858 112.219 267.961 112.19 268.044 112.128C268.126 112.066 268.183 111.975 268.2 111.873L276.975 49.8917C277.018 49.435 276.881 48.9797 276.594 48.6219ZM258.222 55.9711C258.656 58.3039 258.02 59.1211 257.724 59.362C257.561 59.5032 257.352 59.5815 257.136 59.583C257.019 59.5815 256.902 59.5588 256.793 59.5158C255.774 59.1089 254.7 56.9698 254.797 54.5461C254.837 53.2729 255.24 52.0377 255.958 50.9853L256.112 50.7644L256.278 50.9814C257.29 52.4785 257.955 54.1835 258.222 55.9711ZM268.536 58.813C268.236 59.4944 267.83 59.8472 267.328 59.855H267.253C267.005 59.8822 266.754 59.8343 266.533 59.7176C266.312 59.6008 266.131 59.4205 266.014 59.1999C265.332 57.9369 266.124 55.0435 267.863 52.4698L268.076 52.1539L268.234 52.4776C269.077 54.6838 269.203 57.2891 268.536 58.8125V58.813Z" fill="white"/>
<path d="M249.598 111.756L277.028 111.783L277.027 113.386C277.023 117.024 275.575 120.511 273 123.081C270.425 125.65 266.935 127.092 263.298 127.088C259.66 127.084 256.173 125.636 253.604 123.061C251.034 120.487 249.593 116.997 249.596 113.359L249.598 111.756Z" fill="#14213D"/>
</svg>
