<?xml version="1.0" encoding="utf-8"?>
<!-- Generator: Adobe Illustrator 24.0.3, SVG Export Plug-In . SVG Version: 6.00 Build 0)  -->
<svg version="1.1" id="Layer_1" xmlns="http://www.w3.org/2000/svg" xmlns:xlink="http://www.w3.org/1999/xlink" x="0px" y="0px"
	 viewBox="0 0 567.5 404.9" style="enable-background:new 0 0 567.5 404.9;" xml:space="preserve">
<style type="text/css">
	.st0{filter:url(#filter-1);}
</style>
<filter  id="filter-1">
	<feColorMatrix  in="SourceGraphic" type="matrix" values="0 0 0 0 0.926178 0 0 0 0 0.719412 0 0 0 0 0.070505 0 0 0 1.000000 0">
		</feColorMatrix>
</filter>
<title>logo_skill_sign copy 22</title>
<g id="portfolio">
	<g id="_x36_-clients-topV2_x40_2x" transform="translate(-642.000000, -3351.000000)">
		<g id="Group-2-Copy-5" transform="translate(61.000000, 3354.000000)">
			<g id="logo_skill_sign-copy-22" transform="translate(659.000000, 1.000000)" class="st0">
				
					<g transform="translate(314.000000, 381.500000) rotate(-330.000000) translate(-314.000000, -381.500000) translate(22.000000, 105.000000)">
					<path id="Shape_3_" d="M234.6,67.8c0,0-29.9-15.4-39.9-23.2c-10-7.8-11.9-2.9-12.1-2.5c-0.2,0.4-3.6,5.2-1.7,9
						c0.9,2.2,2.7,3.9,4.8,4.8c3.4,2.7,6.2,6,8.5,9.7c0.9,1.7,1.5,3.5,1.8,5.4c-0.7,0.1-1.3-0.1-1.8-0.6c-1.1-0.8-10-7.1-12.7-9.1
						c-2.8-2-9.2-5.5-12.7-2c-3.5,3.5,5,20.5,5,20.5c3,3.6,5.5,7.7,7.4,12c1.5,5,4.6,10.3,3.1,12.6s-3.5,2.1-6.6-1.9
						s-20.8-25.5-24.4-38.7c-3.6-13.2-14.8-11.4-15-0.7c-0.3,10.7,10.5,21.7,12.3,30.2c1.8,8.5,11.6,31,11.6,31s5.4,14.2,4.2,14.7
						c-1.2,0.5-17.5-12.9-17.9-13.2c-19.3-18.2-36.1-38.7-50-61.2C76.9,28.7,70,18.8,70,18.8s-7.9-9.9-7.4-14.4
						c0.5-4.5,3.1-18.1,2.5-25.4s-2.5-18.1-13.6-8.1C40.4-19,51.5-7.1,46.5,6.3c-5,13.4-14.7,43.1-20.2,56.2S23.1,81.6,36.8,66
						c13.7-15.6,10.3-27.3,17.6-35.1c7.3-7.8,14.9,4.9,20.6,14.1c11.2,18,41.3,61.3,48.5,70c7.2,8.6,20.8,33.3,20.8,33.3
						s10.1,13.1,3.2,25.9c-6.9,12.8-16.1,11.8-20.4,9.5c-8.1-5.6-15-12.6-20.6-20.6c-4.8-7.8-38.3-57.9-42-67.1
						c-3.8-9.2-17.2-6.9-15,4.1c2.2,10.9,38,52.8,46.1,68.6c9.1,17.8,8.5,25.1,4.7,38.3s-22.9-0.7-31.2-13.3
						c-8.3-12.6-35.3-65.8-44.7-76.9c-9.3-11.1-16.3-1.7-15,1.7c1.2,3.4,44.6,71.5,52.9,90.2s5.6,27,3.8,30.1
						c-1.7,3.1-3.6,6.1-6,3.6c-2.4-2.6-1.6-4-5.5-10.2c-3.9-6.2-10.2-17.2-16.4-12.8c-6.1,4.4,5.6,15.6,3.8,26.5
						c-1.7,10.9,6.1,17.6,0.2,24.1c-5.9,6.5-18.6-31.4-22.6-38.1c-3.9-6.7-6.7-8.6-9.1-6.7c-2.4,1.9-0.3,20.8,9.3,42.7
						c9.6,21.9,15.7,29.7,14.7,36.2c-1,6.5-3.6,4.8-3.6,4.8c-5.3-3.1-14.1-9-16.7-14.6c-4.4-9.5-11.8-32.5-16.2-41
						c-4.4-8.5-8.2-20.4-14.6-19.3c-6.5,1.1,2.5,16.4,3.1,26.9c0.6,10.4,1.7,24.9-1.1,29.3c-2.8,4.4-22.6-4-42,15.6
						c-19.4,19.6-40.6,44.2-40.6,44.2s1.1,1.5-2.9,1.7s-1.3-37.3-0.9-46.3c0.3-9.1,0-90.7,10-113s-3.5-15.4-7.3-6.1
						c-3.7,9.3-7,25.9-8.7,39c-1.7,13.1-6.4,105.5-5.7,115.5c0.3,5,0.4,10,0,14.9c0,0,0.8,11.4,7.8,11.6s13.8-7.7,13.8-7.7
						s4.6-5.2,7.7-9c3.2-3.8,14.8-19.5,20.9-24.5c6.1-5,19.1-20.2,32.3-21.4c13.2-1.2,13.4,7.4,12.1,14.5c-1.3,7.2-4.1,89.9-2,100.3
						c2.1,10.4,7.8,29,20.6,37.6c12.8,8.6,22.7-3.8,28.8-10.6c6.1-6.8,15.7-34,16.3-58.9c0.2-15.9-2.4-31.8-7.6-47l-3.1-7.8
						c0,0-2.3-2.7-1.2-4.8c1.1-2.1,4.2-1.8,4.2-1.8c1.7-1,3.4-2.2,4.8-3.6c2.8-4.3,4.5-9.2,4.8-14.3c0.5-5.6,0.5-12.6,0.5-12.6
						c-0.4-2.1,0-4.2,1.2-5.9c2.1-3.6,3.9-7.4,5.3-11.4c1.8-4,2.7-8.4,2.7-12.9l0-3.6c0,0,7.3,0,9.6-2.3c4.6-5,8.1-10.9,10.3-17.3
						c3.7-9.8,0.4-11.6,2.8-13.6c2.5-2,7.2,1.3,7.2,1.3s5.9,4.4,15.6-3.5c5.5-4.2,9.2-10.2,10.5-17l1.7-10.2c0,0-0.5-3.9,1.8-4.2
						c2.3-0.3,4.8,2.5,4.8,2.5s6.3,5.1,10.3,4.3c6.3-2,12.1-5,17.4-8.9c5-6.3,8.7-13.6,10.7-21.4c2-8.6,1-4.2,2.4-6
						c1.4-1.8,7.1,0.9,10.3,1.9c3.1,0.9,6.7,3.4,9.7,2.5c2-0.7,3.8-1.7,5.4-3c-0.4-3.5-1-6.9-1.9-10.3c-1.4-4.9-9.3-23.1-7.4-29
						c1.9-5.9,3.6-3.6,3.6-3.6c4.1,1.6,8.7,0.4,11.4-2.9c4.9-5.7,4.7-15.6,4.7-15.6s-1.7-5.5-0.1-7.2s9,0.7,9,0.7s13,7.6,18.1,2.6
						c5.1-5.1-3.8-18.1-3.8-18.1s-7.1-7.5-5-9.6c2.1-2.1,9,1.9,9,1.9s6.2,4.1,10.2-0.5c1.2-0.9,1.7-2.4,1.5-4
						C237,69.6,236,68.3,234.6,67.8z M22.5,338c11.1,17.9,11.3,55.2,9.6,70.5c-1.7,15.2-10.6,37.5-22.6,37.7
						C1,444.5-2.2,435.5-5.1,428.2c-2.6-8-3.6-39.6-3.6-39.6s3.6-65,7-71.3C1.6,311.1,11.4,320.1,22.5,338z"/>
					<path id="Shape_2_" d="M321.3-19.9c-8.8-7.8-26-6.6-26-6.6c-8.8,3-17.5,6.4-26,10.3c-3.7,2.1-11.4,8.8-15.3,10.3
						c-1.1,0.3-2.3,0-3.2-0.7c-0.9-0.7-1.5-1.7-1.5-2.9c-0.5-4.5,5.3-20.5,6.8-26.1c1.5-5.7-3.5-12.4-12.1,0
						c-8.6,12.4-3.7,38.4-7.2,44.6s-4,5-7.1,4.4c-3.1-0.6-16.1-16.8-26.1-9.7c-10,7.1-8.5,14.5-8.5,14.5s-0.2,2.6-3.6,2.4
						s-18.7-3.8-24.8,0.6c-6.1,4.5-7.8,7.8,1.2,10.9c10.6-1.2,24.3-2.5,33.6,3c15.5,9.1,20.7,15.4,20.7,15.4s8.5,11.2,19.8,2.6
						c11.4-8.5,4.7-24,4.3-27.1c-0.2-2.6-0.1-5.1,0.3-7.7c0.8-1.7,1.7-3.4,2.8-5c0.9-1.2,5.4-1.8,5.4-1.8S287.6-7,294.9-10.3
						c7.3-3.3,19-2.5,21.7,9.6c2.7,12.2-0.4,42.4-14.5,54.4c-14.1,11.9-21.7,12.1-21.7,12.1c-4,0.9-8-1.2-9.6-4.9
						c-3.5-6.6-4.6-14.7-12.1-12.1c-7.4,2.6-5.4,13.9-5.4,13.9c2.9,6.9,8.1,12.5,14.8,16c11.3,6.1,27.7-4.2,37.9-12.8
						c10.2-8.6,17.6-14.9,20.7-43.8l2.9-28.8C329.6-6.7,330.3-12,321.3-19.9z M229.5,30.9c5.9,5.9,9.5,12.3,7.9,12.6
						c-1.6,0.3-2.7-0.4-5.4-1.8c-3.9-2.9-7.5-6.2-10.9-9.6c0,0-9.7-10.6-10.3-12.7c-0.5-2,3-0.5,5.4,0.7
						C221.2,23,225.7,26.6,229.5,30.9L229.5,30.9z"/>
					<path id="Path_5_" d="M155.7,28.9c1.6-1.7,3-3.5,4.2-5.5c2-3.2-0.7-10.8-1-15.7c-0.1-3.2,1.3-6.4,3.7-8.5
						c1.3-1.3,2.9-4.3,0.7-6.6S156.9-8,156.9-8l-6,6.1c0,0-1.5,3-5.2,0.7c-3.7-2.3-4.6-0.9-6.5,0.7c-1.8,1.6-1.1,5.1-0.7,11.5
						c0.4,6.4,2.3,4-0.7,9.1c-3,5.1-4.3,7.5-1.3,9.7C139.4,31.9,148.6,35.3,155.7,28.9z"/>
					<path id="Path_4_" d="M34.4,218.7c1.5-1.7,2.9-3.5,4.2-5.5c2-3.2-0.8-10.8-1-15.7c-0.1-3.2,1.2-6.3,3.7-8.4
						c1.3-1.3,2.9-4.3,0.7-6.6c-2.2-2.3-6.5-0.5-6.5-0.5l-6,6.2c0,0-1.5,3-5.2,0.7c-3.7-2.3-4.6-1-6.5,0.7
						c-1.8,1.6-1.1,5.1-0.7,11.5c0.4,6.4,2.3,4-0.7,9.1c-3,5.1-4.2,7.5-1.3,9.7C18,221.9,27.3,225,34.4,218.7z"/>
					<path id="Path_3_" d="M71.8,347.6c0,0,34.7-78.9,103.6-136.2c71.3-59.3,81.2-61.9,90.4-63.8c9.2-1.9,5.9,3.3,1,12.6
						c-4.9,9.2-72.3,92.4-95.2,131c-23,38.6-16.7,39.3-14.8,39c14.3-2,54.1-39.8,64-49.9s-1.7,17.6-32.7,44.3
						c-31.1,26.8-39.3,24.8-45.4,22.3c-5.1-2.1-9.4-14.4-1.7-29.3c4.8-9.3,31.9-52.7,45.8-72.2c14-19.5,43.4-54,43.4-54
						s10.4-12.4,8.3-14.5c-2.1-2.2-31.1,19-42.2,28.8c-11.1,9.8-64,56-91,99.7c-6.5,13.4-17.5,39.2-17.5,39.2s-3.9,10.7-10.7,9.7
						C70.3,353.2,71.8,347.6,71.8,347.6z"/>
				</g>
			</g>
		</g>
	</g>
</g>
</svg>
