<?xml version="1.0" encoding="UTF-8"?>
<svg width="457px" height="408px" viewBox="0 0 457 408" version="1.1" xmlns="http://www.w3.org/2000/svg" xmlns:xlink="http://www.w3.org/1999/xlink">
    <title>Group 5</title>
    <defs>
        <filter id="filter-1">
            <feColorMatrix in="SourceGraphic" type="matrix" values="0 0 0 0 0.545451 0 0 0 0 0.932858 0 0 0 0 0.484773 0 0 0 1.000000 0"></feColorMatrix>
        </filter>
        <filter id="filter-2">
            <feColorMatrix in="SourceGraphic" type="matrix" values="0 0 0 0 0.478431 0 0 0 0 0.803922 0 0 0 0 0.427451 0 0 0 1.000000 0"></feColorMatrix>
        </filter>
        <filter id="filter-3">
            <feColorMatrix in="SourceGraphic" type="matrix" values="0 0 0 0 0.478431 0 0 0 0 0.803922 0 0 0 0 0.427451 0 0 0 1.000000 0"></feColorMatrix>
        </filter>
        <filter id="filter-4">
            <feColorMatrix in="SourceGraphic" type="matrix" values="0 0 0 0 0.478431 0 0 0 0 0.803922 0 0 0 0 0.427451 0 0 0 1.000000 0"></feColorMatrix>
        </filter>
        <filter id="filter-5">
            <feColorMatrix in="SourceGraphic" type="matrix" values="0 0 0 0 0.478431 0 0 0 0 0.803922 0 0 0 0 0.427451 0 0 0 1.000000 0"></feColorMatrix>
        </filter>
        <filter id="filter-6">
            <feColorMatrix in="SourceGraphic" type="matrix" values="0 0 0 0 0.478431 0 0 0 0 0.803922 0 0 0 0 0.427451 0 0 0 1.000000 0"></feColorMatrix>
        </filter>
        <filter id="filter-7">
            <feColorMatrix in="SourceGraphic" type="matrix" values="0 0 0 0 0.478431 0 0 0 0 0.803922 0 0 0 0 0.427451 0 0 0 1.000000 0"></feColorMatrix>
        </filter>
        <filter id="filter-8">
            <feColorMatrix in="SourceGraphic" type="matrix" values="0 0 0 0 0.478431 0 0 0 0 0.803922 0 0 0 0 0.427451 0 0 0 1.000000 0"></feColorMatrix>
        </filter>
        <filter id="filter-9">
            <feColorMatrix in="SourceGraphic" type="matrix" values="0 0 0 0 0.478431 0 0 0 0 0.803922 0 0 0 0 0.427451 0 0 0 1.000000 0"></feColorMatrix>
        </filter>
        <filter id="filter-10">
            <feColorMatrix in="SourceGraphic" type="matrix" values="0 0 0 0 0.478431 0 0 0 0 0.803922 0 0 0 0 0.427451 0 0 0 1.000000 0"></feColorMatrix>
        </filter>
        <filter id="filter-11">
            <feColorMatrix in="SourceGraphic" type="matrix" values="0 0 0 0 0.478431 0 0 0 0 0.803922 0 0 0 0 0.427451 0 0 0 1.000000 0"></feColorMatrix>
        </filter>
        <filter id="filter-12">
            <feColorMatrix in="SourceGraphic" type="matrix" values="0 0 0 0 0.478431 0 0 0 0 0.803922 0 0 0 0 0.427451 0 0 0 1.000000 0"></feColorMatrix>
        </filter>
        <filter id="filter-13">
            <feColorMatrix in="SourceGraphic" type="matrix" values="0 0 0 0 0.478431 0 0 0 0 0.803922 0 0 0 0 0.427451 0 0 0 1.000000 0"></feColorMatrix>
        </filter>
        <filter id="filter-14">
            <feColorMatrix in="SourceGraphic" type="matrix" values="0 0 0 0 0.478431 0 0 0 0 0.803922 0 0 0 0 0.427451 0 0 0 1.000000 0"></feColorMatrix>
        </filter>
        <filter id="filter-15">
            <feColorMatrix in="SourceGraphic" type="matrix" values="0 0 0 0 0.478431 0 0 0 0 0.803922 0 0 0 0 0.427451 0 0 0 1.000000 0"></feColorMatrix>
        </filter>
        <filter id="filter-16">
            <feColorMatrix in="SourceGraphic" type="matrix" values="0 0 0 0 0.478431 0 0 0 0 0.803922 0 0 0 0 0.427451 0 0 0 1.000000 0"></feColorMatrix>
        </filter>
        <filter id="filter-17">
            <feColorMatrix in="SourceGraphic" type="matrix" values="0 0 0 0 0.478431 0 0 0 0 0.803922 0 0 0 0 0.427451 0 0 0 1.000000 0"></feColorMatrix>
        </filter>
        <filter id="filter-18">
            <feColorMatrix in="SourceGraphic" type="matrix" values="0 0 0 0 0.478431 0 0 0 0 0.803922 0 0 0 0 0.427451 0 0 0 1.000000 0"></feColorMatrix>
        </filter>
        <filter id="filter-19">
            <feColorMatrix in="SourceGraphic" type="matrix" values="0 0 0 0 0.478431 0 0 0 0 0.803922 0 0 0 0 0.427451 0 0 0 1.000000 0"></feColorMatrix>
        </filter>
        <filter id="filter-20">
            <feColorMatrix in="SourceGraphic" type="matrix" values="0 0 0 0 0.478431 0 0 0 0 0.803922 0 0 0 0 0.427451 0 0 0 1.000000 0"></feColorMatrix>
        </filter>
        <filter id="filter-21">
            <feColorMatrix in="SourceGraphic" type="matrix" values="0 0 0 0 0.478431 0 0 0 0 0.803922 0 0 0 0 0.427451 0 0 0 1.000000 0"></feColorMatrix>
        </filter>
        <filter id="filter-22">
            <feColorMatrix in="SourceGraphic" type="matrix" values="0 0 0 0 0.478431 0 0 0 0 0.803922 0 0 0 0 0.427451 0 0 0 1.000000 0"></feColorMatrix>
        </filter>
        <filter id="filter-23">
            <feColorMatrix in="SourceGraphic" type="matrix" values="0 0 0 0 0.478431 0 0 0 0 0.803922 0 0 0 0 0.427451 0 0 0 1.000000 0"></feColorMatrix>
        </filter>
        <filter id="filter-24">
            <feColorMatrix in="SourceGraphic" type="matrix" values="0 0 0 0 0.478431 0 0 0 0 0.803922 0 0 0 0 0.427451 0 0 0 1.000000 0"></feColorMatrix>
        </filter>
        <filter id="filter-25">
            <feColorMatrix in="SourceGraphic" type="matrix" values="0 0 0 0 0.478431 0 0 0 0 0.803922 0 0 0 0 0.427451 0 0 0 1.000000 0"></feColorMatrix>
        </filter>
        <filter id="filter-26">
            <feColorMatrix in="SourceGraphic" type="matrix" values="0 0 0 0 0.478431 0 0 0 0 0.803922 0 0 0 0 0.427451 0 0 0 1.000000 0"></feColorMatrix>
        </filter>
        <filter id="filter-27">
            <feColorMatrix in="SourceGraphic" type="matrix" values="0 0 0 0 0.478431 0 0 0 0 0.803922 0 0 0 0 0.427451 0 0 0 1.000000 0"></feColorMatrix>
        </filter>
        <filter id="filter-28">
            <feColorMatrix in="SourceGraphic" type="matrix" values="0 0 0 0 0.478431 0 0 0 0 0.803922 0 0 0 0 0.427451 0 0 0 1.000000 0"></feColorMatrix>
        </filter>
        <filter id="filter-29">
            <feColorMatrix in="SourceGraphic" type="matrix" values="0 0 0 0 0.478431 0 0 0 0 0.803922 0 0 0 0 0.427451 0 0 0 1.000000 0"></feColorMatrix>
        </filter>
        <filter id="filter-30">
            <feColorMatrix in="SourceGraphic" type="matrix" values="0 0 0 0 0.478431 0 0 0 0 0.803922 0 0 0 0 0.427451 0 0 0 1.000000 0"></feColorMatrix>
        </filter>
        <filter id="filter-31">
            <feColorMatrix in="SourceGraphic" type="matrix" values="0 0 0 0 0.478431 0 0 0 0 0.803922 0 0 0 0 0.427451 0 0 0 1.000000 0"></feColorMatrix>
        </filter>
    </defs>
    <g id="portfolio" stroke="none" strokeWidth="1" fill="none" fill-rule="evenodd" opacity="0.795503162">
        <g id="6-2-inleed@2x" transform="translate(-492.000000, -113.000000)">
            <g id="Group-5" transform="translate(-31.000000, 0.000000)" filter="url(#filter-1)">
                <g transform="translate(523.000000, 113.000000)">
                    <g id="Group-14-Copy-3" transform="translate(276.000000, 7.000000)">
                        <g filter="url(#filter-2)" id="Group-4-Copy-2">
                            <g transform="translate(0.000000, 279.000000)">
                                <polygon id="Path" fill="#FFFFFF" fill-rule="nonzero" points="56.254717 31.3144339 0 26.3264363 0 6.77068841 56.254717 11.7586861"></polygon>
                                <polygon id="Path" fill="#FFFFFF" fill-rule="nonzero" points="56.254717 55.0118434 0 49.8518458 0 29.6217618 56.254717 34.7817594"></polygon>
                                <polygon id="Path" fill="#FFFFFF" fill-rule="nonzero" points="56.254717 78.7092528 0 73.5492552 0 53.3191713 56.254717 58.4791688"></polygon>
                                <polygon id="Path" fill="#FFFFFF" fill-rule="nonzero" opacity="0.697800409" points="58.7735849 31.3144339 58.7735849 11.8042635 89 0 89 19.1875411"></polygon>
                                <polygon id="Path" fill="#FFFFFF" fill-rule="nonzero" opacity="0.697800409" points="58.7735849 55.0118434 58.7735849 35.1430212 89 22.8510734 89 42.7198955"></polygon>
                                <polygon id="Path" fill="#FFFFFF" fill-rule="nonzero" opacity="0.697800409" points="89 65.6468896 58.7735849 78.7092528 58.7735849 58.2925632 89 45.7021468 89 66.1188364"></polygon>
                            </g>
                        </g>
                        <g filter="url(#filter-3)" id="Group-4-Copy-4">
                            <g transform="translate(0.000000, 140.000000)">
                                <polygon id="Path" fill="#FFFFFF" fill-rule="nonzero" points="56.254717 31.8222355 0 26.7165537 0 6.69941801 56.254717 11.8050998"></polygon>
                                <polygon id="Path" fill="#FFFFFF" fill-rule="nonzero" points="56.254717 55.2701986 0 50.1645168 0 30.147381 56.254717 35.2530629"></polygon>
                                <polygon id="Path" fill="#FFFFFF" fill-rule="nonzero" points="56.254717 77.8807344 0 72.9452419 0 53.5953441 56.254717 58.5308365"></polygon>
                                <polygon id="Path" fill="#FFFFFF" fill-rule="nonzero" opacity="0.697800409" points="58.7735849 31.8222355 58.7735849 11.995684 89 0 89 19.4986904"></polygon>
                                <polygon id="Path" fill="#FFFFFF" fill-rule="nonzero" opacity="0.697800409" points="58.7735849 55.2701986 58.7735849 35.093162 89 22.6105358 89 42.7875723"></polygon>
                                <polygon id="Path" fill="#FFFFFF" fill-rule="nonzero" opacity="0.697800409" points="89 65.2872765 58.7735849 77.8807344 58.7735849 58.1969516 89 46.0584988 89 65.7422816"></polygon>
                            </g>
                        </g>
                        <g filter="url(#filter-4)" id="Group-4-Copy">
                            <g transform="translate(0.000000, 348.000000)">
                                <polygon id="Path" fill="#FFFFFF" fill-rule="nonzero" points="56.254717 32.3799768 0 27.1848088 0 6.81683722 56.254717 12.0120052"></polygon>
                                <polygon id="Path" fill="#FFFFFF" fill-rule="nonzero" opacity="0.697800409" points="58.7735849 32.3799768 58.7735849 12.2059297 89 0 89 19.8404396"></polygon>
                            </g>
                        </g>
                        <g filter="url(#filter-5)" id="Group-4-Copy-3">
                            <g transform="translate(0.000000, 209.000000)">
                                <polygon id="Path" fill="#FFFFFF" fill-rule="nonzero" points="56.254717 31.8222355 0 26.7165537 0 6.69941801 56.254717 11.8050998"></polygon>
                                <polygon id="Path" fill="#FFFFFF" fill-rule="nonzero" points="56.254717 54.4327713 0 49.3270895 0 29.3099538 56.254717 34.4156356"></polygon>
                                <polygon id="Path" fill="#FFFFFF" fill-rule="nonzero" points="56.254717 77.8807344 0 72.7750525 0 52.7579168 56.254717 57.8635986"></polygon>
                                <polygon id="Path" fill="#FFFFFF" fill-rule="nonzero" opacity="0.697800409" points="58.7735849 31.8222355 58.7735849 11.995684 89 0 89 19.4986904"></polygon>
                                <polygon id="Path" fill="#FFFFFF" fill-rule="nonzero" opacity="0.697800409" points="58.7735849 54.4327713 58.7735849 34.7730947 89 22.6105358 89 42.2702124"></polygon>
                                <polygon id="Path" fill="#FFFFFF" fill-rule="nonzero" opacity="0.697800409" points="89 65.2872765 58.7735849 77.8807344 58.7735849 58.1969516 89 46.0584988 89 65.7422816"></polygon>
                            </g>
                        </g>
                        <g filter="url(#filter-6)" id="Group-4-Copy-5">
                            <g transform="translate(0.000000, 70.000000)">
                                <polygon id="Path" fill="#FFFFFF" fill-rule="nonzero" points="56.254717 30.9848083 0 26.0493159 0 6.69941801 56.254717 11.6349104"></polygon>
                                <polygon id="Path" fill="#FFFFFF" fill-rule="nonzero" points="56.254717 54.4327713 0 49.3270895 0 29.3099538 56.254717 34.4156356"></polygon>
                                <polygon id="Path" fill="#FFFFFF" fill-rule="nonzero" points="56.254717 77.8807344 0 72.7750525 0 52.7579168 56.254717 57.8635986"></polygon>
                                <polygon id="Path" fill="#FFFFFF" fill-rule="nonzero" opacity="0.697800409" points="58.7735849 30.9848083 58.7735849 11.6800081 89 0 89 18.985567"></polygon>
                                <polygon id="Path" fill="#FFFFFF" fill-rule="nonzero" opacity="0.697800409" points="58.7735849 54.4327713 58.7735849 34.7730947 89 22.6105358 89 42.2702124"></polygon>
                                <polygon id="Path" fill="#FFFFFF" fill-rule="nonzero" opacity="0.697800409" points="89 64.9558697 58.7735849 77.8807344 58.7735849 57.6789573 89 45.2210716 89 65.4228487"></polygon>
                            </g>
                        </g>
                        <g filter="url(#filter-7)" id="Group-4-Copy-6">
                            <g>
                                <polygon id="Path" fill="#FFFFFF" fill-rule="nonzero" points="56.254717 32.16077 0 27.0007724 0 6.77068841 56.254717 11.930686"></polygon>
                                <polygon id="Path" fill="#FFFFFF" fill-rule="nonzero" points="56.254717 55.0118434 0 50.0238457 0 30.4680979 56.254717 35.4560955"></polygon>
                                <polygon id="Path" fill="#FFFFFF" fill-rule="nonzero" points="56.254717 78.7092528 0 73.5492552 0 53.3191713 56.254717 58.4791688"></polygon>
                                <polygon id="Path" fill="#FFFFFF" fill-rule="nonzero" opacity="0.697800409" points="58.7735849 32.16077 58.7735849 12.1232977 89 0 89 19.7061233"></polygon>
                                <polygon id="Path" fill="#FFFFFF" fill-rule="nonzero" opacity="0.697800409" points="58.7735849 55.0118434 58.7735849 35.1430212 89 22.8510734 89 42.7198955"></polygon>
                                <polygon id="Path" fill="#FFFFFF" fill-rule="nonzero" opacity="0.697800409" points="89 65.981822 58.7735849 78.7092528 58.7735849 58.8160681 89 46.5484828 89 66.4416676"></polygon>
                            </g>
                        </g>
                    </g>
                    <g id="Group-14-Copy-5" transform="translate(92.000000, 20.000000)">
                        <g filter="url(#filter-8)" id="Group-4-Copy-2">
                            <g transform="translate(0.000000, 279.000000)">
                                <polygon id="Path" fill="#FFFFFF" fill-rule="nonzero" points="56.254717 31.3144339 0 26.3264363 0 6.77068841 56.254717 11.7586861"></polygon>
                                <polygon id="Path" fill="#FFFFFF" fill-rule="nonzero" points="56.254717 55.0118434 0 49.8518458 0 29.6217618 56.254717 34.7817594"></polygon>
                                <polygon id="Path" fill="#FFFFFF" fill-rule="nonzero" points="56.254717 78.7092528 0 73.5492552 0 53.3191713 56.254717 58.4791688"></polygon>
                                <polygon id="Path" fill="#FFFFFF" fill-rule="nonzero" opacity="0.697800409" points="58.7735849 31.3144339 58.7735849 11.8042635 89 0 89 19.1875411"></polygon>
                                <polygon id="Path" fill="#FFFFFF" fill-rule="nonzero" opacity="0.697800409" points="58.7735849 55.0118434 58.7735849 35.1430212 89 22.8510734 89 42.7198955"></polygon>
                                <polygon id="Path" fill="#FFFFFF" fill-rule="nonzero" opacity="0.697800409" points="89 65.6468896 58.7735849 78.7092528 58.7735849 58.2925632 89 45.7021468 89 66.1188364"></polygon>
                            </g>
                        </g>
                        <g filter="url(#filter-9)" id="Group-4-Copy-4">
                            <g transform="translate(0.000000, 140.000000)">
                                <polygon id="Path" fill="#FFFFFF" fill-rule="nonzero" points="56.254717 31.8222355 0 26.7165537 0 6.69941801 56.254717 11.8050998"></polygon>
                                <polygon id="Path" fill="#FFFFFF" fill-rule="nonzero" points="56.254717 55.2701986 0 50.1645168 0 30.147381 56.254717 35.2530629"></polygon>
                                <polygon id="Path" fill="#FFFFFF" fill-rule="nonzero" points="56.254717 77.8807344 0 72.9452419 0 53.5953441 56.254717 58.5308365"></polygon>
                                <polygon id="Path" fill="#FFFFFF" fill-rule="nonzero" opacity="0.697800409" points="58.7735849 31.8222355 58.7735849 11.995684 89 0 89 19.4986904"></polygon>
                                <polygon id="Path" fill="#FFFFFF" fill-rule="nonzero" opacity="0.697800409" points="58.7735849 55.2701986 58.7735849 35.093162 89 22.6105358 89 42.7875723"></polygon>
                                <polygon id="Path" fill="#FFFFFF" fill-rule="nonzero" opacity="0.697800409" points="89 65.2872765 58.7735849 77.8807344 58.7735849 58.1969516 89 46.0584988 89 65.7422816"></polygon>
                            </g>
                        </g>
                        <g filter="url(#filter-10)" id="Group-4-Copy">
                            <g transform="translate(0.000000, 348.000000)">
                                <polygon id="Path" fill="#FFFFFF" fill-rule="nonzero" points="56.254717 32.3799768 0 27.1848088 0 6.81683722 56.254717 12.0120052"></polygon>
                                <polygon id="Path" fill="#FFFFFF" fill-rule="nonzero" opacity="0.697800409" points="58.7735849 32.3799768 58.7735849 12.2059297 89 0 89 19.8404396"></polygon>
                            </g>
                        </g>
                        <g filter="url(#filter-11)" id="Group-4-Copy-3">
                            <g transform="translate(0.000000, 209.000000)">
                                <polygon id="Path" fill="#FFFFFF" fill-rule="nonzero" points="56.254717 31.8222355 0 26.7165537 0 6.69941801 56.254717 11.8050998"></polygon>
                                <polygon id="Path" fill="#FFFFFF" fill-rule="nonzero" points="56.254717 54.4327713 0 49.3270895 0 29.3099538 56.254717 34.4156356"></polygon>
                                <polygon id="Path" fill="#FFFFFF" fill-rule="nonzero" points="56.254717 77.8807344 0 72.7750525 0 52.7579168 56.254717 57.8635986"></polygon>
                                <polygon id="Path" fill="#FFFFFF" fill-rule="nonzero" opacity="0.697800409" points="58.7735849 31.8222355 58.7735849 11.995684 89 0 89 19.4986904"></polygon>
                                <polygon id="Path" fill="#FFFFFF" fill-rule="nonzero" opacity="0.697800409" points="58.7735849 54.4327713 58.7735849 34.7730947 89 22.6105358 89 42.2702124"></polygon>
                                <polygon id="Path" fill="#FFFFFF" fill-rule="nonzero" opacity="0.697800409" points="89 65.2872765 58.7735849 77.8807344 58.7735849 58.1969516 89 46.0584988 89 65.7422816"></polygon>
                            </g>
                        </g>
                        <g filter="url(#filter-12)" id="Group-4-Copy-5">
                            <g transform="translate(0.000000, 70.000000)">
                                <polygon id="Path" fill="#FFFFFF" fill-rule="nonzero" points="56.254717 30.9848083 0 26.0493159 0 6.69941801 56.254717 11.6349104"></polygon>
                                <polygon id="Path" fill="#FFFFFF" fill-rule="nonzero" points="56.254717 54.4327713 0 49.3270895 0 29.3099538 56.254717 34.4156356"></polygon>
                                <polygon id="Path" fill="#FFFFFF" fill-rule="nonzero" points="56.254717 77.8807344 0 72.7750525 0 52.7579168 56.254717 57.8635986"></polygon>
                                <polygon id="Path" fill="#FFFFFF" fill-rule="nonzero" opacity="0.697800409" points="58.7735849 30.9848083 58.7735849 11.6800081 89 0 89 18.985567"></polygon>
                                <polygon id="Path" fill="#FFFFFF" fill-rule="nonzero" opacity="0.697800409" points="58.7735849 54.4327713 58.7735849 34.7730947 89 22.6105358 89 42.2702124"></polygon>
                                <polygon id="Path" fill="#FFFFFF" fill-rule="nonzero" opacity="0.697800409" points="89 64.9558697 58.7735849 77.8807344 58.7735849 57.6789573 89 45.2210716 89 65.4228487"></polygon>
                            </g>
                        </g>
                        <g filter="url(#filter-13)" id="Group-4-Copy-6">
                            <g>
                                <polygon id="Path" fill="#FFFFFF" fill-rule="nonzero" points="56.254717 32.16077 0 27.0007724 0 6.77068841 56.254717 11.930686"></polygon>
                                <polygon id="Path" fill="#FFFFFF" fill-rule="nonzero" points="56.254717 55.0118434 0 50.0238457 0 30.4680979 56.254717 35.4560955"></polygon>
                                <polygon id="Path" fill="#FFFFFF" fill-rule="nonzero" points="56.254717 78.7092528 0 73.5492552 0 53.3191713 56.254717 58.4791688"></polygon>
                                <polygon id="Path" fill="#FFFFFF" fill-rule="nonzero" opacity="0.697800409" points="58.7735849 32.16077 58.7735849 12.1232977 89 0 89 19.7061233"></polygon>
                                <polygon id="Path" fill="#FFFFFF" fill-rule="nonzero" opacity="0.697800409" points="58.7735849 55.0118434 58.7735849 35.1430212 89 22.8510734 89 42.7198955"></polygon>
                                <polygon id="Path" fill="#FFFFFF" fill-rule="nonzero" opacity="0.697800409" points="89 65.981822 58.7735849 78.7092528 58.7735849 58.8160681 89 46.5484828 89 66.4416676"></polygon>
                            </g>
                        </g>
                    </g>
                    <g id="Group-14-Copy-4" transform="translate(184.000000, 14.000000)">
                        <g filter="url(#filter-14)" id="Group-4-Copy-2">
                            <g transform="translate(0.000000, 279.000000)">
                                <polygon id="Path" fill="#FFFFFF" fill-rule="nonzero" points="56.254717 31.3144339 0 26.3264363 0 6.77068841 56.254717 11.7586861"></polygon>
                                <polygon id="Path" fill="#FFFFFF" fill-rule="nonzero" points="56.254717 55.0118434 0 49.8518458 0 29.6217618 56.254717 34.7817594"></polygon>
                                <polygon id="Path" fill="#FFFFFF" fill-rule="nonzero" points="56.254717 78.7092528 0 73.5492552 0 53.3191713 56.254717 58.4791688"></polygon>
                                <polygon id="Path" fill="#FFFFFF" fill-rule="nonzero" opacity="0.697800409" points="58.7735849 31.3144339 58.7735849 11.8042635 89 0 89 19.1875411"></polygon>
                                <polygon id="Path" fill="#FFFFFF" fill-rule="nonzero" opacity="0.697800409" points="58.7735849 55.0118434 58.7735849 35.1430212 89 22.8510734 89 42.7198955"></polygon>
                                <polygon id="Path" fill="#FFFFFF" fill-rule="nonzero" opacity="0.697800409" points="89 65.6468896 58.7735849 78.7092528 58.7735849 58.2925632 89 45.7021468 89 66.1188364"></polygon>
                            </g>
                        </g>
                        <g filter="url(#filter-15)" id="Group-4-Copy-4">
                            <g transform="translate(0.000000, 140.000000)">
                                <polygon id="Path" fill="#FFFFFF" fill-rule="nonzero" points="56.254717 31.8222355 0 26.7165537 0 6.69941801 56.254717 11.8050998"></polygon>
                                <polygon id="Path" fill="#FFFFFF" fill-rule="nonzero" points="56.254717 55.2701986 0 50.1645168 0 30.147381 56.254717 35.2530629"></polygon>
                                <polygon id="Path" fill="#FFFFFF" fill-rule="nonzero" points="56.254717 77.8807344 0 72.9452419 0 53.5953441 56.254717 58.5308365"></polygon>
                                <polygon id="Path" fill="#FFFFFF" fill-rule="nonzero" opacity="0.697800409" points="58.7735849 31.8222355 58.7735849 11.995684 89 0 89 19.4986904"></polygon>
                                <polygon id="Path" fill="#FFFFFF" fill-rule="nonzero" opacity="0.697800409" points="58.7735849 55.2701986 58.7735849 35.093162 89 22.6105358 89 42.7875723"></polygon>
                                <polygon id="Path" fill="#FFFFFF" fill-rule="nonzero" opacity="0.697800409" points="89 65.2872765 58.7735849 77.8807344 58.7735849 58.1969516 89 46.0584988 89 65.7422816"></polygon>
                            </g>
                        </g>
                        <g filter="url(#filter-16)" id="Group-4-Copy">
                            <g transform="translate(0.000000, 348.000000)">
                                <polygon id="Path" fill="#FFFFFF" fill-rule="nonzero" points="56.254717 32.3799768 0 27.1848088 0 6.81683722 56.254717 12.0120052"></polygon>
                                <polygon id="Path" fill="#FFFFFF" fill-rule="nonzero" opacity="0.697800409" points="58.7735849 32.3799768 58.7735849 12.2059297 89 0 89 19.8404396"></polygon>
                            </g>
                        </g>
                        <g filter="url(#filter-17)" id="Group-4-Copy-3">
                            <g transform="translate(0.000000, 209.000000)">
                                <polygon id="Path" fill="#FFFFFF" fill-rule="nonzero" points="56.254717 31.8222355 0 26.7165537 0 6.69941801 56.254717 11.8050998"></polygon>
                                <polygon id="Path" fill="#FFFFFF" fill-rule="nonzero" points="56.254717 54.4327713 0 49.3270895 0 29.3099538 56.254717 34.4156356"></polygon>
                                <polygon id="Path" fill="#FFFFFF" fill-rule="nonzero" points="56.254717 77.8807344 0 72.7750525 0 52.7579168 56.254717 57.8635986"></polygon>
                                <polygon id="Path" fill="#FFFFFF" fill-rule="nonzero" opacity="0.697800409" points="58.7735849 31.8222355 58.7735849 11.995684 89 0 89 19.4986904"></polygon>
                                <polygon id="Path" fill="#FFFFFF" fill-rule="nonzero" opacity="0.697800409" points="58.7735849 54.4327713 58.7735849 34.7730947 89 22.6105358 89 42.2702124"></polygon>
                                <polygon id="Path" fill="#FFFFFF" fill-rule="nonzero" opacity="0.697800409" points="89 65.2872765 58.7735849 77.8807344 58.7735849 58.1969516 89 46.0584988 89 65.7422816"></polygon>
                            </g>
                        </g>
                        <g filter="url(#filter-18)" id="Group-4-Copy-5">
                            <g transform="translate(0.000000, 70.000000)">
                                <polygon id="Path" fill="#FFFFFF" fill-rule="nonzero" points="56.254717 30.9848083 0 26.0493159 0 6.69941801 56.254717 11.6349104"></polygon>
                                <polygon id="Path" fill="#FFFFFF" fill-rule="nonzero" points="56.254717 54.4327713 0 49.3270895 0 29.3099538 56.254717 34.4156356"></polygon>
                                <polygon id="Path" fill="#FFFFFF" fill-rule="nonzero" points="56.254717 77.8807344 0 72.7750525 0 52.7579168 56.254717 57.8635986"></polygon>
                                <polygon id="Path" fill="#FFFFFF" fill-rule="nonzero" opacity="0.697800409" points="58.7735849 30.9848083 58.7735849 11.6800081 89 0 89 18.985567"></polygon>
                                <polygon id="Path" fill="#FFFFFF" fill-rule="nonzero" opacity="0.697800409" points="58.7735849 54.4327713 58.7735849 34.7730947 89 22.6105358 89 42.2702124"></polygon>
                                <polygon id="Path" fill="#FFFFFF" fill-rule="nonzero" opacity="0.697800409" points="89 64.9558697 58.7735849 77.8807344 58.7735849 57.6789573 89 45.2210716 89 65.4228487"></polygon>
                            </g>
                        </g>
                        <g filter="url(#filter-19)" id="Group-4-Copy-6">
                            <g>
                                <polygon id="Path" fill="#FFFFFF" fill-rule="nonzero" points="56.254717 32.16077 0 27.0007724 0 6.77068841 56.254717 11.930686"></polygon>
                                <polygon id="Path" fill="#FFFFFF" fill-rule="nonzero" points="56.254717 55.0118434 0 50.0238457 0 30.4680979 56.254717 35.4560955"></polygon>
                                <polygon id="Path" fill="#FFFFFF" fill-rule="nonzero" points="56.254717 78.7092528 0 73.5492552 0 53.3191713 56.254717 58.4791688"></polygon>
                                <polygon id="Path" fill="#FFFFFF" fill-rule="nonzero" opacity="0.697800409" points="58.7735849 32.16077 58.7735849 12.1232977 89 0 89 19.7061233"></polygon>
                                <polygon id="Path" fill="#FFFFFF" fill-rule="nonzero" opacity="0.697800409" points="58.7735849 55.0118434 58.7735849 35.1430212 89 22.8510734 89 42.7198955"></polygon>
                                <polygon id="Path" fill="#FFFFFF" fill-rule="nonzero" opacity="0.697800409" points="89 65.981822 58.7735849 78.7092528 58.7735849 58.8160681 89 46.5484828 89 66.4416676"></polygon>
                            </g>
                        </g>
                    </g>
                    <g id="Group-14-Copy-6" transform="translate(0.000000, 27.000000)">
                        <g filter="url(#filter-20)" id="Group-4-Copy-2">
                            <g transform="translate(0.000000, 279.000000)">
                                <polygon id="Path" fill="#FFFFFF" fill-rule="nonzero" points="56.254717 31.3144339 0 26.3264363 0 6.77068841 56.254717 11.7586861"></polygon>
                                <polygon id="Path" fill="#FFFFFF" fill-rule="nonzero" points="56.254717 55.0118434 0 49.8518458 0 29.6217618 56.254717 34.7817594"></polygon>
                                <polygon id="Path" fill="#FFFFFF" fill-rule="nonzero" points="56.254717 78.7092528 0 73.5492552 0 53.3191713 56.254717 58.4791688"></polygon>
                                <polygon id="Path" fill="#FFFFFF" fill-rule="nonzero" opacity="0.697800409" points="58.7735849 31.3144339 58.7735849 11.8042635 89 0 89 19.1875411"></polygon>
                                <polygon id="Path" fill="#FFFFFF" fill-rule="nonzero" opacity="0.697800409" points="58.7735849 55.0118434 58.7735849 35.1430212 89 22.8510734 89 42.7198955"></polygon>
                                <polygon id="Path" fill="#FFFFFF" fill-rule="nonzero" opacity="0.697800409" points="89 65.6468896 58.7735849 78.7092528 58.7735849 58.2925632 89 45.7021468 89 66.1188364"></polygon>
                            </g>
                        </g>
                        <g filter="url(#filter-21)" id="Group-4-Copy-4">
                            <g transform="translate(0.000000, 140.000000)">
                                <polygon id="Path" fill="#FFFFFF" fill-rule="nonzero" points="56.254717 31.8222355 0 26.7165537 0 6.69941801 56.254717 11.8050998"></polygon>
                                <polygon id="Path" fill="#FFFFFF" fill-rule="nonzero" points="56.254717 55.2701986 0 50.1645168 0 30.147381 56.254717 35.2530629"></polygon>
                                <polygon id="Path" fill="#FFFFFF" fill-rule="nonzero" points="56.254717 77.8807344 0 72.9452419 0 53.5953441 56.254717 58.5308365"></polygon>
                                <polygon id="Path" fill="#FFFFFF" fill-rule="nonzero" opacity="0.697800409" points="58.7735849 31.8222355 58.7735849 11.995684 89 0 89 19.4986904"></polygon>
                                <polygon id="Path" fill="#FFFFFF" fill-rule="nonzero" opacity="0.697800409" points="58.7735849 55.2701986 58.7735849 35.093162 89 22.6105358 89 42.7875723"></polygon>
                                <polygon id="Path" fill="#FFFFFF" fill-rule="nonzero" opacity="0.697800409" points="89 65.2872765 58.7735849 77.8807344 58.7735849 58.1969516 89 46.0584988 89 65.7422816"></polygon>
                            </g>
                        </g>
                        <g filter="url(#filter-22)" id="Group-4-Copy">
                            <g transform="translate(0.000000, 348.000000)">
                                <polygon id="Path" fill="#FFFFFF" fill-rule="nonzero" points="56.254717 32.3799768 0 27.1848088 0 6.81683722 56.254717 12.0120052"></polygon>
                                <polygon id="Path" fill="#FFFFFF" fill-rule="nonzero" opacity="0.697800409" points="58.7735849 32.3799768 58.7735849 12.2059297 89 0 89 19.8404396"></polygon>
                            </g>
                        </g>
                        <g filter="url(#filter-23)" id="Group-4-Copy-3">
                            <g transform="translate(0.000000, 209.000000)">
                                <polygon id="Path" fill="#FFFFFF" fill-rule="nonzero" points="56.254717 31.8222355 0 26.7165537 0 6.69941801 56.254717 11.8050998"></polygon>
                                <polygon id="Path" fill="#FFFFFF" fill-rule="nonzero" points="56.254717 54.4327713 0 49.3270895 0 29.3099538 56.254717 34.4156356"></polygon>
                                <polygon id="Path" fill="#FFFFFF" fill-rule="nonzero" points="56.254717 77.8807344 0 72.7750525 0 52.7579168 56.254717 57.8635986"></polygon>
                                <polygon id="Path" fill="#FFFFFF" fill-rule="nonzero" opacity="0.697800409" points="58.7735849 31.8222355 58.7735849 11.995684 89 0 89 19.4986904"></polygon>
                                <polygon id="Path" fill="#FFFFFF" fill-rule="nonzero" opacity="0.697800409" points="58.7735849 54.4327713 58.7735849 34.7730947 89 22.6105358 89 42.2702124"></polygon>
                                <polygon id="Path" fill="#FFFFFF" fill-rule="nonzero" opacity="0.697800409" points="89 65.2872765 58.7735849 77.8807344 58.7735849 58.1969516 89 46.0584988 89 65.7422816"></polygon>
                            </g>
                        </g>
                        <g filter="url(#filter-24)" id="Group-4-Copy-5">
                            <g transform="translate(0.000000, 70.000000)">
                                <polygon id="Path" fill="#FFFFFF" fill-rule="nonzero" points="56.254717 30.9848083 0 26.0493159 0 6.69941801 56.254717 11.6349104"></polygon>
                                <polygon id="Path" fill="#FFFFFF" fill-rule="nonzero" points="56.254717 54.4327713 0 49.3270895 0 29.3099538 56.254717 34.4156356"></polygon>
                                <polygon id="Path" fill="#FFFFFF" fill-rule="nonzero" points="56.254717 77.8807344 0 72.7750525 0 52.7579168 56.254717 57.8635986"></polygon>
                                <polygon id="Path" fill="#FFFFFF" fill-rule="nonzero" opacity="0.697800409" points="58.7735849 30.9848083 58.7735849 11.6800081 89 0 89 18.985567"></polygon>
                                <polygon id="Path" fill="#FFFFFF" fill-rule="nonzero" opacity="0.697800409" points="58.7735849 54.4327713 58.7735849 34.7730947 89 22.6105358 89 42.2702124"></polygon>
                                <polygon id="Path" fill="#FFFFFF" fill-rule="nonzero" opacity="0.697800409" points="89 64.9558697 58.7735849 77.8807344 58.7735849 57.6789573 89 45.2210716 89 65.4228487"></polygon>
                            </g>
                        </g>
                        <g filter="url(#filter-25)" id="Group-4-Copy-6">
                            <g>
                                <polygon id="Path" fill="#FFFFFF" fill-rule="nonzero" points="56.254717 32.16077 0 27.0007724 0 6.77068841 56.254717 11.930686"></polygon>
                                <polygon id="Path" fill="#FFFFFF" fill-rule="nonzero" points="56.254717 55.0118434 0 50.0238457 0 30.4680979 56.254717 35.4560955"></polygon>
                                <polygon id="Path" fill="#FFFFFF" fill-rule="nonzero" points="56.254717 78.7092528 0 73.5492552 0 53.3191713 56.254717 58.4791688"></polygon>
                                <polygon id="Path" fill="#FFFFFF" fill-rule="nonzero" opacity="0.697800409" points="58.7735849 32.16077 58.7735849 12.1232977 89 0 89 19.7061233"></polygon>
                                <polygon id="Path" fill="#FFFFFF" fill-rule="nonzero" opacity="0.697800409" points="58.7735849 55.0118434 58.7735849 35.1430212 89 22.8510734 89 42.7198955"></polygon>
                                <polygon id="Path" fill="#FFFFFF" fill-rule="nonzero" opacity="0.697800409" points="89 65.981822 58.7735849 78.7092528 58.7735849 58.8160681 89 46.5484828 89 66.4416676"></polygon>
                            </g>
                        </g>
                    </g>
                    <g id="Group-14-Copy-7" transform="translate(368.000000, -0.000000)">
                        <g filter="url(#filter-26)" id="Group-4-Copy-2">
                            <g transform="translate(0.000000, 279.000000)">
                                <polygon id="Path" fill="#FFFFFF" fill-rule="nonzero" points="56.254717 31.3144339 0 26.3264363 0 6.77068841 56.254717 11.7586861"></polygon>
                                <polygon id="Path" fill="#FFFFFF" fill-rule="nonzero" points="56.254717 55.0118434 0 49.8518458 0 29.6217618 56.254717 34.7817594"></polygon>
                                <polygon id="Path" fill="#FFFFFF" fill-rule="nonzero" points="56.254717 78.7092528 0 73.5492552 0 53.3191713 56.254717 58.4791688"></polygon>
                                <polygon id="Path" fill="#FFFFFF" fill-rule="nonzero" opacity="0.697800409" points="58.7735849 31.3144339 58.7735849 11.8042635 89 0 89 19.1875411"></polygon>
                                <polygon id="Path" fill="#FFFFFF" fill-rule="nonzero" opacity="0.697800409" points="58.7735849 55.0118434 58.7735849 35.1430212 89 22.8510734 89 42.7198955"></polygon>
                                <polygon id="Path" fill="#FFFFFF" fill-rule="nonzero" opacity="0.697800409" points="89 65.6468896 58.7735849 78.7092528 58.7735849 58.2925632 89 45.7021468 89 66.1188364"></polygon>
                            </g>
                        </g>
                        <g filter="url(#filter-27)" id="Group-4-Copy-4">
                            <g transform="translate(0.000000, 140.000000)">
                                <polygon id="Path" fill="#FFFFFF" fill-rule="nonzero" points="56.254717 31.8222355 0 26.7165537 0 6.69941801 56.254717 11.8050998"></polygon>
                                <polygon id="Path" fill="#FFFFFF" fill-rule="nonzero" points="56.254717 55.2701986 0 50.1645168 0 30.147381 56.254717 35.2530629"></polygon>
                                <polygon id="Path" fill="#FFFFFF" fill-rule="nonzero" points="56.254717 77.8807344 0 72.9452419 0 53.5953441 56.254717 58.5308365"></polygon>
                                <polygon id="Path" fill="#FFFFFF" fill-rule="nonzero" opacity="0.697800409" points="58.7735849 31.8222355 58.7735849 11.995684 89 0 89 19.4986904"></polygon>
                                <polygon id="Path" fill="#FFFFFF" fill-rule="nonzero" opacity="0.697800409" points="58.7735849 55.2701986 58.7735849 35.093162 89 22.6105358 89 42.7875723"></polygon>
                                <polygon id="Path" fill="#FFFFFF" fill-rule="nonzero" opacity="0.697800409" points="89 65.2872765 58.7735849 77.8807344 58.7735849 58.1969516 89 46.0584988 89 65.7422816"></polygon>
                            </g>
                        </g>
                        <g filter="url(#filter-28)" id="Group-4-Copy">
                            <g transform="translate(0.000000, 348.000000)">
                                <polygon id="Path" fill="#FFFFFF" fill-rule="nonzero" points="56.254717 32.3799768 0 27.1848088 0 6.81683722 56.254717 12.0120052"></polygon>
                                <polygon id="Path" fill="#FFFFFF" fill-rule="nonzero" opacity="0.697800409" points="58.7735849 32.3799768 58.7735849 12.2059297 89 0 89 19.8404396"></polygon>
                            </g>
                        </g>
                        <g filter="url(#filter-29)" id="Group-4-Copy-3">
                            <g transform="translate(0.000000, 209.000000)">
                                <polygon id="Path" fill="#FFFFFF" fill-rule="nonzero" points="56.254717 31.8222355 0 26.7165537 0 6.69941801 56.254717 11.8050998"></polygon>
                                <polygon id="Path" fill="#FFFFFF" fill-rule="nonzero" points="56.254717 54.4327713 0 49.3270895 0 29.3099538 56.254717 34.4156356"></polygon>
                                <polygon id="Path" fill="#FFFFFF" fill-rule="nonzero" points="56.254717 77.8807344 0 72.7750525 0 52.7579168 56.254717 57.8635986"></polygon>
                                <polygon id="Path" fill="#FFFFFF" fill-rule="nonzero" opacity="0.697800409" points="58.7735849 31.8222355 58.7735849 11.995684 89 0 89 19.4986904"></polygon>
                                <polygon id="Path" fill="#FFFFFF" fill-rule="nonzero" opacity="0.697800409" points="58.7735849 54.4327713 58.7735849 34.7730947 89 22.6105358 89 42.2702124"></polygon>
                                <polygon id="Path" fill="#FFFFFF" fill-rule="nonzero" opacity="0.697800409" points="89 65.2872765 58.7735849 77.8807344 58.7735849 58.1969516 89 46.0584988 89 65.7422816"></polygon>
                            </g>
                        </g>
                        <g filter="url(#filter-30)" id="Group-4-Copy-5">
                            <g transform="translate(0.000000, 70.000000)">
                                <polygon id="Path" fill="#FFFFFF" fill-rule="nonzero" points="56.254717 30.9848083 0 26.0493159 0 6.69941801 56.254717 11.6349104"></polygon>
                                <polygon id="Path" fill="#FFFFFF" fill-rule="nonzero" points="56.254717 54.4327713 0 49.3270895 0 29.3099538 56.254717 34.4156356"></polygon>
                                <polygon id="Path" fill="#FFFFFF" fill-rule="nonzero" points="56.254717 77.8807344 0 72.7750525 0 52.7579168 56.254717 57.8635986"></polygon>
                                <polygon id="Path" fill="#FFFFFF" fill-rule="nonzero" opacity="0.697800409" points="58.7735849 30.9848083 58.7735849 11.6800081 89 0 89 18.985567"></polygon>
                                <polygon id="Path" fill="#FFFFFF" fill-rule="nonzero" opacity="0.697800409" points="58.7735849 54.4327713 58.7735849 34.7730947 89 22.6105358 89 42.2702124"></polygon>
                                <polygon id="Path" fill="#FFFFFF" fill-rule="nonzero" opacity="0.697800409" points="89 64.9558697 58.7735849 77.8807344 58.7735849 57.6789573 89 45.2210716 89 65.4228487"></polygon>
                            </g>
                        </g>
                        <g filter="url(#filter-31)" id="Group-4-Copy-6">
                            <g>
                                <polygon id="Path" fill="#FFFFFF" fill-rule="nonzero" points="56.254717 32.16077 0 27.0007724 0 6.77068841 56.254717 11.930686"></polygon>
                                <polygon id="Path" fill="#FFFFFF" fill-rule="nonzero" points="56.254717 55.0118434 0 50.0238457 0 30.4680979 56.254717 35.4560955"></polygon>
                                <polygon id="Path" fill="#FFFFFF" fill-rule="nonzero" points="56.254717 78.7092528 0 73.5492552 0 53.3191713 56.254717 58.4791688"></polygon>
                                <polygon id="Path" fill="#FFFFFF" fill-rule="nonzero" opacity="0.697800409" points="58.7735849 32.16077 58.7735849 12.1232977 89 0 89 19.7061233"></polygon>
                                <polygon id="Path" fill="#FFFFFF" fill-rule="nonzero" opacity="0.697800409" points="58.7735849 55.0118434 58.7735849 35.1430212 89 22.8510734 89 42.7198955"></polygon>
                                <polygon id="Path" fill="#FFFFFF" fill-rule="nonzero" opacity="0.697800409" points="89 65.981822 58.7735849 78.7092528 58.7735849 58.8160681 89 46.5484828 89 66.4416676"></polygon>
                            </g>
                        </g>
                    </g>
                </g>
            </g>
        </g>
    </g>
</svg>