<svg xmlns="http://www.w3.org/2000/svg" xmlns:xlink="http://www.w3.org/1999/xlink" width="492px" height="486px" viewBox="0 0 492 486" version="1.1">
    <title>Group 3</title>
    <g id="portfolio" stroke="none" stroke-width="1" fill="none" fill-rule="evenodd" opacity="0.2">
        <g id="6-clients-topV2@2x" transform="translate(-836.000000, -488.000000)" fill="#FFFFFF">
            <g id="1-ambassador" transform="translate(62.000000, 357.000000)">
                <g id="Group-21" transform="translate(659.000000, 0.000000)">
                    <g id="Group-3" transform="translate(115.000000, 131.000000)">
                        <path d="M311.566178,321.890625 L311.566178,151.703125 L341.238052,153.775766 C375.190341,153.775766 399.644072,161.27212 414.599247,176.264828 C429.554421,191.257536 437.032009,212.020411 437.032009,238.553453 C437.032009,264.762328 429.554421,285.440109 414.599247,300.586797 C399.644072,315.733484 375.190341,323.306828 341.238052,323.306828 L311.566178,321.890625 Z M257,486 L311.566178,437.375 L311.566178,370.515625 L343.27519,370.764828 C364.783215,371.109123 386.20221,367.918393 406.681088,361.319422 C423.869294,355.774482 439.732643,346.73662 453.280604,334.770172 C465.904625,323.274828 475.745903,309.043373 482.055168,293.159328 C488.871392,275.768164 492.244508,257.212822 491.986213,238.529141 C492.231517,219.867636 488.939653,201.329178 482.285559,183.898953 C476.099996,167.948677 466.240278,153.690556 453.510994,142.288109 C439.844851,130.352518 423.905299,121.320595 406.656837,115.738859 C386.177958,109.139889 364.758964,105.949159 343.250938,106.293453 L311.893575,106.293453 C311.612002,103.204158 311.5027,100.101512 311.566178,97 L257,97 L257,486 Z" id="P"/>
                        <polygon id="Path" points="184.048729 78.9090281 184 0 225.7002 51.8661139 247.524888 0.606479349 269.325212 51.8661139 312 0.606479349 312 79"/>
                        <path d="M184.278057,321.792453 L184.278057,151.679245 L153.890482,151.679245 C119.856399,151.679245 92.592668,160.883585 77.6115939,175.847472 C62.6305199,190.811358 55.1247891,211.571245 55.1247891,238.108906 C55.1247891,264.31039 62.6203907,284.979145 77.6115939,300.11517 C92.6027972,315.251195 117.11544,322.821233 151.149523,322.825283 L184.278057,321.792453 Z M238.97569,419 L184.278057,376.471698 L184.278057,370.396226 L149.083168,370.286868 C127.523125,370.634084 106.052032,367.444672 85.5245182,360.845585 C68.2927886,355.307878 52.3902849,346.273428 38.8127393,334.307925 C26.1570109,322.818733 16.2918015,308.593171 9.96885397,292.715245 C3.13560908,275.331843 -0.245653962,256.784483 0.0138846911,238.108906 C-0.231568185,219.455584 3.06821198,200.9253 9.7379084,183.502566 C15.9400067,167.56012 25.8232306,153.308581 38.5817937,141.909887 C52.2840828,129.984062 68.2610551,120.956635 85.5488283,115.372226 C106.077716,108.779022 127.547833,105.589756 149.107478,105.930943 L184.107886,105.930943 C183.901251,105.930943 184.58801,97 184.302367,97 L239,97 L239,419 L238.97569,419 Z" id="P-2"/>
                    </g>
                </g>
            </g>
        </g>
    </g>
</svg>