<?xml version="1.0" encoding="utf-8"?>
<!-- Generator: Adobe Illustrator 22.0.1, SVG Export Plug-In . SVG Version: 6.00 Build 0)  -->
<svg version="1.1" id="vergoelst-logo" xmlns="http://www.w3.org/2000/svg" xmlns:xlink="http://www.w3.org/1999/xlink" x="0px" y="0px"
	 viewBox="0 0 324.6 79.9" style="enable-background:new 0 0 324.6 79.9;" xml:space="preserve">
<style type="text/css">
	.st0{fill:#231F20;}
</style>
<path class="st0" d="M284.8,4.2c-2.4,0-4.3,1.9-4.3,4.3c0,2.4,1.9,4.3,4.3,4.3c2.4,0,4.3-1.9,4.3-4.3C289.2,6.2,287.2,4.2,284.8,4.2
	 M290.2,8.6c0,3-2.4,5.3-5.3,5.3c-2.9,0-5.3-2.4-5.3-5.3s2.4-5.3,5.3-5.3C287.8,3.2,290.2,5.6,290.2,8.6z M283.7,6.3h1.3
	c1.1,0,1.3,0.3,1.3,0.9c0,0.7-0.4,1-1.5,1h-1.1V6.3z M283.7,9h1.1l1.6,2.7h1l-1.7-2.7c0.9-0.1,1.6-0.6,1.6-1.7
	c0-1.2-0.7-1.8-2.2-1.8h-2.3v6.2h0.9L283.7,9L283.7,9z M154.6,69.2c-0.4,1.2-1.5,1.6-2.9,1.6h-0.8l1.1-3.3h0.6
	C154,67.5,155.1,67.6,154.6,69.2z M158.6,69c1-2.9-0.9-4.2-3.8-4.2H149l-4.9,14.9h3.9l2.1-6.5h1.3l-0.2,6.5h3.8l-0.2-7.3
	C156.6,71.9,158.1,70.6,158.6,69z M163.8,73.2h-2.6c0.3-1,1-2.1,2-2.1C164.3,71,164.1,72.2,163.8,73.2z M166.6,74.5
	c0.9-2.7,0.6-5.6-2.7-5.6c-3.2,0-5.6,2.5-6.6,5.5c-0.9,2.9-0.3,5.5,3.1,5.5c3.1,0,5-2.4,5.3-2.9l-2.1-0.8c-0.5,0.9-1.4,1.4-2.2,1.4
	c-1.4,0-1.1-1.6-0.8-2.5h5.8L166.6,74.5z M173,69.2h-3.5l-3.4,10.5h3.5L173,69.2z M173.4,67.8l1-3h-3.5l-1,3H173.4z M181.1,67.2
	l0.8-2.6c-0.5-0.1-1-0.1-1.7-0.1c-2.3,0-3.9,0.9-4.8,3.5l-0.4,1.2h-1.4l-0.8,2.4h1.4l-2.6,8.1h3.5l2.6-8.1h1.9l0.8-2.4h-1.9l0.4-1.2
	c0.2-0.6,0.7-0.9,1.5-0.9C180.7,67.1,180.9,67.1,181.1,67.2z M185.4,73.2h-2.6c0.3-1,1-2.1,2-2.1C186,71,185.7,72.2,185.4,73.2z
	 M188.2,74.5c0.9-2.7,0.6-5.6-2.7-5.6c-3.2,0-5.6,2.5-6.6,5.5c-0.9,2.9-0.3,5.5,3.1,5.5c3.1,0,5-2.4,5.3-2.9l-2.1-0.8
	c-0.5,0.9-1.4,1.4-2.2,1.4c-1.4,0-1.1-1.6-0.8-2.5h5.8L188.2,74.5z M199.4,71.3c0.5-1.4-0.1-2.4-1.5-2.4c-1.2,0-2.5,0.6-3.6,1.7
	l0.4-1.4h-3.5l-3.4,10.5h3.5l2.5-7.7l0.3-0.3c0.3-0.3,0.7-0.4,1-0.4c0.6,0,0.7,0.4,0.5,0.9l-2.4,7.4h3.5L199.4,71.3z M217.5,73.1
	h-4.2l1.3-4h-2.6l-1.3,4h-4.2l-0.8,2.5h4.2l-1.3,4h2.6l1.3-4h4.2L217.5,73.1z M231.6,67.9l-0.8,6.1h-2.5L231.6,67.9z M234,79.7
	l1.6-14.9h-5.1L222,79.7h3.2l1.7-3h3.6l-0.4,3H234z M243.7,79.7l3.4-10.5h-3.5l-2.5,7.7l-0.3,0.3c-0.3,0.3-0.7,0.4-1,0.4
	c-0.6,0-0.7-0.4-0.5-0.9l2.4-7.4h-3.5l-2.7,8.4c-0.5,1.4,0.1,2.4,1.5,2.4c1.2,0,2.5-0.6,3.6-1.7l-0.4,1.4
	C240.2,79.7,243.7,79.7,243.7,79.7z M254.7,69.2h-1.9l1.2-3.8h-3.5l-1.2,3.8h-1.4l-0.8,2.4h1.4l-1.9,5.7c-0.6,1.9,0.2,2.7,2.1,2.7
	c0.8,0,1.8-0.1,2.5-0.3l0.8-2.5c-0.3,0.1-0.6,0.1-0.8,0.1c-1.1,0-0.9-0.5-0.7-1.3l1.5-4.5h1.9L254.7,69.2z M259.6,74.4
	c-0.9,2.7-1.5,3.4-2.4,3.4c-0.9,0-1-0.8-0.1-3.4c0.8-2.4,1.3-3.3,2.3-3.3C260.5,71,260.4,71.9,259.6,74.4z M263.3,74.4
	c1-3.1,0.2-5.5-3.1-5.5s-5.6,2.3-6.7,5.5c-1.1,3.3-0.3,5.6,3.1,5.6C259.9,79.9,262.2,77.6,263.3,74.4z M270.7,72.4l2.6-0.6
	c0-2.1-1.5-2.9-3.2-2.9c-3.1,0-4.9,2.2-5.3,3.3c-1.2,3.6,4.3,3,3.8,4.7c-0.1,0.5-0.7,0.8-1.4,0.8c-1,0-1.2-0.7-1.4-1.5l-2.9,0.8
	c0,1.7,1.2,3,3.6,3c2.6,0,4.8-1.3,5.5-3.6c1.1-3.5-4.3-2.9-3.8-4.6c0.1-0.3,0.5-0.7,1.3-0.7C270.3,71,270.6,71.8,270.7,72.4z
	 M279.7,73.2H277c0.3-1,1-2.1,2-2.1C280.2,71,280,72.2,279.7,73.2z M282.5,74.5c0.9-2.7,0.6-5.6-2.7-5.6c-3.2,0-5.6,2.5-6.6,5.5
	c-0.9,2.9-0.3,5.5,3,5.5c3.1,0,5-2.4,5.3-2.9l-2.1-0.8c-0.5,0.9-1.4,1.4-2.2,1.4c-1.4,0-1.1-1.6-0.8-2.5h5.8L282.5,74.5z
	 M294.2,79.7l6.9-10.5h-2.8l-3.4,5.7l0.6-5.7h-3.3l0.1-0.3c-1.4,0-3.1,0.5-4,1.8l0.5-1.6h-3.4l-3.4,10.5h3.5l2.2-6.8
	c0.6-0.5,1-0.8,2.2-0.8c0.5,0,0.9,0.1,1.3,0.3l0.7-2.1l-0.3,9.4H294.2z M305.3,69.2h-3.5l-3.4,10.5h3.5L305.3,69.2z M305.8,67.8l1-3
	h-3.5l-1,3H305.8z M314.4,73.1c0.3-1,0.8-4.2-2.9-4.2c-3.3,0-5.9,2.9-6.8,5.7c-0.8,2.6-0.1,5.3,3.1,5.3c2.5,0,4.5-1.3,5.6-3.9
	l-2.6-0.4c-0.3,0.8-0.8,2-2,2c-0.9,0-1-0.8-0.3-3.1c0.7-2.1,1.3-3.5,2.4-3.5c0.6,0,0.7,0.3,0.8,0.7c0,0.4-0.1,0.9-0.3,1.3H314.4z
	 M321.3,73.2h-2.6c0.3-1,1-2.1,2-2.1C321.9,71,321.6,72.2,321.3,73.2z M321.4,68.9c-3.2,0-5.6,2.5-6.6,5.5c-0.9,2.9-0.3,5.5,3,5.5
	c3.1,0,5-2.4,5.3-2.9l-2.1-0.8c-0.5,0.9-1.4,1.4-2.2,1.4c-1.4,0-1.1-1.6-0.8-2.5h5.8l0.2-0.7C325,71.7,324.8,68.9,321.4,68.9z
	 M4.6,0l35.7,0.1L24.9,46.7c8.3,0,15.9,1.9,21.3-14.4L56.8,0.1h31l-4.6,13.4H66l-7.2,21C53.3,51,46.8,58.9,32.4,58.9H5.9l15-45.5H0
	L4.6,0z M93.1,58.9h11l9.3-28.7h7.7l3.5-10.3c-5.5,0-7.7,1-9,3.4l1.3-3.4h-10.8L93.1,58.9z M109.7,76h26.6c2.3,0,3.5-1.3,4.2-3.5
	L153.3,34h-9.9l-5.1,15.1h-9.2l6.2-18.6h19l3.5-10.5l-27.1,0c-2,0-3,0.9-3.5,2c0,0-10.5,32.3-11.1,34.1c-0.6,1.8,0.6,2.9,2.3,2.9
	h16.6l-1.3,3.8H114L109.7,76z M164.7,16.9h10.5l2.6-8.4h-10.4L164.7,16.9z M184.7,16.9h10.1l2.6-8.4h-9.9L184.7,16.9z M203.7,8.6h11
	l-13.2,40.6h3.1l-3.4,9.7h-10.5c-2.8,0-2.3-3.5-2.3-3.5L203.7,8.6z M210.2,41.2c0.4-0.9,5.7-17.3,6.2-18.7c0.6-1.7,2-2.4,3.3-2.4
	H247l-3.4,10.4l-18.4-0.1l-1.8,5.4l15.7,0.1c1.3,0,2.3,1.3,1.9,2.8c-0.4,1.5-5.1,15.3-5.8,17.9c-0.5,1.7-1,2.5-3.9,2.5h-26.8
	l3.3-9.7h18.7l1.8-5.3h-15.7C211.1,43.9,209.5,42.8,210.2,41.2z M249.6,20h3.6L257,8.6h10.6L263.8,20h11.7l-3.3,10.4h-11.9
	l-6.1,18.8H266l-3.2,9.7c0,0-15.2,0-19.4,0c-2,0-2.2-2.2-2-2.8c1.1-3.3,8.5-25.8,8.5-25.8h-3.5L249.6,20z M86.5,58.9
	c-1.2,0-25.9,0-26.9,0c-1,0-1.9-0.7-1.5-1.9s11.3-35.1,11.6-35.8c0.3-0.7,0.6-1.2,2-1.2l26.4,0c1.2,0,2,1,1.7,1.9l-7.4,22h-19
	l-1.6,5.3h19.2l-2.6,8.3C87.9,58.4,87.6,58.9,86.5,58.9z M75.8,35.7h9.4l1.7-5.3h-9.4L75.8,35.7z M151.9,55.9
	c0.4-1.4,10.9-33.4,10.9-33.4c0.7-1.6,2-2.4,3.5-2.4h24.1c2.6,0,2.6,2,2.3,3.7c0,0-10.1,29.9-10.9,32.7c-0.8,2.5-2.5,2.5-3.4,2.5
	h-23.9C152.7,58.9,151.4,57.2,151.9,55.9z M164.4,49.2h9.6l6.1-18.7h-9.4L164.4,49.2z"/>
</svg>
