<svg id="Layer_1" data-name="Layer 1" xmlns="http://www.w3.org/2000/svg" viewBox="0 0 805.177 772.246">
  <g>
    <path d="M126.6,772.246c-84.328,0-145.523-81.195-121.228-161.947,13.739-45.667,41.034-90.225,92.941-117.251C240.358,419.091,227.845,439.37,294.8,315.092s248.424-153.76,343.511-66.218C772.8,372.692,682.336,471.331,767.445,556.439q1.329,1.331,2.624,2.675c76.9,79.846,19.032,213.132-91.821,213.132Z" fill="#292a2e" opacity="0.03"></path>
    <g>
      <path d="M486.571,333.967V267.725H170v66.241a158.342,158.342,0,0,0,116.144,152.6,23.337,23.337,0,0,1,0,44.937A158.34,158.34,0,0,0,170,684.108v66.243H486.571V684.108a158.343,158.343,0,0,0-116.144-152.6,23.336,23.336,0,0,1,0-44.937,158.341,158.341,0,0,0,116.144-152.6" fill="#FFEB3B"></path>
      <path d="M486.571,333.967V267.725H170v66.241a158.342,158.342,0,0,0,116.144,152.6,23.337,23.337,0,0,1,0,44.937A158.34,158.34,0,0,0,170,684.108v66.243H486.571V684.108a158.343,158.343,0,0,0-116.144-152.6,23.336,23.336,0,0,1,0-44.937,158.341,158.341,0,0,0,116.144-152.6" fill="#fff" opacity="0.8"></path>
      <path d="M487.571,751.351H169V684.109A159.653,159.653,0,0,1,285.882,530.542a22.336,22.336,0,0,0,0-43.009A159.657,159.657,0,0,1,169,333.966V266.725H487.571v67.242A159.654,159.654,0,0,1,370.693,487.533a22.336,22.336,0,0,0,0,43.009A159.656,159.656,0,0,1,487.571,684.109Zm-316.567-2H485.571V684.109A157.652,157.652,0,0,0,370.162,532.47a24.335,24.335,0,0,1,0-46.865A157.65,157.65,0,0,0,485.571,333.967V268.725H171v65.241A157.653,157.653,0,0,0,286.413,485.605a24.336,24.336,0,0,1,0,46.865A157.65,157.65,0,0,0,171,684.109Z" fill="#292a2e"></path>
      <path d="M504.962,255.667a12.05,12.05,0,0,1-11.787,12.052c-.092.006-.178.006-.271.006h-328.7c-.093,0-.179,0-.271-.006a12.056,12.056,0,0,1,.271-24.109H492.9A12.058,12.058,0,0,1,504.962,255.667Z" fill="#292a2e"></path>
      <path d="M333.879,639.231l0-143.171a24.841,24.841,0,0,1,17.712-24.355c56.014-15.414,108.125-65.661,110.686-123.378.136-3.095-2.583-5.134-5.681-5.134H199.972c-3.1,0-5.817,2.039-5.681,5.134,2.561,57.717,54.672,107.964,110.686,123.378,7.927,2.193,17.716,11.907,17.716,24.714l0,142.822c0,10.3-3.879,19.046-11.161,26.328-6.013,6.014-96.561,84.78-96.561,84.78H441.6s-91.385-79.665-96.417-84.7C337.9,658.371,333.879,649.529,333.879,639.231Z" fill="#fafafa"></path>
      <path d="M505.047,759.256a12.048,12.048,0,0,1-11.787,12.051c-.092.006-.178.006-.27.006h-328.7c-.092,0-.178,0-.27-.006a12.056,12.056,0,0,1,.27-24.109h328.7A12.058,12.058,0,0,1,505.047,759.256Z" fill="#292a2e"></path>
    </g>
    <g>
      <circle cx="586.641" cy="630.057" r="140.527" fill="#fff"></circle>
      <path d="M627.635,765.217c-74.529,22.6-153.551-19.639-176.155-94.167S471.119,517.5,545.647,494.9,699.2,514.535,721.8,589.063,702.162,742.613,627.635,765.217ZM546.061,496.261c-73.775,22.375-115.592,100.6-93.216,174.375s100.6,115.592,174.376,93.216,115.591-100.6,93.216-174.375S619.837,473.885,546.061,496.261Z" fill="#292a2e"></path>
      <circle cx="586.641" cy="630.057" r="123.722" fill="#FFEB3B" opacity="0.45"></circle>
      <circle cx="586.641" cy="630.057" r="7.439" fill="#292a2e"></circle>
      <path d="M678.348,679.663a.709.709,0,0,1-.543-.054l-91.5-48.924a.712.712,0,0,1-.377-.628l-.031-72.134a.713.713,0,0,1,1.426,0l.031,71.707,91.123,48.723a.713.713,0,0,1-.129,1.311Z" fill="#292a2e"></path>
    </g>
    <g>
      <g>
        <path d="M214.06,428.337s-2.92,15.138-17.094,15.982-11.1,12.136-11.1,12.136h54.166V429.392Z" fill="#FFEB3B"></path>
        <path d="M244.964,382.8s4.062,14.873-8.284,21.886-4.6,15.79-4.6,15.79l48.6-23.91-11.945-24.283Z" fill="#FFEB3B"></path>
        <path d="M239.822,392.634,203.2,254.453c-2.78-15.265,1.4-21.882,7.848-28.31,11.322-11.293,58.236-35.329,58.236-35.329l56.282-.153c14.924,0,29.6,14.716,29.6,29.639s-15.172,27.579-30.1,27.579L255.758,254.8l18.787,126.523Z" fill="#262626"></path>
        <polygon points="274.545 381.318 267.149 331.508 229.679 354.365 239.822 392.634 274.545 381.318" fill="#0c0c0c"></polygon>
        <path d="M283.039,218.777s-23.66,5.273-47.092,28.705c-14.207,14.207-13.042,39.917-10.911,89.364l23.273-34.375,25.526-46.037Z" fill="#0c0c0c"></path>
        <path d="M364.958,190.644l-38.222-.18-.015.5H315.147s-28.99,26.678-52.332,43.489c-16.978,12.227-27.335,23.884-28.231,36.589-2.185,30.971-26.825,163.06-26.825,163.06l37.083,5.615,32.541-157.856s50.887-23.458,62.657-31.622c11.083-7.687,18.912-10.659,22.579-19.048C368.954,216.705,364.958,190.644,364.958,190.644Z" fill="#262626"></path>
      </g>
      <path d="M322.077,200.273l-62.007.821,34.783,20.775L323.8,206.923A3.535,3.535,0,0,0,322.077,200.273Z" fill="#292a2e"></path>
      <path d="M322.077,200.273l-62.007.821,34.783,20.775L323.8,206.923A3.535,3.535,0,0,0,322.077,200.273Z" fill="#fff" opacity="0.2"></path>
      <path d="M260.425,89.032,242.888,145.86l-35.129,45.994L228.28,215.41l41.793-46.646a14.442,14.442,0,0,0,4.376-5.776l.652-1.575,24.137-58.406Z" fill="#FFEB3B"></path>
      <g>
        <g>
          <path d="M287.443,28.708s-7.067-5.334-8.818-17.612c-1.356-9.507,7.413-3.348,7.413-3.348s-.909-6.854,4.083-6.174,7.791,7.881,7.791,7.881" fill="#0c0c0c"></path>
          <path d="M315.936,2.376s24.78,2.657,15.822,36.235l-2.193.147-4.451.3" fill="#0c0c0c"></path>
          <path id="sk" d="M291.593,73.679c.109-.014,1.318,20.047,24.623,18.3,16.134-1.209,21.886-18.326,22.256-18.326-1.74-.37-3.889-.931-4.744-1.124a9.411,9.411,0,0,1-7.2-7.915c-.472-2.843.329-17.39.082-20.267l-24.765,5.527c.346,6.076,2.768,20.162-5.721,22.655C294.712,72.94,293.191,73.319,291.593,73.679Z" fill="#bb6751"></path>
          <path id="sh" d="M301.5,66.771a17.956,17.956,0,0,0,.745-3.844,40.956,40.956,0,0,0-.162-8.94,27.153,27.153,0,0,0,13.687-6c.46,1.7,2.989,9.119,2.289,10.733C316.733,61.775,310.514,66.771,301.5,66.771Z" fill="#0c0c0c" opacity="1"></path>
          <path d="M306.609,62.8c9.771-.876,21.464-7.049,21.633-20.311l.152-11.967c.169-13.262-6.66-24.1-19.147-24.261h0C296.76,6.1,287.289,16.735,287.121,30l-.068,5.3a40.213,40.213,0,0,0,.4,5.438c.641,4.765,1.633,12.012,4.868,16.913C295.372,62.274,300.367,63.36,306.609,62.8Z" fill="#bb6751"></path>
          <path d="M302.076,50.678a12.87,12.87,0,0,1-5.866-1.121.315.315,0,0,1,.247-.579c3.966,1.691,7.567,1.443,10.413-.716a2.059,2.059,0,0,1,.179-.127.315.315,0,0,1,.314.547c-.023.014-.06.043-.112.082A9.441,9.441,0,0,1,302.076,50.678Z" fill="#0c0c0c" opacity="1"></path>
          <path d="M302.17,53.666a6.47,6.47,0,0,1-1.092-.026.315.315,0,0,1,.066-.627,4.081,4.081,0,0,0,3.268-.811.315.315,0,0,1,.446.445A4.27,4.27,0,0,1,302.17,53.666Z" fill="#0c0c0c" opacity="1"></path>
          <circle cx="291.244" cy="36.307" r="1.538" fill="#0c0c0c"></circle>
          <circle cx="306.272" cy="35.364" r="1.538" fill="#0c0c0c"></circle>
          <path d="M327.415,46.519c3.795.049,6.923-3.972,6.971-7.767s-3-5.926-6.8-5.975L325.6,35.3l-1.45,11.183Z" fill="#bb6751"></path>
          <g>
            <path d="M323.64,40.422s-1.282-18.766-6.972-19.925c-3.79-.772-12.98,4.6-21.493,2.98-3.724-.71-7.26.212-7.619,1.971-.143.7-2.463-9.313,3.369-16.91,4.643-6.048,19.839-7.756,26.752-5.772C336.819,8.257,328.372,33.6,328.372,33.6l-.853,6.47Z" fill="#0c0c0c"></path>
            <g opacity="1">
              <path d="M299.782,46.249h-.024c-1.223-.012-3.273-.169-3.264-1.084.008-.758,2.165-8.92,2.411-9.848a.312.312,0,0,1,.6.16c-.959,3.615-2.386,9.179-2.392,9.694a5.607,5.607,0,0,0,2.648.455.311.311,0,0,1,.018.622Z" fill="#0c0c0c"></path>
            </g>
            <path d="M295.61,27.967a7.405,7.405,0,0,0-3.927,0,6.54,6.54,0,0,0-1.787.782,7.7,7.7,0,0,0-1.492,1.218.454.454,0,0,0,.617.665l.027-.024a6.669,6.669,0,0,1,1.36-.975,5.486,5.486,0,0,1,1.545-.564,6.187,6.187,0,0,1,3.2.179l.044.015a.681.681,0,0,0,.454-1.285Z" fill="#0c0c0c"></path>
            <path d="M304.711,28.739a6.151,6.151,0,0,1,3.148-.6,5.44,5.44,0,0,1,1.607.353,6.677,6.677,0,0,1,1.477.784l.03.019a.453.453,0,0,0,.523-.739,7.641,7.641,0,0,0-1.641-1.009,6.537,6.537,0,0,0-1.875-.537,7.4,7.4,0,0,0-3.892.522.681.681,0,0,0,.542,1.25l.038-.018Z" fill="#0c0c0c"></path>
          </g>
          <ellipse cx="299.003" cy="7.562" rx="7.648" ry="5.196" transform="translate(230.45 298.698) rotate(-78.199)" fill="#0c0c0c"></ellipse>
        </g>
        <path d="M262.639,117.766c.734,8.623,5.939,62.426,6.644,73.048h95.633c.55-9.58,3.017-51.472,5.1-70.207,1.989-17.877,4.778-26.013,2.487-31.568-4.041-9.8-16.9-14.174-25.611-15.353-5.318-.72-13.317-1.236-13.317-1.236s-.677,13.7-16.826,14.462C294.766,87.95,296.234,72.45,296.125,72.45c-3.561,0-22.947,2.589-27.794,5.749a18.63,18.63,0,0,0-8.949,16.13C259.29,100.762,261.805,107.985,262.639,117.766Z" fill="#FFEB3B"></path>
        <path d="M267.488,169.613a.273.273,0,0,1-.271-.249l-3.623-41.439a.272.272,0,0,1,.247-.3.268.268,0,0,1,.3.248l3.624,41.439a.272.272,0,0,1-.248.295Z" fill="#0c0c0c"></path>
        <g id="b_4_ha">
          <path d="M274.422,193.684l13.131-10.654-2.209.625a2.927,2.927,0,0,1-3.514-1.9,2.819,2.819,0,0,1,2.045-3.544l27.586-6.71,2.373,8.788A14.192,14.192,0,0,1,308.7,195.3l-10.222,7.713a2.886,2.886,0,0,1-3.651-.069,2.817,2.817,0,0,1-.7-3.266.244.244,0,0,1-.165-.314l-1.883,1.427a2.925,2.925,0,0,1-3.98-.331,2.816,2.816,0,0,1-.011-3.624.262.262,0,0,1-.084-.029l-.774.586a2.887,2.887,0,0,1-3.651-.07,2.821,2.821,0,0,1-.313-3.9.356.356,0,0,1-.027-.051l-5.468,4.436a2.658,2.658,0,1,1-3.35-4.128Z" fill="#bb6751"></path>
          <path id="b_4_ha_sh" d="M283.574,193.532a.259.259,0,0,0,.08-.046l5.261-4.37a.265.265,0,0,0-.338-.408l-5.262,4.371a.265.265,0,0,0,.259.453Z" fill="#0a0a0a" opacity="0.2"></path>
          <path id="b_4_ha_sh-2" data-name="b_4_ha_sh" d="M288.211,196.834a.289.289,0,0,0,.078-.044l4.162-3.4a.265.265,0,0,0-.335-.41l-4.162,3.4a.265.265,0,0,0,.257.454Z" fill="#0a0a0a" opacity="0.2"></path>
          <path id="b_4_ha_sh-3" data-name="b_4_ha_sh" d="M294.3,199.686a.268.268,0,0,0,.083-.048l1.928-1.654a.264.264,0,1,0-.345-.4l-1.928,1.653a.265.265,0,0,0,.262.45Z" fill="#0a0a0a" opacity="0.2"></path>
        </g>
        <path d="M390.479,167.59l-.1-.448-17.453-77.2-34.533,7.806,13.624,60.264L297.438,171.42l6.716,30.8,72.73-13.874c.166-.033.4-.082.571-.119A17.252,17.252,0,0,0,390.479,167.59Z" fill="#FFEB3B"></path>
        <path d="M297.171,171.476a.272.272,0,0,1,.2-.32l54.333-13.343-8.835-39.02a.272.272,0,0,1,.531-.12l8.894,39.28a.272.272,0,0,1-.2.325l-54.337,13.344s.364,1.588.467,2.121a.265.265,0,0,1-.526.062C297.573,173.221,297.171,171.476,297.171,171.476Z" fill="#0c0c0c"></path>
        <g>
          <path d="M299.3,214.479l-20.984-64.5a5.647,5.647,0,0,0-5.369-3.9H187.459a5.645,5.645,0,0,0-5.369,7.392l20.984,64.5a5.644,5.644,0,0,0,5.369,3.9h85.489A5.646,5.646,0,0,0,299.3,214.479Z" fill="#292a2e"></path>
          <path d="M299.3,214.479l-20.984-64.5a5.647,5.647,0,0,0-5.369-3.9H187.459a5.645,5.645,0,0,0-5.369,7.392l20.984,64.5a5.644,5.644,0,0,0,5.369,3.9h85.489A5.646,5.646,0,0,0,299.3,214.479Z" fill="#fff" opacity="0.2"></path>
          <circle cx="238.233" cy="183.974" r="8.966" fill="#fff"></circle>
        </g>
      </g>
    </g>
  </g>
</svg>